{
.appVersion = "1286";
date = "2020-04-08 16:42:10 +0000";
familyName = artack;
featurePrefixes = (
{
automatic = 1;
code = "languagesystem DFLT dflt;\012";
name = Languagesystems;
}
);
features = (
{
automatic = 1;
code = "lookupflag IgnoreMarks;\012sub L A by L_A.liga;\012sub T Y by T_Y.liga;\012sub T h by T_h.liga;\012";
name = liga;
}
);
fontMaster = (
{
ascender = 800;
capHeight = 700;
descender = -200;
id = "5C2A42EC-7958-4198-96CC-2E1007E4AFAD";
xHeight = 350;
}
);
glyphs = (
{
glyphname = A;
lastChange = "2020-05-20 17:30:09 +0000";
layers = (
{
layerId = "5C2A42EC-7958-4198-96CC-2E1007E4AFAD";
paths = (
{
closed = 1;
nodes = (
"488 29 OFFCURVE",
"469 65 OFFCURVE",
"454 108 CURVE",
"431 180 LINE",
"335 494 LINE",
"335 494 LINE",
"325 528 LINE",
"325 528 LINE",
"279 680 LINE",
"279 680 LINE",
"273 700 LINE",
"243 700 LINE",
"201 563 LINE",
"190 528 LINE",
"190 528 LINE",
"180 494 LINE",
"180 494 LINE",
"30 0 LINE",
"65 0 LINE",
"215 494 LINE",
"216 494 LINE",
"226 528 LINE",
"226 528 LINE",
"258 633 LINE",
"290 528 LINE",
"300 494 LINE",
"337 373 LINE",
"258 338 LINE",
"258 303 LINE",
"258 303 LINE",
"346 342 LINE",
"423 89 LINE",
"423 89 LINE",
"433 56 OFFCURVE",
"449 25 OFFCURVE",
"471 0 CURVE",
"513 0 LINE"
);
}
);
width = 563;
}
);
unicode = 0041;
},
{
glyphname = Aacute;
lastChange = "2020-05-14 02:03:13 +0000";
layers = (
{
layerId = "5C2A42EC-7958-4198-96CC-2E1007E4AFAD";
paths = (
{
closed = 1;
nodes = (
"508 29 OFFCURVE",
"489 65 OFFCURVE",
"474 108 CURVE",
"451 180 LINE",
"355 494 LINE",
"355 494 LINE",
"345 528 LINE",
"345 528 LINE",
"299 680 LINE",
"299 680 LINE",
"293 700 LINE",
"263 700 LINE",
"221 563 LINE",
"210 528 LINE",
"210 528 LINE",
"200 494 LINE",
"200 494 LINE",
"50 0 LINE",
"85 0 LINE",
"235 494 LINE",
"236 494 LINE",
"246 528 LINE",
"246 528 LINE",
"278 633 LINE",
"310 528 LINE",
"320 494 LINE",
"357 373 LINE",
"278 338 LINE",
"278 303 LINE",
"278 303 LINE",
"366 342 LINE",
"443 89 LINE",
"443 89 LINE",
"453 56 OFFCURVE",
"469 25 OFFCURVE",
"491 0 CURVE",
"533 0 LINE"
);
},
{
closed = 1;
nodes = (
"263 753 LINE",
"302 922 LINE",
"346 922 LINE",
"297 753 LINE"
);
}
);
width = 583;
}
);
unicode = 00C1;
},
{
glyphname = Acircumflex;
lastChange = "2020-05-14 02:17:45 +0000";
layers = (
{
layerId = "5C2A42EC-7958-4198-96CC-2E1007E4AFAD";
paths = (
{
closed = 1;
nodes = (
"508 29 OFFCURVE",
"489 65 OFFCURVE",
"474 108 CURVE",
"451 180 LINE",
"355 494 LINE",
"355 494 LINE",
"345 528 LINE",
"345 528 LINE",
"299 680 LINE",
"299 680 LINE",
"293 700 LINE",
"263 700 LINE",
"221 563 LINE",
"210 528 LINE",
"210 528 LINE",
"200 494 LINE",
"200 494 LINE",
"50 0 LINE",
"85 0 LINE",
"235 494 LINE",
"236 494 LINE",
"246 528 LINE",
"246 528 LINE",
"278 633 LINE",
"310 528 LINE",
"320 494 LINE",
"357 373 LINE",
"278 338 LINE",
"278 303 LINE",
"278 303 LINE",
"366 342 LINE",
"443 89 LINE",
"443 89 LINE",
"453 56 OFFCURVE",
"469 25 OFFCURVE",
"491 0 CURVE",
"533 0 LINE"
);
},
{
closed = 1;
nodes = (
"301 882 LINE",
"279 882 LINE",
"257 882 LINE",
"173 734 LINE",
"214 734 LINE",
"279 849 LINE",
"344 734 LINE",
"385 734 LINE"
);
}
);
width = 583;
}
);
unicode = 00C2;
},
{
glyphname = Adieresis;
lastChange = "2020-05-14 02:03:54 +0000";
layers = (
{
layerId = "5C2A42EC-7958-4198-96CC-2E1007E4AFAD";
paths = (
{
closed = 1;
nodes = (
"508 29 OFFCURVE",
"489 65 OFFCURVE",
"474 108 CURVE",
"451 180 LINE",
"355 494 LINE",
"355 494 LINE",
"345 528 LINE",
"345 528 LINE",
"299 680 LINE",
"299 680 LINE",
"293 700 LINE",
"263 700 LINE",
"221 563 LINE",
"210 528 LINE",
"210 528 LINE",
"200 494 LINE",
"200 494 LINE",
"50 0 LINE",
"85 0 LINE",
"235 494 LINE",
"236 494 LINE",
"246 528 LINE",
"246 528 LINE",
"278 633 LINE",
"310 528 LINE",
"320 494 LINE",
"357 373 LINE",
"278 338 LINE",
"278 303 LINE",
"278 303 LINE",
"366 342 LINE",
"443 89 LINE",
"443 89 LINE",
"453 56 OFFCURVE",
"469 25 OFFCURVE",
"491 0 CURVE",
"533 0 LINE"
);
},
{
closed = 1;
nodes = (
"223 803 OFFCURVE",
"208 788 OFFCURVE",
"190 788 CURVE",
"171 788 OFFCURVE",
"156 803 OFFCURVE",
"156 822 CURVE",
"156 840 OFFCURVE",
"171 855 OFFCURVE",
"190 855 CURVE",
"208 855 OFFCURVE",
"223 840 OFFCURVE",
"223 822 CURVE"
);
},
{
closed = 1;
nodes = (
"401 803 OFFCURVE",
"386 788 OFFCURVE",
"368 788 CURVE",
"349 788 OFFCURVE",
"334 803 OFFCURVE",
"334 822 CURVE",
"334 840 OFFCURVE",
"349 855 OFFCURVE",
"368 855 CURVE",
"386 855 OFFCURVE",
"401 840 OFFCURVE",
"401 822 CURVE"
);
}
);
width = 583;
}
);
unicode = 00C4;
},
{
glyphname = Agrave;
lastChange = "2020-05-14 02:03:34 +0000";
layers = (
{
layerId = "5C2A42EC-7958-4198-96CC-2E1007E4AFAD";
paths = (
{
closed = 1;
nodes = (
"508 29 OFFCURVE",
"489 65 OFFCURVE",
"474 108 CURVE",
"451 180 LINE",
"355 494 LINE",
"355 494 LINE",
"345 528 LINE",
"345 528 LINE",
"299 680 LINE",
"299 680 LINE",
"293 700 LINE",
"263 700 LINE",
"221 563 LINE",
"210 528 LINE",
"210 528 LINE",
"200 494 LINE",
"200 494 LINE",
"50 0 LINE",
"85 0 LINE",
"235 494 LINE",
"236 494 LINE",
"246 528 LINE",
"246 528 LINE",
"278 633 LINE",
"310 528 LINE",
"320 494 LINE",
"357 373 LINE",
"278 338 LINE",
"278 303 LINE",
"278 303 LINE",
"366 342 LINE",
"443 89 LINE",
"443 89 LINE",
"453 56 OFFCURVE",
"469 25 OFFCURVE",
"491 0 CURVE",
"533 0 LINE"
);
},
{
closed = 1;
nodes = (
"294 751 LINE",
"255 920 LINE",
"211 920 LINE",
"260 751 LINE"
);
}
);
width = 600;
}
);
unicode = 00C0;
},
{
glyphname = Atilde;
lastChange = "2020-05-14 02:07:13 +0000";
layers = (
{
layerId = "5C2A42EC-7958-4198-96CC-2E1007E4AFAD";
paths = (
{
closed = 1;
nodes = (
"508 29 OFFCURVE",
"489 65 OFFCURVE",
"474 108 CURVE",
"451 180 LINE",
"355 494 LINE",
"355 494 LINE",
"345 528 LINE",
"345 528 LINE",
"299 680 LINE",
"299 680 LINE",
"293 700 LINE",
"263 700 LINE",
"221 563 LINE",
"210 528 LINE",
"210 528 LINE",
"200 494 LINE",
"200 494 LINE",
"50 0 LINE",
"85 0 LINE",
"235 494 LINE",
"236 494 LINE",
"246 528 LINE",
"246 528 LINE",
"278 633 LINE",
"310 528 LINE",
"320 494 LINE",
"357 373 LINE",
"278 338 LINE",
"278 303 LINE",
"278 303 LINE",
"366 342 LINE",
"443 89 LINE",
"443 89 LINE",
"453 56 OFFCURVE",
"469 25 OFFCURVE",
"491 0 CURVE",
"533 0 LINE"
);
},
{
closed = 1;
nodes = (
"377 802 OFFCURVE",
"359 783 OFFCURVE",
"338 783 CURVE",
"336 783 OFFCURVE",
"338 783 OFFCURVE",
"335 783 CURVE",
"335 783 LINE",
"329 783 OFFCURVE",
"315 790 OFFCURVE",
"311 792 CURVE",
"288 804 OFFCURVE",
"246 823 OFFCURVE",
"220 823 CURVE",
"219 823 LINE",
"179 823 OFFCURVE",
"149 792 OFFCURVE",
"149 752 CURVE",
"149 750 OFFCURVE",
"149 749 OFFCURVE",
"149 747 CURVE",
"182 747 LINE",
"182 749 OFFCURVE",
"182 750 OFFCURVE",
"182 752 CURVE",
"182 773 OFFCURVE",
"199 790 OFFCURVE",
"220 790 CURVE",
"221 790 LINE",
"221 790 OFFCURVE",
"237 791 OFFCURVE",
"273 775 CURVE SMOOTH",
"284 770 LINE",
"284 770 LINE",
"284 770 LINE",
"294 765 OFFCURVE",
"296 764 OFFCURVE",
"309 758 CURVE",
"314 756 OFFCURVE",
"318 754 OFFCURVE",
"324 752 CURVE",
"329 750 OFFCURVE",
"336 750 OFFCURVE",
"335 750 CURVE",
"335 750 LINE",
"335 750 LINE",
"335 750 LINE",
"336 750 OFFCURVE",
"333 750 OFFCURVE",
"335 750 CURVE",
"374 750 OFFCURVE",
"410 784 OFFCURVE",
"410 823 CURVE",
"377 823 LINE"
);
}
);
width = 583;
}
);
unicode = 00C3;
},
{
glyphname = B;
lastChange = "2020-04-15 20:44:15 +0000";
layers = (
{
layerId = "5C2A42EC-7958-4198-96CC-2E1007E4AFAD";
paths = (
{
closed = 1;
nodes = (
"419 378 OFFCURVE",
"464 442 OFFCURVE",
"464 518 CURVE",
"464 618 OFFCURVE",
"382 700 OFFCURVE",
"282 700 CURVE",
"219 700 OFFCURVE",
"162 667 OFFCURVE",
"129 617 CURVE",
"123 647 OFFCURVE",
"112 675 OFFCURVE",
"94 700 CURVE",
"52 700 LINE",
"50 700 LINE",
"81 667 OFFCURVE",
"98 623 OFFCURVE",
"99 580 CURVE",
"99 571 LINE",
"99 458 LINE",
"99 0 LINE",
"100 0 LINE",
"100 0 LINE",
"282 0 LINE",
"282 0 LINE",
"282 0 OFFCURVE",
"282 0 OFFCURVE",
"282 0 CURVE",
"382 0 OFFCURVE",
"464 82 OFFCURVE",
"464 183 CURVE",
"464 258 OFFCURVE",
"419 322 OFFCURVE",
"354 350 CURVE"
);
},
{
closed = 1;
nodes = (
"282 34 OFFCURVE",
"281 34 OFFCURVE",
"281 34 CURVE",
"281 34 LINE",
"236 34 LINE",
"222 34 LINE",
"159 34 LINE",
"145 34 LINE",
"133 34 LINE",
"133 152 LINE",
"133 197 LINE",
"133 409 LINE",
"133 455 LINE",
"133 522 LINE",
"135 604 OFFCURVE",
"200 666 OFFCURVE",
"282 666 CURVE",
"365 666 OFFCURVE",
"430 602 OFFCURVE",
"430 518 CURVE",
"430 434 OFFCURVE",
"366 367 OFFCURVE",
"283 367 CURVE",
"283 367 OFFCURVE",
"282 367 OFFCURVE",
"282 367 CURVE",
"282 333 LINE",
"282 333 OFFCURVE",
"282 333 OFFCURVE",
"282 333 CURVE",
"365 333 OFFCURVE",
"430 267 OFFCURVE",
"430 183 CURVE",
"430 99 OFFCURVE",
"365 34 OFFCURVE",
"282 34 CURVE"
);
}
);
width = 514;
}
);
unicode = 0042;
},
{
glyphname = C;
lastChange = "2020-04-17 06:24:54 +0000";
layers = (
{
layerId = "5C2A42EC-7958-4198-96CC-2E1007E4AFAD";
paths = (
{
closed = 1;
nodes = (
"713 173 OFFCURVE",
"572 32 OFFCURVE",
"398 32 CURVE",
"223 32 OFFCURVE",
"81 174 OFFCURVE",
"81 349 CURVE",
"81 523 OFFCURVE",
"222 665 OFFCURVE",
"397 665 CURVE",
"397 699 LINE",
"205 698 OFFCURVE",
"50 542 OFFCURVE",
"50 350 CURVE",
"50 156 OFFCURVE",
"206 0 OFFCURVE",
"400 0 CURVE",
"592 0 OFFCURVE",
"748 155 OFFCURVE",
"749 347 CURVE",
"714 347 LINE"
);
}
);
width = 799;
}
);
unicode = 0043;
},
{
glyphname = Cacute;
lastChange = "2020-05-14 02:08:31 +0000";
layers = (
{
layerId = "5C2A42EC-7958-4198-96CC-2E1007E4AFAD";
paths = (
{
closed = 1;
nodes = (
"713 173 OFFCURVE",
"572 32 OFFCURVE",
"398 32 CURVE",
"223 32 OFFCURVE",
"81 174 OFFCURVE",
"81 349 CURVE",
"81 523 OFFCURVE",
"222 666 OFFCURVE",
"397 666 CURVE",
"397 700 LINE",
"205 699 OFFCURVE",
"50 542 OFFCURVE",
"50 350 CURVE",
"50 156 OFFCURVE",
"206 0 OFFCURVE",
"400 0 CURVE",
"592 0 OFFCURVE",
"748 155 OFFCURVE",
"749 347 CURVE",
"714 347 LINE"
);
},
{
closed = 1;
nodes = (
"380 750 LINE",
"419 919 LINE",
"463 919 LINE",
"414 750 LINE"
);
}
);
width = 799;
}
);
unicode = 0106;
},
{
glyphname = D;
lastChange = "2020-04-15 21:41:16 +0000";
layers = (
{
layerId = "5C2A42EC-7958-4198-96CC-2E1007E4AFAD";
paths = (
{
closed = 1;
nodes = (
"50 0 LINE",
"50 0 LINE"
);
},
{
closed = 1;
nodes = (
"208 700 LINE",
"205 700 OFFCURVE",
"201 700 OFFCURVE",
"197 700 CURVE",
"197 700 LINE",
"108 700 LINE",
"108 700 LINE",
"92 700 LINE",
"92 126 LINE",
"91 82 OFFCURVE",
"71 44 OFFCURVE",
"50 0 CURVE",
"89 0 LINE",
"116 44 OFFCURVE",
"126 80 OFFCURVE",
"126 123 CURVE",
"126 123 LINE",
"126 267 LINE",
"126 310 LINE",
"126 512 LINE",
"126 556 LINE",
"126 665 LINE",
"130 665 LINE",
"137 665 LINE",
"168 665 LINE",
"175 665 LINE",
"175 665 LINE",
"175 665 LINE",
"208 665 LINE",
"208 665 LINE",
"376 657 OFFCURVE",
"510 518 OFFCURVE",
"510 348 CURVE",
"510 173 OFFCURVE",
"368 31 OFFCURVE",
"193 31 CURVE",
"187 31 OFFCURVE",
"181 31 OFFCURVE",
"175 32 CURVE",
"175 0 LINE",
"181 0 OFFCURVE",
"187 0 OFFCURVE",
"192 0 CURVE",
"385 0 OFFCURVE",
"542 157 OFFCURVE",
"542 350 CURVE",
"542 538 OFFCURVE",
"394 692 OFFCURVE",
"208 700 CURVE"
);
}
);
width = 592;
}
);
unicode = 0044;
},
{
glyphname = E;
lastChange = "2020-04-17 07:39:10 +0000";
layers = (
{
layerId = "5C2A42EC-7958-4198-96CC-2E1007E4AFAD";
paths = (
{
closed = 1;
nodes = (
"204 666 LINE",
"439 666 LINE",
"503 666 LINE",
"526 666 LINE",
"533 666 LINE",
"533 700 LINE",
"204 700 LINE",
"170 700 LINE",
"170 700 LINE",
"128 699 OFFCURVE",
"85 686 OFFCURVE",
"50 661 CURVE",
"50 619 LINE",
"50 617 LINE",
"83 648 OFFCURVE",
"127 665 OFFCURVE",
"170 666 CURVE",
"170 666 LINE",
"170 34 LINE",
"170 3 LINE",
"170 0 LINE",
"503 0 LINE",
"533 0 LINE",
"533 34 LINE",
"503 34 LINE",
"439 34 LINE",
"204 34 LINE",
"204 295 LINE",
"361 364 LINE",
"361 400 LINE",
"361 400 LINE",
"204 331 LINE",
"204 333 LINE",
"204 333 LINE",
"204 367 LINE",
"204 367 LINE",
"204 474 LINE",
"204 474 LINE",
"204 571 LINE"
);
}
);
width = 583;
}
);
unicode = 0045;
},
{
glyphname = Edotaccent;
lastChange = "2020-05-14 02:09:33 +0000";
layers = (
{
layerId = "5C2A42EC-7958-4198-96CC-2E1007E4AFAD";
paths = (
{
closed = 1;
nodes = (
"204 666 LINE",
"439 666 LINE",
"503 666 LINE",
"526 666 LINE",
"533 666 LINE",
"533 700 LINE",
"204 700 LINE",
"170 700 LINE",
"170 700 LINE",
"128 699 OFFCURVE",
"85 686 OFFCURVE",
"50 661 CURVE",
"50 619 LINE",
"50 617 LINE",
"83 648 OFFCURVE",
"127 665 OFFCURVE",
"170 666 CURVE",
"170 666 LINE",
"170 34 LINE",
"170 3 LINE",
"170 0 LINE",
"503 0 LINE",
"533 0 LINE",
"533 34 LINE",
"503 34 LINE",
"439 34 LINE",
"204 34 LINE",
"204 295 LINE",
"361 364 LINE",
"361 400 LINE",
"361 400 LINE",
"204 331 LINE",
"204 333 LINE",
"204 333 LINE",
"204 367 LINE",
"204 367 LINE",
"204 474 LINE",
"204 474 LINE",
"204 571 LINE"
);
},
{
closed = 1;
nodes = (
"325 781 OFFCURVE",
"310 766 OFFCURVE",
"292 766 CURVE",
"273 766 OFFCURVE",
"258 781 OFFCURVE",
"258 800 CURVE",
"258 818 OFFCURVE",
"273 833 OFFCURVE",
"292 833 CURVE",
"310 833 OFFCURVE",
"325 818 OFFCURVE",
"325 800 CURVE"
);
}
);
width = 583;
}
);
unicode = 0116;
},
{
glyphname = Egrave;
lastChange = "2020-05-14 02:11:08 +0000";
layers = (
{
layerId = "5C2A42EC-7958-4198-96CC-2E1007E4AFAD";
paths = (
{
closed = 1;
nodes = (
"204 666 LINE",
"439 666 LINE",
"503 666 LINE",
"526 666 LINE",
"533 666 LINE",
"533 700 LINE",
"204 700 LINE",
"170 700 LINE",
"170 700 LINE",
"128 699 OFFCURVE",
"85 686 OFFCURVE",
"50 661 CURVE",
"50 619 LINE",
"50 617 LINE",
"83 648 OFFCURVE",
"127 665 OFFCURVE",
"170 666 CURVE",
"170 666 LINE",
"170 34 LINE",
"170 3 LINE",
"170 0 LINE",
"503 0 LINE",
"533 0 LINE",
"533 34 LINE",
"503 34 LINE",
"439 34 LINE",
"204 34 LINE",
"204 295 LINE",
"361 364 LINE",
"361 400 LINE",
"361 400 LINE",
"204 331 LINE",
"204 333 LINE",
"204 333 LINE",
"204 367 LINE",
"204 367 LINE",
"204 474 LINE",
"204 474 LINE",
"204 571 LINE"
);
},
{
closed = 1;
nodes = (
"319 752 LINE",
"280 921 LINE",
"236 921 LINE",
"285 752 LINE"
);
}
);
width = 600;
}
);
unicode = 00C8;
},
{
glyphname = F;
lastChange = "2020-05-20 16:34:32 +0000";
layers = (
{
layerId = "5C2A42EC-7958-4198-96CC-2E1007E4AFAD";
paths = (
{
closed = 1;
nodes = (
"121 700 LINE",
"121 700 LINE",
"78 699 OFFCURVE",
"36 686 OFFCURVE",
"0 661 CURVE",
"0 619 LINE",
"0 617 LINE",
"33 648 OFFCURVE",
"77 665 OFFCURVE",
"121 666 CURVE",
"121 666 LINE",
"121 34 LINE",
"121 3 LINE",
"121 0 LINE",
"155 0 LINE",
"155 34 LINE",
"155 34 LINE",
"155 295 LINE",
"312 364 LINE",
"312 400 LINE",
"312 400 LINE",
"155 331 LINE",
"155 333 LINE",
"155 333 LINE",
"155 367 LINE",
"155 367 LINE",
"155 474 LINE",
"155 474 LINE",
"155 571 LINE",
"155 571 LINE",
"155 666 LINE",
"390 666 LINE",
"454 666 LINE",
"477 666 LINE",
"484 666 LINE",
"484 700 LINE",
"155 700 LINE"
);
}
);
width = 534;
}
);
unicode = 0046;
},
{
glyphname = G;
lastChange = "2020-04-15 15:49:34 +0000";
layers = (
{
layerId = "5C2A42EC-7958-4198-96CC-2E1007E4AFAD";
paths = (
{
closed = 1;
nodes = (
"414 260 OFFCURVE",
"402 307 OFFCURVE",
"377 346 CURVE",
"342 346 LINE",
"362 301 OFFCURVE",
"381 264 OFFCURVE",
"381 218 CURVE",
"381 216 LINE",
"381 216 LINE",
"383 33 LINE",
"216 42 OFFCURVE",
"84 180 OFFCURVE",
"84 349 CURVE",
"84 349 LINE",
"84 349 OFFCURVE",
"84 350 OFFCURVE",
"84 351 CURVE",
"84 526 OFFCURVE",
"224 667 OFFCURVE",
"398 669 CURVE",
"398 700 LINE",
"206 699 OFFCURVE",
"50 543 OFFCURVE",
"50 350 CURVE",
"50 157 OFFCURVE",
"206 0 OFFCURVE",
"399 0 CURVE",
"404 0 OFFCURVE",
"409 0 OFFCURVE",
"413 0 CURVE",
"413 214 LINE"
);
},
{
closed = 1;
nodes = (
"342 346 LINE",
"342 346 OFFCURVE",
"342 346 OFFCURVE",
"342 346 CURVE"
);
}
);
width = 463;
}
);
unicode = 0047;
},
{
glyphname = H;
lastChange = "2020-05-20 17:26:32 +0000";
layers = (
{
layerId = "5C2A42EC-7958-4198-96CC-2E1007E4AFAD";
paths = (
{
closed = 1;
nodes = (
"379 423 LINE",
"83 292 LINE",
"83 387 LINE",
"83 430 LINE",
"83 573 LINE",
"83 573 LINE",
"83 618 OFFCURVE",
"71 662 OFFCURVE",
"44 700 CURVE",
"2 700 LINE",
"0 700 LINE",
"33 665 OFFCURVE",
"50 618 OFFCURVE",
"49 573 CURVE",
"49 573 LINE",
"49 571 LINE",
"49 458 LINE",
"49 0 LINE",
"83 0 LINE",
"83 143 LINE",
"83 187 LINE",
"83 256 LINE",
"150 287 LINE",
"379 388 LINE",
"379 0 LINE",
"413 0 LINE",
"413 175 LINE",
"413 228 LINE",
"413 473 LINE",
"413 525 LINE",
"413 700 LINE",
"379 700 LINE"
);
}
);
width = 463;
}
);
unicode = 0048;
},
{
glyphname = I;
lastChange = "2020-04-15 15:50:06 +0000";
layers = (
{
layerId = "5C2A42EC-7958-4198-96CC-2E1007E4AFAD";
paths = (
{
closed = 1;
nodes = (
"284 666 LINE",
"291 666 LINE",
"291 666 OFFCURVE",
"291 666 OFFCURVE",
"291 666 CURVE",
"365 666 LINE",
"365 700 LINE",
"279 700 LINE",
"253 700 LINE",
"171 700 LINE",
"171 700 LINE",
"128 699 OFFCURVE",
"85 686 OFFCURVE",
"50 661 CURVE",
"50 619 LINE",
"50 617 LINE",
"83 648 OFFCURVE",
"127 665 OFFCURVE",
"171 666 CURVE",
"171 666 LINE",
"178 666 LINE",
"178 666 OFFCURVE",
"178 666 OFFCURVE",
"178 666 CURVE",
"250 666 LINE",
"250 34 LINE",
"86 34 LINE",
"86 0 LINE",
"450 0 LINE",
"450 34 LINE",
"284 34 LINE"
);
}
);
width = 500;
}
);
unicode = 0049;
},
{
glyphname = Iacute;
lastChange = "2020-05-14 02:17:11 +0000";
layers = (
{
layerId = "5C2A42EC-7958-4198-96CC-2E1007E4AFAD";
paths = (
{
closed = 1;
nodes = (
"284 666 LINE",
"291 666 LINE",
"291 666 OFFCURVE",
"291 666 OFFCURVE",
"291 666 CURVE",
"365 666 LINE",
"365 700 LINE",
"279 700 LINE",
"253 700 LINE",
"171 700 LINE",
"171 700 LINE",
"128 699 OFFCURVE",
"85 686 OFFCURVE",
"50 661 CURVE",
"50 619 LINE",
"50 617 LINE",
"83 648 OFFCURVE",
"127 665 OFFCURVE",
"171 666 CURVE",
"171 666 LINE",
"178 666 LINE",
"178 666 OFFCURVE",
"178 666 OFFCURVE",
"178 666 CURVE",
"250 666 LINE",
"250 34 LINE",
"86 34 LINE",
"86 0 LINE",
"450 0 LINE",
"450 34 LINE",
"284 34 LINE"
);
},
{
closed = 1;
nodes = (
"253 753 LINE",
"292 922 LINE",
"336 922 LINE",
"287 753 LINE"
);
}
);
width = 500;
}
);
unicode = 00CD;
},
{
glyphname = Icircumflex;
lastChange = "2020-05-14 02:18:14 +0000";
layers = (
{
layerId = "5C2A42EC-7958-4198-96CC-2E1007E4AFAD";
paths = (
{
closed = 1;
nodes = (
"284 666 LINE",
"291 666 LINE",
"291 666 OFFCURVE",
"291 666 OFFCURVE",
"291 666 CURVE",
"365 666 LINE",
"365 700 LINE",
"279 700 LINE",
"253 700 LINE",
"171 700 LINE",
"171 700 LINE",
"128 699 OFFCURVE",
"85 686 OFFCURVE",
"50 661 CURVE",
"50 619 LINE",
"50 617 LINE",
"83 648 OFFCURVE",
"127 665 OFFCURVE",
"171 666 CURVE",
"171 666 LINE",
"178 666 LINE",
"178 666 OFFCURVE",
"178 666 OFFCURVE",
"178 666 CURVE",
"250 666 LINE",
"250 34 LINE",
"86 34 LINE",
"86 0 LINE",
"450 0 LINE",
"450 34 LINE",
"284 34 LINE"
);
},
{
closed = 1;
nodes = (
"290 882 LINE",
"268 882 LINE",
"246 882 LINE",
"162 734 LINE",
"203 734 LINE",
"268 849 LINE",
"333 734 LINE",
"374 734 LINE"
);
}
);
width = 500;
}
);
unicode = 00CE;
},
{
glyphname = Idieresis;
lastChange = "2020-05-14 02:19:07 +0000";
layers = (
{
layerId = "5C2A42EC-7958-4198-96CC-2E1007E4AFAD";
paths = (
{
closed = 1;
nodes = (
"284 666 LINE",
"291 666 LINE",
"291 666 OFFCURVE",
"291 666 OFFCURVE",
"291 666 CURVE",
"365 666 LINE",
"365 700 LINE",
"279 700 LINE",
"253 700 LINE",
"171 700 LINE",
"171 700 LINE",
"128 699 OFFCURVE",
"85 686 OFFCURVE",
"50 661 CURVE",
"50 619 LINE",
"50 617 LINE",
"83 648 OFFCURVE",
"127 665 OFFCURVE",
"171 666 CURVE",
"171 666 LINE",
"178 666 LINE",
"178 666 OFFCURVE",
"178 666 OFFCURVE",
"178 666 CURVE",
"250 666 LINE",
"250 34 LINE",
"86 34 LINE",
"86 0 LINE",
"450 0 LINE",
"450 34 LINE",
"284 34 LINE"
);
},
{
closed = 1;
nodes = (
"212 803 OFFCURVE",
"197 788 OFFCURVE",
"179 788 CURVE",
"160 788 OFFCURVE",
"145 803 OFFCURVE",
"145 822 CURVE",
"145 840 OFFCURVE",
"160 855 OFFCURVE",
"179 855 CURVE",
"197 855 OFFCURVE",
"212 840 OFFCURVE",
"212 822 CURVE"
);
},
{
closed = 1;
nodes = (
"390 803 OFFCURVE",
"375 788 OFFCURVE",
"357 788 CURVE",
"338 788 OFFCURVE",
"323 803 OFFCURVE",
"323 822 CURVE",
"323 840 OFFCURVE",
"338 855 OFFCURVE",
"357 855 CURVE",
"375 855 OFFCURVE",
"390 840 OFFCURVE",
"390 822 CURVE"
);
}
);
width = 500;
}
);
unicode = 00CF;
},
{
glyphname = Igrave;
lastChange = "2020-05-14 02:19:48 +0000";
layers = (
{
layerId = "5C2A42EC-7958-4198-96CC-2E1007E4AFAD";
paths = (
{
closed = 1;
nodes = (
"284 666 LINE",
"291 666 LINE",
"291 666 OFFCURVE",
"291 666 OFFCURVE",
"291 666 CURVE",
"365 666 LINE",
"365 700 LINE",
"279 700 LINE",
"253 700 LINE",
"171 700 LINE",
"171 700 LINE",
"128 699 OFFCURVE",
"85 686 OFFCURVE",
"50 661 CURVE",
"50 619 LINE",
"50 617 LINE",
"83 648 OFFCURVE",
"127 665 OFFCURVE",
"171 666 CURVE",
"171 666 LINE",
"178 666 LINE",
"178 666 OFFCURVE",
"178 666 OFFCURVE",
"178 666 CURVE",
"250 666 LINE",
"250 34 LINE",
"86 34 LINE",
"86 0 LINE",
"450 0 LINE",
"450 34 LINE",
"284 34 LINE"
);
},
{
closed = 1;
nodes = (
"285 751 LINE",
"246 920 LINE",
"202 920 LINE",
"251 751 LINE"
);
}
);
width = 600;
}
);
unicode = 00CC;
},
{
glyphname = J;
lastChange = "2020-04-15 20:21:23 +0000";
layers = (
{
layerId = "5C2A42EC-7958-4198-96CC-2E1007E4AFAD";
paths = (
{
closed = 1;
nodes = (
"195 457 LINE",
"195 279 LINE",
"195 192 LINE",
"195 174 LINE",
"195 170 LINE",
"195 160 OFFCURVE",
"193 137 OFFCURVE",
"181 113 CURVE",
"181 113 LINE",
"157 66 OFFCURVE",
"107 33 OFFCURVE",
"50 33 CURVE",
"50 0 LINE",
"100 0 OFFCURVE",
"145 20 OFFCURVE",
"177 52 CURVE",
"177 52 LINE",
"177 52 OFFCURVE",
"228 99 OFFCURVE",
"230 153 CURVE",
"230 154 OFFCURVE",
"230 154 OFFCURVE",
"230 155 CURVE",
"230 175 LINE",
"230 227 LINE",
"230 472 LINE",
"230 525 LINE",
"230 700 LINE",
"195 700 LINE"
);
}
);
width = 280;
}
);
unicode = 004A;
},
{
glyphname = K;
lastChange = "2020-04-17 07:37:43 +0000";
layers = (
{
layerId = "5C2A42EC-7958-4198-96CC-2E1007E4AFAD";
paths = (
{
closed = 1;
nodes = (
"556 700 LINE",
"509 700 LINE",
"187 304 LINE",
"133 349 LINE",
"133 387 LINE",
"133 430 LINE",
"133 573 LINE",
"133 573 LINE",
"133 618 OFFCURVE",
"120 662 OFFCURVE",
"94 700 CURVE",
"52 700 LINE",
"50 700 LINE",
"83 665 OFFCURVE",
"100 618 OFFCURVE",
"99 573 CURVE",
"99 573 LINE",
"99 571 LINE",
"99 458 LINE",
"99 0 LINE",
"133 0 LINE",
"133 143 LINE",
"133 187 LINE",
"133 302 LINE",
"505 0 LINE",
"556 0 LINE",
"212 284 LINE",
"556 700 LINE"
);
}
);
width = 606;
}
);
unicode = 004B;
},
{
glyphname = L;
lastChange = "2020-04-17 07:37:02 +0000";
layers = (
{
layerId = "5C2A42EC-7958-4198-96CC-2E1007E4AFAD";
paths = (
{
closed = 1;
nodes = (
"416 34 LINE",
"355 34 LINE",
"134 34 LINE",
"134 178 LINE",
"134 367 LINE",
"134 522 LINE",
"134 580 LINE",
"134 580 LINE",
"133 622 OFFCURVE",
"120 664 OFFCURVE",
"95 700 CURVE",
"53 700 LINE",
"50 700 LINE",
"84 665 OFFCURVE",
"99 618 OFFCURVE",
"100 572 CURVE",
"100 519 LINE",
"100 34 LINE",
"100 3 LINE",
"100 0 LINE",
"416 0 LINE",
"448 0 LINE",
"462 0 LINE",
"462 34 LINE",
"448 34 LINE"
);
}
);
width = 512;
}
);
unicode = 004C;
},
{
glyphname = Lacute;
lastChange = "2020-05-14 05:20:12 +0000";
layers = (
{
layerId = "5C2A42EC-7958-4198-96CC-2E1007E4AFAD";
paths = (
{
closed = 1;
nodes = (
"416 34 LINE",
"355 34 LINE",
"134 34 LINE",
"134 178 LINE",
"134 367 LINE",
"134 522 LINE",
"134 580 LINE",
"134 580 LINE",
"133 622 OFFCURVE",
"120 664 OFFCURVE",
"95 700 CURVE",
"53 700 LINE",
"50 700 LINE",
"84 665 OFFCURVE",
"99 618 OFFCURVE",
"100 572 CURVE",
"100 519 LINE",
"100 34 LINE",
"100 3 LINE",
"100 0 LINE",
"416 0 LINE",
"448 0 LINE",
"462 0 LINE",
"462 34 LINE",
"448 34 LINE"
);
},
{
closed = 1;
nodes = (
"56 753 LINE",
"95 922 LINE",
"139 922 LINE",
"90 753 LINE"
);
}
);
width = 512;
}
);
unicode = 0139;
},
{
glyphname = M;
lastChange = "2020-05-20 16:34:28 +0000";
layers = (
{
layerId = "5C2A42EC-7958-4198-96CC-2E1007E4AFAD";
paths = (
{
closed = 1;
nodes = (
"571 201 LINE",
"473 537 LINE",
"452 610 LINE",
"426 700 LINE",
"426 700 LINE",
"390 700 LINE",
"390 700 LINE",
"305 407 LINE",
"267 537 LINE",
"246 610 LINE",
"220 700 LINE",
"220 700 LINE",
"184 700 LINE",
"184 700 LINE",
"-1 63 LINE",
"-2 63 LINE",
"-9 40 OFFCURVE",
"-33 18 OFFCURVE",
"-50 0 CURVE",
"-36 0 LINE",
"-20 0 LINE",
"-19 0 LINE",
"-5 0 LINE",
"10 17 OFFCURVE",
"28 41 OFFCURVE",
"34 63 CURVE",
"34 63 LINE",
"51 121 LINE",
"72 193 LINE",
"170 529 LINE",
"191 601 LINE",
"202 639 LINE",
"287 347 LINE",
"323 347 LINE",
"376 529 LINE",
"397 601 LINE",
"408 639 LINE",
"594 0 LINE",
"630 0 LINE",
"592 130 LINE"
);
}
);
width = 680;
}
);
unicode = 004D;
},
{
glyphname = N;
lastChange = "2020-04-15 15:50:44 +0000";
layers = (
{
layerId = "5C2A42EC-7958-4198-96CC-2E1007E4AFAD";
paths = (
{
closed = 1;
nodes = (
"50 0 LINE",
"50 0 LINE"
);
},
{
closed = 1;
nodes = (
"514 64 LINE",
"461 153 LINE",
"425 212 LINE",
"262 484 LINE",
"228 541 LINE",
"133 700 LINE",
"126 700 LINE",
"126 700 LINE",
"92 700 LINE",
"92 126 LINE",
"91 82 OFFCURVE",
"71 44 OFFCURVE",
"50 0 CURVE",
"88 0 LINE",
"117 42 OFFCURVE",
"126 80 OFFCURVE",
"126 123 CURVE",
"126 123 LINE",
"126 267 LINE",
"126 310 LINE",
"126 512 LINE",
"126 556 LINE",
"126 645 LINE",
"513 0 LINE",
"548 0 LINE",
"548 0 LINE",
"548 8 LINE",
"548 175 LINE",
"548 228 LINE",
"548 473 LINE",
"548 525 LINE",
"548 700 LINE",
"514 700 LINE"
);
}
);
width = 598;
}
);
unicode = 004E;
},
{
glyphname = Nacute;
lastChange = "2020-05-14 02:22:30 +0000";
layers = (
{
layerId = "5C2A42EC-7958-4198-96CC-2E1007E4AFAD";
paths = (
{
closed = 1;
nodes = (
"50 0 LINE",
"50 0 LINE"
);
},
{
closed = 1;
nodes = (
"514 64 LINE",
"461 153 LINE",
"425 212 LINE",
"262 484 LINE",
"228 541 LINE",
"133 700 LINE",
"126 700 LINE",
"126 700 LINE",
"92 700 LINE",
"92 126 LINE",
"91 82 OFFCURVE",
"71 44 OFFCURVE",
"50 0 CURVE",
"88 0 LINE",
"117 42 OFFCURVE",
"126 80 OFFCURVE",
"126 123 CURVE",
"126 123 LINE",
"126 267 LINE",
"126 310 LINE",
"126 512 LINE",
"126 556 LINE",
"126 645 LINE",
"513 0 LINE",
"548 0 LINE",
"548 0 LINE",
"548 8 LINE",
"548 175 LINE",
"548 228 LINE",
"548 473 LINE",
"548 525 LINE",
"548 700 LINE",
"514 700 LINE"
);
},
{
closed = 1;
nodes = (
"263 753 LINE",
"302 922 LINE",
"346 922 LINE",
"297 753 LINE"
);
}
);
width = 598;
}
);
unicode = 0143;
},
{
glyphname = Ntilde;
lastChange = "2020-05-14 02:23:59 +0000";
layers = (
{
layerId = "5C2A42EC-7958-4198-96CC-2E1007E4AFAD";
paths = (
{
closed = 1;
nodes = (
"50 0 LINE",
"50 0 LINE"
);
},
{
closed = 1;
nodes = (
"514 64 LINE",
"461 153 LINE",
"425 212 LINE",
"262 484 LINE",
"228 541 LINE",
"133 700 LINE",
"126 700 LINE",
"126 700 LINE",
"92 700 LINE",
"92 126 LINE",
"91 82 OFFCURVE",
"71 44 OFFCURVE",
"50 0 CURVE",
"88 0 LINE",
"117 42 OFFCURVE",
"126 80 OFFCURVE",
"126 123 CURVE",
"126 123 LINE",
"126 267 LINE",
"126 310 LINE",
"126 512 LINE",
"126 556 LINE",
"126 645 LINE",
"513 0 LINE",
"548 0 LINE",
"548 0 LINE",
"548 8 LINE",
"548 175 LINE",
"548 228 LINE",
"548 473 LINE",
"548 525 LINE",
"548 700 LINE",
"514 700 LINE"
);
},
{
closed = 1;
nodes = (
"401 802 OFFCURVE",
"383 783 OFFCURVE",
"362 783 CURVE",
"360 783 OFFCURVE",
"362 783 OFFCURVE",
"359 783 CURVE",
"359 783 LINE",
"353 783 OFFCURVE",
"339 790 OFFCURVE",
"335 792 CURVE",
"312 804 OFFCURVE",
"270 823 OFFCURVE",
"244 823 CURVE",
"243 823 LINE",
"203 823 OFFCURVE",
"173 792 OFFCURVE",
"173 752 CURVE",
"173 750 OFFCURVE",
"173 749 OFFCURVE",
"173 747 CURVE",
"206 747 LINE",
"206 749 OFFCURVE",
"206 750 OFFCURVE",
"206 752 CURVE",
"206 773 OFFCURVE",
"223 790 OFFCURVE",
"244 790 CURVE",
"245 790 LINE",
"245 790 OFFCURVE",
"261 791 OFFCURVE",
"297 775 CURVE SMOOTH",
"308 770 LINE",
"308 770 LINE",
"308 770 LINE",
"318 765 OFFCURVE",
"320 764 OFFCURVE",
"333 758 CURVE",
"338 756 OFFCURVE",
"342 754 OFFCURVE",
"348 752 CURVE",
"353 750 OFFCURVE",
"360 750 OFFCURVE",
"359 750 CURVE",
"359 750 LINE",
"359 750 LINE",
"359 750 LINE",
"360 750 OFFCURVE",
"357 750 OFFCURVE",
"359 750 CURVE",
"398 750 OFFCURVE",
"434 784 OFFCURVE",
"434 823 CURVE",
"401 823 LINE"
);
}
);
width = 598;
}
);
unicode = 00D1;
},
{
glyphname = O;
lastChange = "2020-05-20 17:28:42 +0000";
layers = (
{
layerId = "5C2A42EC-7958-4198-96CC-2E1007E4AFAD";
paths = (
{
closed = 1;
nodes = (
"137 700 OFFCURVE",
"-20 543 OFFCURVE",
"-20 350 CURVE",
"-20 156 OFFCURVE",
"137 0 OFFCURVE",
"330 0 CURVE",
"523 0 OFFCURVE",
"679 156 OFFCURVE",
"679 350 CURVE",
"679 543 OFFCURVE",
"523 700 OFFCURVE",
"330 700 CURVE"
);
},
{
closed = 1;
nodes = (
"463 54 OFFCURVE",
"400 32 OFFCURVE",
"331 32 CURVE",
"156 32 OFFCURVE",
"15 173 OFFCURVE",
"14 348 CURVE",
"15 348 LINE",
"15 349 OFFCURVE",
"14 350 OFFCURVE",
"14 351 CURVE",
"14 526 OFFCURVE",
"157 668 OFFCURVE",
"332 668 CURVE",
"507 668 OFFCURVE",
"649 526 OFFCURVE",
"649 351 CURVE",
"649 243 OFFCURVE",
"596 149 OFFCURVE",
"515 91 CURVE"
);
}
);
width = 729;
}
);
unicode = 004F;
},
{
glyphname = Oacute;
lastChange = "2020-05-14 02:26:06 +0000";
layers = (
{
layerId = "5C2A42EC-7958-4198-96CC-2E1007E4AFAD";
paths = (
{
closed = 1;
nodes = (
"207 699 OFFCURVE",
"50 543 OFFCURVE",
"50 350 CURVE",
"50 156 OFFCURVE",
"207 0 OFFCURVE",
"400 0 CURVE",
"593 0 OFFCURVE",
"749 156 OFFCURVE",
"749 350 CURVE",
"749 543 OFFCURVE",
"593 699 OFFCURVE",
"400 699 CURVE"
);
},
{
closed = 1;
nodes = (
"533 54 OFFCURVE",
"470 32 OFFCURVE",
"401 32 CURVE",
"226 32 OFFCURVE",
"85 173 OFFCURVE",
"84 348 CURVE",
"85 348 LINE",
"85 349 OFFCURVE",
"84 350 OFFCURVE",
"84 351 CURVE",
"84 526 OFFCURVE",
"227 668 OFFCURVE",
"402 668 CURVE",
"577 668 OFFCURVE",
"719 526 OFFCURVE",
"719 351 CURVE",
"719 243 OFFCURVE",
"666 149 OFFCURVE",
"585 91 CURVE"
);
},
{
closed = 1;
nodes = (
"384 750 LINE",
"423 919 LINE",
"467 919 LINE",
"418 750 LINE"
);
}
);
width = 799;
}
);
unicode = 00D3;
},
{
glyphname = Ocircumflex;
lastChange = "2020-05-14 02:27:27 +0000";
layers = (
{
layerId = "5C2A42EC-7958-4198-96CC-2E1007E4AFAD";
paths = (
{
closed = 1;
nodes = (
"207 699 OFFCURVE",
"50 543 OFFCURVE",
"50 350 CURVE",
"50 156 OFFCURVE",
"207 0 OFFCURVE",
"400 0 CURVE",
"593 0 OFFCURVE",
"749 156 OFFCURVE",
"749 350 CURVE",
"749 543 OFFCURVE",
"593 699 OFFCURVE",
"400 699 CURVE"
);
},
{
closed = 1;
nodes = (
"533 54 OFFCURVE",
"470 32 OFFCURVE",
"401 32 CURVE",
"226 32 OFFCURVE",
"85 173 OFFCURVE",
"84 348 CURVE",
"85 348 LINE",
"85 349 OFFCURVE",
"84 350 OFFCURVE",
"84 351 CURVE",
"84 526 OFFCURVE",
"227 668 OFFCURVE",
"402 668 CURVE",
"577 668 OFFCURVE",
"719 526 OFFCURVE",
"719 351 CURVE",
"719 243 OFFCURVE",
"666 149 OFFCURVE",
"585 91 CURVE"
);
},
{
closed = 1;
nodes = (
"421 882 LINE",
"399 882 LINE",
"377 882 LINE",
"293 734 LINE",
"334 734 LINE",
"399 849 LINE",
"464 734 LINE",
"505 734 LINE"
);
}
);
width = 799;
}
);
unicode = 00D4;
},
{
glyphname = Odieresis;
lastChange = "2020-05-14 03:23:10 +0000";
layers = (
{
layerId = "5C2A42EC-7958-4198-96CC-2E1007E4AFAD";
paths = (
{
closed = 1;
nodes = (
"207 699 OFFCURVE",
"50 543 OFFCURVE",
"50 350 CURVE",
"50 156 OFFCURVE",
"207 0 OFFCURVE",
"400 0 CURVE",
"593 0 OFFCURVE",
"749 156 OFFCURVE",
"749 350 CURVE",
"749 543 OFFCURVE",
"593 699 OFFCURVE",
"400 699 CURVE"
);
},
{
closed = 1;
nodes = (
"533 54 OFFCURVE",
"470 32 OFFCURVE",
"401 32 CURVE",
"226 32 OFFCURVE",
"85 173 OFFCURVE",
"84 348 CURVE",
"85 348 LINE",
"85 349 OFFCURVE",
"84 350 OFFCURVE",
"84 351 CURVE",
"84 526 OFFCURVE",
"227 668 OFFCURVE",
"402 668 CURVE",
"577 668 OFFCURVE",
"719 526 OFFCURVE",
"719 351 CURVE",
"719 243 OFFCURVE",
"666 149 OFFCURVE",
"585 91 CURVE"
);
},
{
closed = 1;
nodes = (
"346 803 OFFCURVE",
"331 788 OFFCURVE",
"313 788 CURVE",
"294 788 OFFCURVE",
"279 803 OFFCURVE",
"279 822 CURVE",
"279 840 OFFCURVE",
"294 855 OFFCURVE",
"313 855 CURVE",
"331 855 OFFCURVE",
"346 840 OFFCURVE",
"346 822 CURVE"
);
},
{
closed = 1;
nodes = (
"524 803 OFFCURVE",
"509 788 OFFCURVE",
"491 788 CURVE",
"472 788 OFFCURVE",
"457 803 OFFCURVE",
"457 822 CURVE",
"457 840 OFFCURVE",
"472 855 OFFCURVE",
"491 855 CURVE",
"509 855 OFFCURVE",
"524 840 OFFCURVE",
"524 822 CURVE"
);
}
);
width = 799;
}
);
unicode = 00D6;
},
{
glyphname = Ograve;
lastChange = "2020-05-14 03:15:55 +0000";
layers = (
{
layerId = "5C2A42EC-7958-4198-96CC-2E1007E4AFAD";
paths = (
{
closed = 1;
nodes = (
"207 700 OFFCURVE",
"50 543 OFFCURVE",
"50 350 CURVE",
"50 156 OFFCURVE",
"207 0 OFFCURVE",
"400 0 CURVE",
"593 0 OFFCURVE",
"749 156 OFFCURVE",
"749 350 CURVE",
"749 543 OFFCURVE",
"593 700 OFFCURVE",
"400 700 CURVE"
);
},
{
closed = 1;
nodes = (
"533 54 OFFCURVE",
"470 32 OFFCURVE",
"401 32 CURVE",
"226 32 OFFCURVE",
"85 173 OFFCURVE",
"84 348 CURVE",
"85 348 LINE",
"85 349 OFFCURVE",
"84 350 OFFCURVE",
"84 351 CURVE",
"84 526 OFFCURVE",
"227 668 OFFCURVE",
"402 668 CURVE",
"577 668 OFFCURVE",
"719 526 OFFCURVE",
"719 351 CURVE",
"719 243 OFFCURVE",
"666 149 OFFCURVE",
"585 91 CURVE"
);
},
{
closed = 1;
nodes = (
"417 751 LINE",
"378 920 LINE",
"334 920 LINE",
"383 751 LINE"
);
}
);
width = 799;
}
);
unicode = 00D2;
},
{
glyphname = Otilde;
lastChange = "2020-05-14 03:17:29 +0000";
layers = (
{
layerId = "5C2A42EC-7958-4198-96CC-2E1007E4AFAD";
paths = (
{
closed = 1;
nodes = (
"207 700 OFFCURVE",
"50 543 OFFCURVE",
"50 350 CURVE",
"50 156 OFFCURVE",
"207 0 OFFCURVE",
"400 0 CURVE",
"593 0 OFFCURVE",
"749 156 OFFCURVE",
"749 350 CURVE",
"749 543 OFFCURVE",
"593 700 OFFCURVE",
"400 700 CURVE"
);
},
{
closed = 1;
nodes = (
"533 54 OFFCURVE",
"470 32 OFFCURVE",
"401 32 CURVE",
"226 32 OFFCURVE",
"85 173 OFFCURVE",
"84 348 CURVE",
"85 348 LINE",
"85 349 OFFCURVE",
"84 350 OFFCURVE",
"84 351 CURVE",
"84 526 OFFCURVE",
"227 668 OFFCURVE",
"402 668 CURVE",
"577 668 OFFCURVE",
"719 526 OFFCURVE",
"719 351 CURVE",
"719 243 OFFCURVE",
"666 149 OFFCURVE",
"585 91 CURVE"
);
},
{
closed = 1;
nodes = (
"498 802 OFFCURVE",
"480 783 OFFCURVE",
"459 783 CURVE",
"457 783 OFFCURVE",
"459 783 OFFCURVE",
"456 783 CURVE",
"456 783 LINE",
"450 783 OFFCURVE",
"436 790 OFFCURVE",
"432 792 CURVE",
"409 804 OFFCURVE",
"367 823 OFFCURVE",
"341 823 CURVE",
"340 823 LINE",
"300 823 OFFCURVE",
"270 792 OFFCURVE",
"270 752 CURVE",
"270 750 OFFCURVE",
"270 749 OFFCURVE",
"270 747 CURVE",
"303 747 LINE",
"303 749 OFFCURVE",
"303 750 OFFCURVE",
"303 752 CURVE",
"303 773 OFFCURVE",
"320 790 OFFCURVE",
"341 790 CURVE",
"342 790 LINE",
"342 790 OFFCURVE",
"358 791 OFFCURVE",
"394 775 CURVE SMOOTH",
"405 770 LINE",
"405 770 LINE",
"405 770 LINE",
"415 765 OFFCURVE",
"417 764 OFFCURVE",
"430 758 CURVE",
"435 756 OFFCURVE",
"439 754 OFFCURVE",
"445 752 CURVE",
"450 750 OFFCURVE",
"457 750 OFFCURVE",
"456 750 CURVE",
"456 750 LINE",
"456 750 LINE",
"456 750 LINE",
"457 750 OFFCURVE",
"454 750 OFFCURVE",
"456 750 CURVE",
"495 750 OFFCURVE",
"531 784 OFFCURVE",
"531 823 CURVE",
"498 823 LINE"
);
}
);
width = 799;
}
);
unicode = 00D5;
},
{
glyphname = P;
lastChange = "2020-04-15 21:23:20 +0000";
layers = (
{
layerId = "5C2A42EC-7958-4198-96CC-2E1007E4AFAD";
paths = (
{
closed = 1;
nodes = (
"452 621 OFFCURVE",
"373 700 OFFCURVE",
"276 700 CURVE",
"215 700 OFFCURVE",
"160 668 OFFCURVE",
"128 620 CURVE",
"122 649 OFFCURVE",
"111 676 OFFCURVE",
"94 700 CURVE",
"52 700 LINE",
"50 700 LINE",
"81 667 OFFCURVE",
"98 623 OFFCURVE",
"99 580 CURVE",
"99 571 LINE",
"99 523 LINE",
"99 518 OFFCURVE",
"99 512 OFFCURVE",
"99 507 CURVE",
"99 458 LINE",
"99 0 LINE",
"133 0 LINE",
"133 152 LINE",
"133 197 LINE",
"133 409 LINE",
"133 455 LINE",
"133 507 LINE",
"133 512 OFFCURVE",
"133 517 OFFCURVE",
"133 523 CURVE",
"133 604 OFFCURVE",
"197 666 OFFCURVE",
"277 666 CURVE",
"358 666 OFFCURVE",
"418 604 OFFCURVE",
"418 523 CURVE",
"418 442 OFFCURVE",
"357 381 OFFCURVE",
"276 381 CURVE",
"276 381 OFFCURVE",
"276 381 OFFCURVE",
"276 381 CURVE",
"276 347 LINE",
"314 348 OFFCURVE",
"344 360 OFFCURVE",
"346 361 CURVE",
"346 361 OFFCURVE",
"346 361 OFFCURVE",
"346 361 CURVE",
"408 389 OFFCURVE",
"452 451 OFFCURVE",
"452 523 CURVE"
);
}
);
width = 502;
}
);
unicode = 0050;
},
{
glyphname = Q;
lastChange = "2020-04-15 15:51:10 +0000";
layers = (
{
layerId = "5C2A42EC-7958-4198-96CC-2E1007E4AFAD";
paths = (
{
closed = 1;
nodes = (
"711 38 LINE",
"647 103 LINE",
"710 166 OFFCURVE",
"749 253 OFFCURVE",
"749 350 CURVE",
"749 543 OFFCURVE",
"592 699 OFFCURVE",
"399 699 CURVE",
"206 699 OFFCURVE",
"50 543 OFFCURVE",
"50 350 CURVE",
"50 156 OFFCURVE",
"206 0 OFFCURVE",
"399 0 CURVE",
"400 0 OFFCURVE",
"401 0 OFFCURVE",
"401 0 CURVE",
"401 32 LINE",
"401 32 OFFCURVE",
"401 32 OFFCURVE",
"400 32 CURVE",
"226 32 OFFCURVE",
"84 173 OFFCURVE",
"84 348 CURVE",
"84 348 LINE",
"84 349 OFFCURVE",
"84 350 OFFCURVE",
"84 351 CURVE",
"84 526 OFFCURVE",
"226 668 OFFCURVE",
"401 668 CURVE",
"577 668 OFFCURVE",
"719 526 OFFCURVE",
"719 351 CURVE",
"719 250 OFFCURVE",
"672 160 OFFCURVE",
"599 102 CURVE",
"677 24 LINE",
"677 24 LINE",
"678 23 LINE"
);
},
{
closed = 1;
nodes = (
"678 23 LINE",
"685 15 OFFCURVE",
"695 7 OFFCURVE",
"705 0 CURVE",
"779 0 LINE",
"756 10 OFFCURVE",
"727 20 OFFCURVE",
"711 38 CURVE"
);
}
);
width = 829;
}
);
unicode = 0051;
},
{
glyphname = R;
lastChange = "2020-04-15 15:51:20 +0000";
layers = (
{
layerId = "5C2A42EC-7958-4198-96CC-2E1007E4AFAD";
paths = (
{
closed = 1;
nodes = (
"133 409 LINE",
"133 455 LINE",
"133 507 LINE",
"133 512 OFFCURVE",
"133 517 OFFCURVE",
"133 523 CURVE",
"133 604 OFFCURVE",
"196 666 OFFCURVE",
"277 666 CURVE",
"357 666 OFFCURVE",
"418 604 OFFCURVE",
"418 523 CURVE",
"418 442 OFFCURVE",
"357 381 OFFCURVE",
"277 381 CURVE",
"276 381 OFFCURVE",
"276 381 OFFCURVE",
"276 381 CURVE",
"276 347 LINE",
"314 348 OFFCURVE",
"344 360 OFFCURVE",
"346 361 CURVE",
"346 361 OFFCURVE",
"346 361 OFFCURVE",
"346 361 CURVE",
"408 389 OFFCURVE",
"452 451 OFFCURVE",
"452 523 CURVE",
"452 621 OFFCURVE",
"373 700 OFFCURVE",
"277 700 CURVE",
"215 700 OFFCURVE",
"160 668 OFFCURVE",
"128 620 CURVE",
"123 649 OFFCURVE",
"111 676 OFFCURVE",
"94 700 CURVE",
"52 700 LINE",
"50 700 LINE",
"81 667 OFFCURVE",
"98 623 OFFCURVE",
"99 580 CURVE",
"99 571 LINE",
"99 523 LINE",
"99 518 OFFCURVE",
"99 512 OFFCURVE",
"99 507 CURVE",
"99 458 LINE",
"99 0 LINE",
"133 0 LINE",
"133 152 LINE",
"133 197 LINE",
"133 303 LINE",
"424 0 LINE",
"464 0 LINE",
"133 350 LINE"
);
}
);
width = 514;
}
);
unicode = 0052;
},
{
glyphname = Racute;
lastChange = "2020-05-14 03:18:24 +0000";
layers = (
{
layerId = "5C2A42EC-7958-4198-96CC-2E1007E4AFAD";
paths = (
{
closed = 1;
nodes = (
"133 409 LINE",
"133 455 LINE",
"133 507 LINE",
"133 512 OFFCURVE",
"133 517 OFFCURVE",
"133 523 CURVE",
"133 604 OFFCURVE",
"196 666 OFFCURVE",
"277 666 CURVE",
"357 666 OFFCURVE",
"418 604 OFFCURVE",
"418 523 CURVE",
"418 442 OFFCURVE",
"357 381 OFFCURVE",
"277 381 CURVE",
"276 381 OFFCURVE",
"276 381 OFFCURVE",
"276 381 CURVE",
"276 347 LINE",
"314 348 OFFCURVE",
"344 360 OFFCURVE",
"346 361 CURVE",
"346 361 OFFCURVE",
"346 361 OFFCURVE",
"346 361 CURVE",
"408 389 OFFCURVE",
"452 451 OFFCURVE",
"452 523 CURVE",
"452 621 OFFCURVE",
"373 700 OFFCURVE",
"277 700 CURVE",
"215 700 OFFCURVE",
"160 668 OFFCURVE",
"128 620 CURVE",
"123 649 OFFCURVE",
"111 676 OFFCURVE",
"94 700 CURVE",
"52 700 LINE",
"50 700 LINE",
"81 667 OFFCURVE",
"98 623 OFFCURVE",
"99 580 CURVE",
"99 571 LINE",
"99 523 LINE",
"99 518 OFFCURVE",
"99 512 OFFCURVE",
"99 507 CURVE",
"99 458 LINE",
"99 0 LINE",
"133 0 LINE",
"133 152 LINE",
"133 197 LINE",
"133 303 LINE",
"424 0 LINE",
"464 0 LINE",
"133 350 LINE"
);
},
{
closed = 1;
nodes = (
"260 753 LINE",
"299 922 LINE",
"343 922 LINE",
"294 753 LINE"
);
}
);
width = 514;
}
);
unicode = 0154;
},
{
glyphname = S;
lastChange = "2020-04-17 07:38:33 +0000";
layers = (
{
layerId = "5C2A42EC-7958-4198-96CC-2E1007E4AFAD";
paths = (
{
closed = 1;
nodes = (
"311 451 LINE",
"252 451 OFFCURVE",
"203 499 OFFCURVE",
"203 559 CURVE",
"203 618 OFFCURVE",
"252 666 OFFCURVE",
"311 666 CURVE",
"370 666 OFFCURVE",
"419 618 OFFCURVE",
"419 559 CURVE",
"453 559 LINE",
"453 637 OFFCURVE",
"389 700 OFFCURVE",
"311 700 CURVE",
"233 700 OFFCURVE",
"170 637 OFFCURVE",
"170 559 CURVE",
"170 480 OFFCURVE",
"233 417 OFFCURVE",
"311 417 CURVE",
"414 415 OFFCURVE",
"496 329 OFFCURVE",
"496 226 CURVE",
"496 121 OFFCURVE",
"411 36 OFFCURVE",
"307 36 CURVE",
"224 36 OFFCURVE",
"154 89 OFFCURVE",
"128 163 CURVE",
"128 163 LINE",
"121 185 OFFCURVE",
"104 209 OFFCURVE",
"88 226 CURVE",
"57 226 LINE",
"50 226 LINE",
"66 207 OFFCURVE",
"82 186 OFFCURVE",
"90 164 CURVE",
"117 69 OFFCURVE",
"203 0 OFFCURVE",
"307 0 CURVE",
"431 0 OFFCURVE",
"532 101 OFFCURVE",
"532 226 CURVE",
"532 349 OFFCURVE",
"433 449 OFFCURVE",
"311 451 CURVE"
);
}
);
width = 582;
}
);
unicode = 0053;
},
{
glyphname = Sacute;
lastChange = "2020-05-14 03:19:14 +0000";
layers = (
{
layerId = "5C2A42EC-7958-4198-96CC-2E1007E4AFAD";
paths = (
{
closed = 1;
nodes = (
"311 451 LINE",
"252 451 OFFCURVE",
"203 499 OFFCURVE",
"203 559 CURVE",
"203 618 OFFCURVE",
"252 666 OFFCURVE",
"311 666 CURVE",
"370 666 OFFCURVE",
"419 618 OFFCURVE",
"419 559 CURVE",
"453 559 LINE",
"453 637 OFFCURVE",
"389 700 OFFCURVE",
"311 700 CURVE",
"233 700 OFFCURVE",
"170 637 OFFCURVE",
"170 559 CURVE",
"170 480 OFFCURVE",
"233 417 OFFCURVE",
"311 417 CURVE",
"414 415 OFFCURVE",
"496 329 OFFCURVE",
"496 226 CURVE",
"496 121 OFFCURVE",
"411 36 OFFCURVE",
"307 36 CURVE",
"224 36 OFFCURVE",
"154 89 OFFCURVE",
"128 163 CURVE",
"128 163 LINE",
"121 185 OFFCURVE",
"104 209 OFFCURVE",
"88 226 CURVE",
"57 226 LINE",
"50 226 LINE",
"66 207 OFFCURVE",
"82 186 OFFCURVE",
"90 164 CURVE",
"117 69 OFFCURVE",
"203 0 OFFCURVE",
"307 0 CURVE",
"431 0 OFFCURVE",
"532 101 OFFCURVE",
"532 226 CURVE",
"532 349 OFFCURVE",
"433 449 OFFCURVE",
"311 451 CURVE"
);
},
{
closed = 1;
nodes = (
"294 753 LINE",
"333 922 LINE",
"377 922 LINE",
"328 753 LINE"
);
}
);
width = 582;
}
);
unicode = 015A;
},
{
glyphname = T;
lastChange = "2020-04-15 21:19:47 +0000";
layers = (
{
layerId = "5C2A42EC-7958-4198-96CC-2E1007E4AFAD";
paths = (
{
closed = 1;
nodes = (
"227 700 LINE",
"227 700 LINE",
"169 700 LINE",
"169 700 LINE",
"127 699 OFFCURVE",
"86 686 OFFCURVE",
"50 661 CURVE",
"50 619 LINE",
"50 617 LINE",
"83 648 OFFCURVE",
"127 665 OFFCURVE",
"170 666 CURVE",
"223 666 LINE",
"223 305 LINE",
"223 34 LINE",
"223 0 LINE",
"257 0 LINE",
"257 34 LINE",
"257 351 LINE",
"257 666 LINE",
"433 666 LINE",
"433 666 LINE",
"433 700 LINE",
"433 700 LINE",
"254 700 LINE"
);
}
);
width = 483;
}
);
unicode = 0054;
},
{
glyphname = U;
lastChange = "2020-04-17 07:47:51 +0000";
layers = (
{
layerId = "5C2A42EC-7958-4198-96CC-2E1007E4AFAD";
paths = (
{
closed = 1;
nodes = (
"556 348 LINE",
"556 700 LINE",
"522 700 LINE",
"522 348 LINE",
"522 348 LINE",
"522 348 OFFCURVE",
"522 348 OFFCURVE",
"522 347 CURVE",
"522 347 LINE",
"522 346 OFFCURVE",
"522 345 OFFCURVE",
"522 343 CURVE",
"522 178 OFFCURVE",
"435 34 OFFCURVE",
"328 34 CURVE",
"221 34 OFFCURVE",
"133 178 OFFCURVE",
"133 343 CURVE",
"133 345 OFFCURVE",
"133 346 OFFCURVE",
"133 347 CURVE",
"133 348 OFFCURVE",
"133 348 OFFCURVE",
"133 348 CURVE",
"133 406 LINE",
"133 423 LINE",
"133 505 LINE",
"133 523 LINE",
"133 581 LINE",
"133 581 LINE",
"132 623 OFFCURVE",
"119 665 OFFCURVE",
"95 700 CURVE",
"52 700 LINE",
"50 700 LINE",
"81 667 OFFCURVE",
"98 623 OFFCURVE",
"99 580 CURVE",
"99 571 LINE",
"99 459 LINE",
"99 347 LINE",
"99 347 LINE",
"99 347 OFFCURVE",
"99 347 OFFCURVE",
"99 347 CURVE",
"99 155 OFFCURVE",
"202 0 OFFCURVE",
"328 0 CURVE",
"454 0 OFFCURVE",
"556 155 OFFCURVE",
"556 347 CURVE",
"556 347 OFFCURVE",
"556 347 OFFCURVE",
"556 347 CURVE",
"556 347 LINE",
"556 348 OFFCURVE",
"556 348 OFFCURVE",
"556 348 CURVE"
);
}
);
width = 606;
}
);
unicode = 0055;
},
{
glyphname = Uacute;
lastChange = "2020-05-14 03:20:25 +0000";
layers = (
{
layerId = "5C2A42EC-7958-4198-96CC-2E1007E4AFAD";
paths = (
{
closed = 1;
nodes = (
"556 348 LINE",
"556 700 LINE",
"522 700 LINE",
"522 348 LINE",
"522 348 LINE",
"522 348 OFFCURVE",
"522 348 OFFCURVE",
"522 347 CURVE",
"522 347 LINE",
"522 346 OFFCURVE",
"522 345 OFFCURVE",
"522 343 CURVE",
"522 178 OFFCURVE",
"435 34 OFFCURVE",
"328 34 CURVE",
"221 34 OFFCURVE",
"133 178 OFFCURVE",
"133 343 CURVE",
"133 345 OFFCURVE",
"133 346 OFFCURVE",
"133 347 CURVE",
"133 348 OFFCURVE",
"133 348 OFFCURVE",
"133 348 CURVE",
"133 406 LINE",
"133 423 LINE",
"133 505 LINE",
"133 523 LINE",
"133 581 LINE",
"133 581 LINE",
"132 623 OFFCURVE",
"119 665 OFFCURVE",
"95 700 CURVE",
"52 700 LINE",
"50 700 LINE",
"81 667 OFFCURVE",
"98 623 OFFCURVE",
"99 580 CURVE",
"99 571 LINE",
"99 459 LINE",
"99 347 LINE",
"99 347 LINE",
"99 347 OFFCURVE",
"99 347 OFFCURVE",
"99 347 CURVE",
"99 155 OFFCURVE",
"202 0 OFFCURVE",
"328 0 CURVE",
"454 0 OFFCURVE",
"556 155 OFFCURVE",
"556 347 CURVE",
"556 347 OFFCURVE",
"556 347 OFFCURVE",
"556 347 CURVE",
"556 347 LINE",
"556 348 OFFCURVE",
"556 348 OFFCURVE",
"556 348 CURVE"
);
},
{
closed = 1;
nodes = (
"288 753 LINE",
"327 922 LINE",
"371 922 LINE",
"322 753 LINE"
);
}
);
width = 606;
}
);
unicode = 00DA;
},
{
glyphname = Ucircumflex;
lastChange = "2020-05-14 03:22:20 +0000";
layers = (
{
layerId = "5C2A42EC-7958-4198-96CC-2E1007E4AFAD";
paths = (
{
closed = 1;
nodes = (
"556 348 LINE",
"556 700 LINE",
"522 700 LINE",
"522 348 LINE",
"522 348 LINE",
"522 348 OFFCURVE",
"522 348 OFFCURVE",
"522 347 CURVE",
"522 347 LINE",
"522 346 OFFCURVE",
"522 345 OFFCURVE",
"522 343 CURVE",
"522 178 OFFCURVE",
"435 34 OFFCURVE",
"328 34 CURVE",
"221 34 OFFCURVE",
"133 178 OFFCURVE",
"133 343 CURVE",
"133 345 OFFCURVE",
"133 346 OFFCURVE",
"133 347 CURVE",
"133 348 OFFCURVE",
"133 348 OFFCURVE",
"133 348 CURVE",
"133 406 LINE",
"133 423 LINE",
"133 505 LINE",
"133 523 LINE",
"133 581 LINE",
"133 581 LINE",
"132 623 OFFCURVE",
"119 665 OFFCURVE",
"95 700 CURVE",
"52 700 LINE",
"50 700 LINE",
"81 667 OFFCURVE",
"98 623 OFFCURVE",
"99 580 CURVE",
"99 571 LINE",
"99 459 LINE",
"99 347 LINE",
"99 347 LINE",
"99 347 OFFCURVE",
"99 347 OFFCURVE",
"99 347 CURVE",
"99 155 OFFCURVE",
"202 0 OFFCURVE",
"328 0 CURVE",
"454 0 OFFCURVE",
"556 155 OFFCURVE",
"556 347 CURVE",
"556 347 OFFCURVE",
"556 347 OFFCURVE",
"556 347 CURVE",
"556 347 LINE",
"556 348 OFFCURVE",
"556 348 OFFCURVE",
"556 348 CURVE"
);
},
{
closed = 1;
nodes = (
"331 882 LINE",
"309 882 LINE",
"287 882 LINE",
"203 734 LINE",
"244 734 LINE",
"309 849 LINE",
"374 734 LINE",
"415 734 LINE"
);
}
);
width = 606;
}
);
unicode = 00DB;
},
{
glyphname = Udieresis;
lastChange = "2020-05-14 03:24:12 +0000";
layers = (
{
layerId = "5C2A42EC-7958-4198-96CC-2E1007E4AFAD";
paths = (
{
closed = 1;
nodes = (
"556 348 LINE",
"556 700 LINE",
"522 700 LINE",
"522 348 LINE",
"522 348 LINE",
"522 348 OFFCURVE",
"522 348 OFFCURVE",
"522 347 CURVE",
"522 347 LINE",
"522 346 OFFCURVE",
"522 345 OFFCURVE",
"522 343 CURVE",
"522 178 OFFCURVE",
"435 34 OFFCURVE",
"328 34 CURVE",
"221 34 OFFCURVE",
"133 178 OFFCURVE",
"133 343 CURVE",
"133 345 OFFCURVE",
"133 346 OFFCURVE",
"133 347 CURVE",
"133 348 OFFCURVE",
"133 348 OFFCURVE",
"133 348 CURVE",
"133 406 LINE",
"133 423 LINE",
"133 505 LINE",
"133 523 LINE",
"133 581 LINE",
"133 581 LINE",
"132 623 OFFCURVE",
"119 665 OFFCURVE",
"95 700 CURVE",
"52 700 LINE",
"50 700 LINE",
"81 667 OFFCURVE",
"98 623 OFFCURVE",
"99 580 CURVE",
"99 571 LINE",
"99 459 LINE",
"99 347 LINE",
"99 347 LINE",
"99 347 OFFCURVE",
"99 347 OFFCURVE",
"99 347 CURVE",
"99 155 OFFCURVE",
"202 0 OFFCURVE",
"328 0 CURVE",
"454 0 OFFCURVE",
"556 155 OFFCURVE",
"556 347 CURVE",
"556 347 OFFCURVE",
"556 347 OFFCURVE",
"556 347 CURVE",
"556 347 LINE",
"556 348 OFFCURVE",
"556 348 OFFCURVE",
"556 348 CURVE"
);
},
{
closed = 1;
nodes = (
"254 803 OFFCURVE",
"239 788 OFFCURVE",
"221 788 CURVE",
"202 788 OFFCURVE",
"187 803 OFFCURVE",
"187 822 CURVE",
"187 840 OFFCURVE",
"202 855 OFFCURVE",
"221 855 CURVE",
"239 855 OFFCURVE",
"254 840 OFFCURVE",
"254 822 CURVE"
);
},
{
closed = 1;
nodes = (
"432 803 OFFCURVE",
"417 788 OFFCURVE",
"399 788 CURVE",
"380 788 OFFCURVE",
"365 803 OFFCURVE",
"365 822 CURVE",
"365 840 OFFCURVE",
"380 855 OFFCURVE",
"399 855 CURVE",
"417 855 OFFCURVE",
"432 840 OFFCURVE",
"432 822 CURVE"
);
}
);
width = 606;
}
);
unicode = 00DC;
},
{
glyphname = Ugrave;
lastChange = "2020-05-14 03:25:28 +0000";
layers = (
{
layerId = "5C2A42EC-7958-4198-96CC-2E1007E4AFAD";
paths = (
{
closed = 1;
nodes = (
"556 348 LINE",
"556 700 LINE",
"522 700 LINE",
"522 348 LINE",
"522 348 LINE",
"522 348 OFFCURVE",
"522 348 OFFCURVE",
"522 347 CURVE",
"522 347 LINE",
"522 346 OFFCURVE",
"522 345 OFFCURVE",
"522 343 CURVE",
"522 178 OFFCURVE",
"435 34 OFFCURVE",
"328 34 CURVE",
"221 34 OFFCURVE",
"133 178 OFFCURVE",
"133 343 CURVE",
"133 345 OFFCURVE",
"133 346 OFFCURVE",
"133 347 CURVE",
"133 348 OFFCURVE",
"133 348 OFFCURVE",
"133 348 CURVE",
"133 406 LINE",
"133 423 LINE",
"133 505 LINE",
"133 523 LINE",
"133 581 LINE",
"133 581 LINE",
"132 623 OFFCURVE",
"119 665 OFFCURVE",
"95 700 CURVE",
"52 700 LINE",
"50 700 LINE",
"81 667 OFFCURVE",
"98 623 OFFCURVE",
"99 580 CURVE",
"99 571 LINE",
"99 459 LINE",
"99 347 LINE",
"99 347 LINE",
"99 347 OFFCURVE",
"99 347 OFFCURVE",
"99 347 CURVE",
"99 155 OFFCURVE",
"202 0 OFFCURVE",
"328 0 CURVE",
"454 0 OFFCURVE",
"556 155 OFFCURVE",
"556 347 CURVE",
"556 347 OFFCURVE",
"556 347 OFFCURVE",
"556 347 CURVE",
"556 347 LINE",
"556 348 OFFCURVE",
"556 348 OFFCURVE",
"556 348 CURVE"
);
},
{
closed = 1;
nodes = (
"322 753 LINE",
"283 922 LINE",
"239 922 LINE",
"288 753 LINE"
);
}
);
width = 600;
}
);
unicode = 00D9;
},
{
glyphname = V;
lastChange = "2020-04-17 07:36:51 +0000";
layers = (
{
layerId = "5C2A42EC-7958-4198-96CC-2E1007E4AFAD";
paths = (
{
closed = 1;
nodes = (
"305 45 LINE",
"128 637 LINE",
"128 637 LINE",
"122 659 OFFCURVE",
"105 683 OFFCURVE",
"89 700 CURVE",
"58 700 LINE",
"50 700 LINE",
"67 682 OFFCURVE",
"88 660 OFFCURVE",
"96 637 CURVE",
"96 637 LINE",
"289 1 LINE",
"289 0 LINE",
"321 0 LINE",
"321 0 LINE",
"321 0 LINE",
"321 0 LINE",
"321 0 LINE",
"533 700 LINE",
"500 700 LINE"
);
}
);
width = 583;
}
);
unicode = 0056;
},
{
glyphname = W;
lastChange = "2020-04-15 20:32:58 +0000";
layers = (
{
layerId = "5C2A42EC-7958-4198-96CC-2E1007E4AFAD";
paths = (
{
closed = 1;
nodes = (
"507 61 LINE",
"496 99 LINE",
"475 171 LINE",
"424 347 LINE",
"385 347 LINE",
"301 61 LINE",
"290 99 LINE",
"269 171 LINE",
"171 507 LINE",
"150 579 LINE",
"133 637 LINE",
"133 637 LINE",
"127 659 OFFCURVE",
"110 683 OFFCURVE",
"94 700 CURVE",
"63 700 LINE",
"50 700 LINE",
"66 682 OFFCURVE",
"90 660 OFFCURVE",
"98 637 CURVE",
"98 637 LINE",
"283 0 LINE",
"283 0 LINE",
"319 0 LINE",
"319 0 LINE",
"345 90 LINE",
"366 163 LINE",
"404 293 LINE",
"489 0 LINE",
"489 0 LINE",
"525 0 LINE",
"525 0 LINE",
"551 90 LINE",
"572 163 LINE",
"670 499 LINE",
"691 570 LINE",
"729 700 LINE",
"693 700 LINE"
);
}
);
width = 779;
}
);
unicode = 0057;
},
{
glyphname = Wgrave;
lastChange = "2020-05-14 03:27:07 +0000";
layers = (
{
layerId = "5C2A42EC-7958-4198-96CC-2E1007E4AFAD";
paths = (
{
closed = 1;
nodes = (
"507 61 LINE",
"496 99 LINE",
"475 171 LINE",
"424 347 LINE",
"385 347 LINE",
"301 61 LINE",
"290 99 LINE",
"269 171 LINE",
"171 507 LINE",
"150 579 LINE",
"133 637 LINE",
"133 637 LINE",
"127 659 OFFCURVE",
"110 683 OFFCURVE",
"94 700 CURVE",
"63 700 LINE",
"50 700 LINE",
"66 682 OFFCURVE",
"90 660 OFFCURVE",
"98 637 CURVE",
"98 637 LINE",
"283 0 LINE",
"283 0 LINE",
"319 0 LINE",
"319 0 LINE",
"345 90 LINE",
"366 163 LINE",
"404 293 LINE",
"489 0 LINE",
"489 0 LINE",
"525 0 LINE",
"525 0 LINE",
"551 90 LINE",
"572 163 LINE",
"670 499 LINE",
"691 570 LINE",
"729 700 LINE",
"693 700 LINE"
);
},
{
closed = 1;
nodes = (
"421 751 LINE",
"382 920 LINE",
"338 920 LINE",
"387 751 LINE"
);
}
);
width = 779;
}
);
unicode = 1E80;
},
{
glyphname = X;
lastChange = "2020-04-15 15:52:28 +0000";
layers = (
{
layerId = "5C2A42EC-7958-4198-96CC-2E1007E4AFAD";
paths = (
{
closed = 1;
nodes = (
"466 123 LINE",
"329 352 LINE",
"539 700 LINE",
"500 700 LINE",
"311 383 LINE",
"158 639 LINE",
"145 662 OFFCURVE",
"129 683 OFFCURVE",
"110 700 CURVE",
"50 700 LINE",
"79 685 OFFCURVE",
"104 662 OFFCURVE",
"121 635 CURVE",
"124 631 LINE",
"292 352 LINE",
"82 0 LINE",
"117 0 LINE",
"311 321 LINE",
"464 67 LINE",
"468 60 OFFCURVE",
"472 54 OFFCURVE",
"476 47 CURVE",
"477 45 LINE",
"477 45 LINE",
"489 28 OFFCURVE",
"503 13 OFFCURVE",
"519 0 CURVE",
"585 0 LINE",
"550 15 OFFCURVE",
"520 40 OFFCURVE",
"501 71 CURVE"
);
}
);
width = 635;
}
);
unicode = 0058;
},
{
glyphname = Y;
lastChange = "2020-04-17 07:38:08 +0000";
layers = (
{
layerId = "5C2A42EC-7958-4198-96CC-2E1007E4AFAD";
paths = (
{
closed = 1;
nodes = (
"500 700 LINE",
"313 378 LINE",
"158 639 LINE",
"145 662 OFFCURVE",
"129 683 OFFCURVE",
"110 700 CURVE",
"50 700 LINE",
"79 685 OFFCURVE",
"104 662 OFFCURVE",
"121 635 CURVE",
"124 631 LINE",
"295 347 LINE",
"295 347 LINE",
"297 0 LINE",
"328 0 LINE",
"328 87 LINE",
"328 113 LINE",
"328 234 LINE",
"328 260 LINE",
"328 347 LINE",
"328 347 LINE",
"539 700 LINE"
);
}
);
width = 589;
}
);
unicode = 0059;
},
{
glyphname = Ydieresis;
lastChange = "2020-05-14 03:28:02 +0000";
layers = (
{
layerId = "5C2A42EC-7958-4198-96CC-2E1007E4AFAD";
paths = (
{
closed = 1;
nodes = (
"500 700 LINE",
"313 378 LINE",
"158 639 LINE",
"145 662 OFFCURVE",
"129 683 OFFCURVE",
"110 700 CURVE",
"50 700 LINE",
"79 685 OFFCURVE",
"104 662 OFFCURVE",
"121 635 CURVE",
"124 631 LINE",
"295 347 LINE",
"295 347 LINE",
"297 0 LINE",
"328 0 LINE",
"328 87 LINE",
"328 113 LINE",
"328 234 LINE",
"328 260 LINE",
"328 347 LINE",
"328 347 LINE",
"539 700 LINE"
);
},
{
closed = 1;
nodes = (
"254 803 OFFCURVE",
"239 788 OFFCURVE",
"221 788 CURVE",
"202 788 OFFCURVE",
"187 803 OFFCURVE",
"187 822 CURVE",
"187 840 OFFCURVE",
"202 855 OFFCURVE",
"221 855 CURVE",
"239 855 OFFCURVE",
"254 840 OFFCURVE",
"254 822 CURVE"
);
},
{
closed = 1;
nodes = (
"432 803 OFFCURVE",
"417 788 OFFCURVE",
"399 788 CURVE",
"380 788 OFFCURVE",
"365 803 OFFCURVE",
"365 822 CURVE",
"365 840 OFFCURVE",
"380 855 OFFCURVE",
"399 855 CURVE",
"417 855 OFFCURVE",
"432 840 OFFCURVE",
"432 822 CURVE"
);
}
);
width = 589;
}
);
unicode = 0178;
},
{
glyphname = Ygrave;
lastChange = "2020-05-14 03:28:48 +0000";
layers = (
{
layerId = "5C2A42EC-7958-4198-96CC-2E1007E4AFAD";
paths = (
{
closed = 1;
nodes = (
"500 700 LINE",
"313 378 LINE",
"158 639 LINE",
"145 662 OFFCURVE",
"129 683 OFFCURVE",
"110 700 CURVE",
"50 700 LINE",
"79 685 OFFCURVE",
"104 662 OFFCURVE",
"121 635 CURVE",
"124 631 LINE",
"295 347 LINE",
"295 347 LINE",
"297 0 LINE",
"328 0 LINE",
"328 87 LINE",
"328 113 LINE",
"328 234 LINE",
"328 260 LINE",
"328 347 LINE",
"328 347 LINE",
"539 700 LINE"
);
},
{
closed = 1;
nodes = (
"327 753 LINE",
"288 922 LINE",
"244 922 LINE",
"293 753 LINE"
);
}
);
width = 600;
}
);
unicode = 1EF2;
},
{
glyphname = Z;
lastChange = "2020-04-15 15:52:45 +0000";
layers = (
{
layerId = "5C2A42EC-7958-4198-96CC-2E1007E4AFAD";
paths = (
{
closed = 1;
nodes = (
"378 34 LINE",
"266 34 LINE",
"114 34 LINE",
"506 700 LINE",
"506 700 LINE",
"507 700 LINE",
"418 700 LINE",
"415 700 LINE",
"393 700 LINE",
"359 700 LINE",
"326 700 LINE",
"324 700 LINE",
"299 700 LINE",
"297 700 LINE",
"200 700 LINE",
"170 700 LINE",
"169 700 LINE",
"165 700 LINE",
"142 700 LINE",
"142 700 LINE",
"51 700 LINE",
"50 700 LINE",
"50 666 LINE",
"398 666 LINE",
"398 666 LINE",
"401 666 LINE",
"401 666 LINE",
"445 666 LINE",
"73 34 LINE",
"72 34 LINE",
"52 0 LINE",
"52 0 LINE",
"93 0 LINE",
"197 0 LINE",
"239 0 LINE",
"383 0 LINE",
"383 0 LINE",
"427 0 OFFCURVE",
"470 13 OFFCURVE",
"507 39 CURVE",
"507 81 LINE",
"507 83 LINE",
"473 51 OFFCURVE",
"428 34 OFFCURVE",
"383 34 CURVE"
);
}
);
width = 557;
}
);
unicode = 005A;
},
{
glyphname = Zacute;
lastChange = "2020-05-14 03:30:47 +0000";
layers = (
{
layerId = "5C2A42EC-7958-4198-96CC-2E1007E4AFAD";
paths = (
{
closed = 1;
nodes = (
"378 34 LINE",
"266 34 LINE",
"114 34 LINE",
"506 700 LINE",
"506 700 LINE",
"507 700 LINE",
"418 700 LINE",
"415 700 LINE",
"393 700 LINE",
"359 700 LINE",
"326 700 LINE",
"324 700 LINE",
"299 700 LINE",
"297 700 LINE",
"200 700 LINE",
"170 700 LINE",
"169 700 LINE",
"165 700 LINE",
"142 700 LINE",
"142 700 LINE",
"51 700 LINE",
"50 700 LINE",
"50 666 LINE",
"398 666 LINE",
"398 666 LINE",
"401 666 LINE",
"401 666 LINE",
"445 666 LINE",
"73 34 LINE",
"72 34 LINE",
"52 0 LINE",
"52 0 LINE",
"93 0 LINE",
"197 0 LINE",
"239 0 LINE",
"383 0 LINE",
"383 0 LINE",
"427 0 OFFCURVE",
"470 13 OFFCURVE",
"507 39 CURVE",
"507 81 LINE",
"507 83 LINE",
"473 51 OFFCURVE",
"428 34 OFFCURVE",
"383 34 CURVE"
);
},
{
closed = 1;
nodes = (
"288 753 LINE",
"327 922 LINE",
"371 922 LINE",
"322 753 LINE"
);
}
);
width = 557;
}
);
unicode = 0179;
},
{
glyphname = Zdotaccent;
lastChange = "2020-05-14 03:31:26 +0000";
layers = (
{
layerId = "5C2A42EC-7958-4198-96CC-2E1007E4AFAD";
paths = (
{
closed = 1;
nodes = (
"378 34 LINE",
"266 34 LINE",
"114 34 LINE",
"506 700 LINE",
"506 700 LINE",
"507 700 LINE",
"418 700 LINE",
"415 700 LINE",
"393 700 LINE",
"359 700 LINE",
"326 700 LINE",
"324 700 LINE",
"299 700 LINE",
"297 700 LINE",
"200 700 LINE",
"170 700 LINE",
"169 700 LINE",
"165 700 LINE",
"142 700 LINE",
"142 700 LINE",
"51 700 LINE",
"50 700 LINE",
"50 666 LINE",
"398 666 LINE",
"398 666 LINE",
"401 666 LINE",
"401 666 LINE",
"445 666 LINE",
"73 34 LINE",
"72 34 LINE",
"52 0 LINE",
"52 0 LINE",
"93 0 LINE",
"197 0 LINE",
"239 0 LINE",
"383 0 LINE",
"383 0 LINE",
"427 0 OFFCURVE",
"470 13 OFFCURVE",
"507 39 CURVE",
"507 81 LINE",
"507 83 LINE",
"473 51 OFFCURVE",
"428 34 OFFCURVE",
"383 34 CURVE"
);
},
{
closed = 1;
nodes = (
"325 781 OFFCURVE",
"310 766 OFFCURVE",
"292 766 CURVE",
"273 766 OFFCURVE",
"258 781 OFFCURVE",
"258 800 CURVE",
"258 818 OFFCURVE",
"273 833 OFFCURVE",
"292 833 CURVE",
"310 833 OFFCURVE",
"325 818 OFFCURVE",
"325 800 CURVE"
);
}
);
width = 557;
}
);
unicode = 017B;
},
{
glyphname = a;
lastChange = "2020-05-20 16:36:04 +0000";
layers = (
{
layerId = "5C2A42EC-7958-4198-96CC-2E1007E4AFAD";
paths = (
{
closed = 1;
nodes = (
"380 119 OFFCURVE",
"380 124 OFFCURVE",
"380 129 CURVE",
"380 167 LINE",
"380 169 OFFCURVE",
"380 172 OFFCURVE",
"380 174 CURVE",
"348 174 LINE",
"348 94 OFFCURVE",
"285 34 OFFCURVE",
"205 34 CURVE",
"125 34 OFFCURVE",
"63 97 OFFCURVE",
"63 178 CURVE",
"63 258 OFFCURVE",
"125 316 OFFCURVE",
"205 316 CURVE",
"205 316 OFFCURVE",
"205 320 OFFCURVE",
"205 320 CURVE",
"205 350 LINE",
"205 350 OFFCURVE",
"205 350 OFFCURVE",
"205 350 CURVE",
"108 350 OFFCURVE",
"30 271 OFFCURVE",
"30 175 CURVE",
"30 78 OFFCURVE",
"108 0 OFFCURVE",
"205 0 CURVE",
"265 0 OFFCURVE",
"318 30 OFFCURVE",
"350 76 CURVE",
"351 73 OFFCURVE",
"352 69 OFFCURVE",
"353 66 CURVE",
"359 42 OFFCURVE",
"370 20 OFFCURVE",
"385 0 CURVE",
"430 0 LINE",
"431 1 LINE",
"399 32 OFFCURVE",
"382 73 OFFCURVE",
"380 115 CURVE"
);
}
);
width = 481;
}
);
unicode = 0061;
},
{
glyphname = aacute;
lastChange = "2020-05-14 05:09:24 +0000";
layers = (
{
layerId = "5C2A42EC-7958-4198-96CC-2E1007E4AFAD";
paths = (
{
closed = 1;
nodes = (
"400 119 OFFCURVE",
"400 124 OFFCURVE",
"400 129 CURVE",
"400 167 LINE",
"400 169 OFFCURVE",
"400 172 OFFCURVE",
"400 174 CURVE",
"368 174 LINE",
"368 94 OFFCURVE",
"305 34 OFFCURVE",
"225 34 CURVE",
"145 34 OFFCURVE",
"83 97 OFFCURVE",
"83 178 CURVE",
"83 258 OFFCURVE",
"145 316 OFFCURVE",
"225 316 CURVE",
"225 316 OFFCURVE",
"225 320 OFFCURVE",
"225 320 CURVE",
"225 350 LINE",
"225 350 OFFCURVE",
"225 350 OFFCURVE",
"225 350 CURVE",
"128 350 OFFCURVE",
"50 271 OFFCURVE",
"50 175 CURVE",
"50 78 OFFCURVE",
"128 0 OFFCURVE",
"225 0 CURVE",
"285 0 OFFCURVE",
"338 30 OFFCURVE",
"370 76 CURVE",
"371 73 OFFCURVE",
"372 69 OFFCURVE",
"373 66 CURVE",
"379 42 OFFCURVE",
"390 20 OFFCURVE",
"405 0 CURVE",
"450 0 LINE",
"451 1 LINE",
"419 32 OFFCURVE",
"402 73 OFFCURVE",
"400 115 CURVE"
);
},
{
closed = 1;
nodes = (
"209 442 LINE",
"248 611 LINE",
"292 611 LINE",
"243 442 LINE"
);
}
);
width = 501;
}
);
unicode = 00E1;
},
{
glyphname = acircumflex;
lastChange = "2020-05-14 05:09:57 +0000";
layers = (
{
layerId = "5C2A42EC-7958-4198-96CC-2E1007E4AFAD";
paths = (
{
closed = 1;
nodes = (
"400 119 OFFCURVE",
"400 124 OFFCURVE",
"400 129 CURVE",
"400 167 LINE",
"400 169 OFFCURVE",
"400 172 OFFCURVE",
"400 174 CURVE",
"368 174 LINE",
"368 94 OFFCURVE",
"305 34 OFFCURVE",
"225 34 CURVE",
"145 34 OFFCURVE",
"83 97 OFFCURVE",
"83 178 CURVE",
"83 258 OFFCURVE",
"145 316 OFFCURVE",
"225 316 CURVE",
"225 316 OFFCURVE",
"225 320 OFFCURVE",
"225 320 CURVE",
"225 350 LINE",
"225 350 OFFCURVE",
"225 350 OFFCURVE",
"225 350 CURVE",
"128 350 OFFCURVE",
"50 271 OFFCURVE",
"50 175 CURVE",
"50 78 OFFCURVE",
"128 0 OFFCURVE",
"225 0 CURVE",
"285 0 OFFCURVE",
"338 30 OFFCURVE",
"370 76 CURVE",
"371 73 OFFCURVE",
"372 69 OFFCURVE",
"373 66 CURVE",
"379 42 OFFCURVE",
"390 20 OFFCURVE",
"405 0 CURVE",
"450 0 LINE",
"451 1 LINE",
"419 32 OFFCURVE",
"402 73 OFFCURVE",
"400 115 CURVE"
);
},
{
closed = 1;
nodes = (
"247 590 LINE",
"225 590 LINE",
"203 590 LINE",
"119 442 LINE",
"160 442 LINE",
"225 557 LINE",
"290 442 LINE",
"331 442 LINE"
);
}
);
width = 501;
}
);
unicode = 00E2;
},
{
glyphname = adieresis;
lastChange = "2020-05-14 05:10:37 +0000";
layers = (
{
layerId = "5C2A42EC-7958-4198-96CC-2E1007E4AFAD";
paths = (
{
closed = 1;
nodes = (
"400 119 OFFCURVE",
"400 124 OFFCURVE",
"400 129 CURVE",
"400 167 LINE",
"400 169 OFFCURVE",
"400 172 OFFCURVE",
"400 174 CURVE",
"368 174 LINE",
"368 94 OFFCURVE",
"305 34 OFFCURVE",
"225 34 CURVE",
"145 34 OFFCURVE",
"83 97 OFFCURVE",
"83 178 CURVE",
"83 258 OFFCURVE",
"145 316 OFFCURVE",
"225 316 CURVE",
"225 316 OFFCURVE",
"225 320 OFFCURVE",
"225 320 CURVE",
"225 350 LINE",
"225 350 OFFCURVE",
"225 350 OFFCURVE",
"225 350 CURVE",
"128 350 OFFCURVE",
"50 271 OFFCURVE",
"50 175 CURVE",
"50 78 OFFCURVE",
"128 0 OFFCURVE",
"225 0 CURVE",
"285 0 OFFCURVE",
"338 30 OFFCURVE",
"370 76 CURVE",
"371 73 OFFCURVE",
"372 69 OFFCURVE",
"373 66 CURVE",
"379 42 OFFCURVE",
"390 20 OFFCURVE",
"405 0 CURVE",
"450 0 LINE",
"451 1 LINE",
"419 32 OFFCURVE",
"402 73 OFFCURVE",
"400 115 CURVE"
);
},
{
closed = 1;
nodes = (
"172 457 OFFCURVE",
"157 442 OFFCURVE",
"139 442 CURVE",
"120 442 OFFCURVE",
"105 457 OFFCURVE",
"105 476 CURVE",
"105 494 OFFCURVE",
"120 509 OFFCURVE",
"139 509 CURVE",
"157 509 OFFCURVE",
"172 494 OFFCURVE",
"172 476 CURVE"
);
},
{
closed = 1;
nodes = (
"350 457 OFFCURVE",
"335 442 OFFCURVE",
"317 442 CURVE",
"298 442 OFFCURVE",
"283 457 OFFCURVE",
"283 476 CURVE",
"283 494 OFFCURVE",
"298 509 OFFCURVE",
"317 509 CURVE",
"335 509 OFFCURVE",
"350 494 OFFCURVE",
"350 476 CURVE"
);
}
);
width = 501;
}
);
unicode = 00E4;
},
{
glyphname = agrave;
lastChange = "2020-05-14 05:10:57 +0000";
layers = (
{
layerId = "5C2A42EC-7958-4198-96CC-2E1007E4AFAD";
paths = (
{
closed = 1;
nodes = (
"400 119 OFFCURVE",
"400 124 OFFCURVE",
"400 129 CURVE",
"400 167 LINE",
"400 169 OFFCURVE",
"400 172 OFFCURVE",
"400 174 CURVE",
"368 174 LINE",
"368 94 OFFCURVE",
"305 34 OFFCURVE",
"225 34 CURVE",
"145 34 OFFCURVE",
"83 97 OFFCURVE",
"83 178 CURVE",
"83 258 OFFCURVE",
"145 316 OFFCURVE",
"225 316 CURVE",
"225 316 OFFCURVE",
"225 320 OFFCURVE",
"225 320 CURVE",
"225 350 LINE",
"225 350 OFFCURVE",
"225 350 OFFCURVE",
"225 350 CURVE",
"128 350 OFFCURVE",
"50 271 OFFCURVE",
"50 175 CURVE",
"50 78 OFFCURVE",
"128 0 OFFCURVE",
"225 0 CURVE",
"285 0 OFFCURVE",
"338 30 OFFCURVE",
"370 76 CURVE",
"371 73 OFFCURVE",
"372 69 OFFCURVE",
"373 66 CURVE",
"379 42 OFFCURVE",
"390 20 OFFCURVE",
"405 0 CURVE",
"450 0 LINE",
"451 1 LINE",
"419 32 OFFCURVE",
"402 73 OFFCURVE",
"400 115 CURVE"
);
},
{
closed = 1;
nodes = (
"243 442 LINE",
"204 611 LINE",
"160 611 LINE",
"209 442 LINE"
);
}
);
width = 501;
}
);
unicode = 00E0;
},
{
glyphname = aring;
lastChange = "2020-05-14 05:11:31 +0000";
layers = (
{
layerId = "5C2A42EC-7958-4198-96CC-2E1007E4AFAD";
paths = (
{
closed = 1;
nodes = (
"400 119 OFFCURVE",
"400 124 OFFCURVE",
"400 129 CURVE",
"400 167 LINE",
"400 169 OFFCURVE",
"400 172 OFFCURVE",
"400 174 CURVE",
"368 174 LINE",
"368 94 OFFCURVE",
"305 34 OFFCURVE",
"225 34 CURVE",
"145 34 OFFCURVE",
"83 97 OFFCURVE",
"83 178 CURVE",
"83 258 OFFCURVE",
"145 316 OFFCURVE",
"225 316 CURVE",
"225 316 OFFCURVE",
"225 320 OFFCURVE",
"225 320 CURVE",
"225 350 LINE",
"225 350 OFFCURVE",
"225 350 OFFCURVE",
"225 350 CURVE",
"128 350 OFFCURVE",
"50 271 OFFCURVE",
"50 175 CURVE",
"50 78 OFFCURVE",
"128 0 OFFCURVE",
"225 0 CURVE",
"285 0 OFFCURVE",
"338 30 OFFCURVE",
"370 76 CURVE",
"371 73 OFFCURVE",
"372 69 OFFCURVE",
"373 66 CURVE",
"379 42 OFFCURVE",
"390 20 OFFCURVE",
"405 0 CURVE",
"450 0 LINE",
"451 1 LINE",
"419 32 OFFCURVE",
"402 73 OFFCURVE",
"400 115 CURVE"
);
},
{
closed = 1;
nodes = (
"182 605 OFFCURVE",
"146 568 OFFCURVE",
"146 523 CURVE",
"146 478 OFFCURVE",
"182 442 OFFCURVE",
"227 442 CURVE",
"272 442 OFFCURVE",
"309 478 OFFCURVE",
"309 523 CURVE",
"309 568 OFFCURVE",
"272 605 OFFCURVE",
"227 605 CURVE"
);
},
{
closed = 1;
nodes = (
"203 478 OFFCURVE",
"183 498 OFFCURVE",
"183 523 CURVE",
"183 548 OFFCURVE",
"203 568 OFFCURVE",
"227 568 CURVE",
"252 568 OFFCURVE",
"272 548 OFFCURVE",
"272 523 CURVE",
"272 498 OFFCURVE",
"252 478 OFFCURVE",
"227 478 CURVE"
);
}
);
width = 501;
}
);
unicode = 00E5;
},
{
glyphname = atilde;
lastChange = "2020-05-14 05:12:32 +0000";
layers = (
{
layerId = "5C2A42EC-7958-4198-96CC-2E1007E4AFAD";
paths = (
{
closed = 1;
nodes = (
"400 119 OFFCURVE",
"400 124 OFFCURVE",
"400 129 CURVE",
"400 167 LINE",
"400 169 OFFCURVE",
"400 172 OFFCURVE",
"400 174 CURVE",
"368 174 LINE",
"368 94 OFFCURVE",
"305 34 OFFCURVE",
"225 34 CURVE",
"145 34 OFFCURVE",
"83 97 OFFCURVE",
"83 178 CURVE",
"83 258 OFFCURVE",
"145 316 OFFCURVE",
"225 316 CURVE",
"225 316 OFFCURVE",
"225 320 OFFCURVE",
"225 320 CURVE",
"225 350 LINE",
"225 350 OFFCURVE",
"225 350 OFFCURVE",
"225 350 CURVE",
"128 350 OFFCURVE",
"50 271 OFFCURVE",
"50 175 CURVE",
"50 78 OFFCURVE",
"128 0 OFFCURVE",
"225 0 CURVE",
"285 0 OFFCURVE",
"338 30 OFFCURVE",
"370 76 CURVE",
"371 73 OFFCURVE",
"372 69 OFFCURVE",
"373 66 CURVE",
"379 42 OFFCURVE",
"390 20 OFFCURVE",
"405 0 CURVE",
"450 0 LINE",
"451 1 LINE",
"419 32 OFFCURVE",
"402 73 OFFCURVE",
"400 115 CURVE"
);
},
{
closed = 1;
nodes = (
"344 497 OFFCURVE",
"326 478 OFFCURVE",
"305 478 CURVE",
"303 478 OFFCURVE",
"305 478 OFFCURVE",
"302 478 CURVE",
"302 478 LINE",
"296 478 OFFCURVE",
"282 485 OFFCURVE",
"278 487 CURVE",
"255 499 OFFCURVE",
"213 518 OFFCURVE",
"187 518 CURVE",
"186 518 LINE",
"146 518 OFFCURVE",
"116 487 OFFCURVE",
"116 447 CURVE",
"116 445 OFFCURVE",
"116 444 OFFCURVE",
"116 442 CURVE",
"149 442 LINE",
"149 444 OFFCURVE",
"149 445 OFFCURVE",
"149 447 CURVE",
"149 468 OFFCURVE",
"166 485 OFFCURVE",
"187 485 CURVE",
"188 485 LINE",
"188 485 OFFCURVE",
"204 486 OFFCURVE",
"240 470 CURVE SMOOTH",
"251 465 LINE",
"251 465 LINE",
"251 465 LINE",
"261 460 OFFCURVE",
"263 459 OFFCURVE",
"276 453 CURVE",
"281 451 OFFCURVE",
"285 449 OFFCURVE",
"291 447 CURVE",
"296 445 OFFCURVE",
"303 445 OFFCURVE",
"302 445 CURVE",
"302 445 LINE",
"302 445 LINE",
"302 445 LINE",
"303 445 OFFCURVE",
"300 445 OFFCURVE",
"302 445 CURVE",
"341 445 OFFCURVE",
"377 479 OFFCURVE",
"377 518 CURVE",
"344 518 LINE"
);
}
);
width = 501;
}
);
unicode = 00E3;
},
{
glyphname = b;
lastChange = "2020-04-15 21:22:04 +0000";
layers = (
{
layerId = "5C2A42EC-7958-4198-96CC-2E1007E4AFAD";
paths = (
{
closed = 1;
nodes = (
"273 350 OFFCURVE",
"273 350 OFFCURVE",
"273 350 CURVE",
"273 320 LINE",
"273 320 OFFCURVE",
"273 320 OFFCURVE",
"274 320 CURVE",
"354 320 OFFCURVE",
"419 255 OFFCURVE",
"419 175 CURVE",
"419 94 OFFCURVE",
"354 29 OFFCURVE",
"274 29 CURVE",
"204 29 OFFCURVE",
"146 78 OFFCURVE",
"132 144 CURVE",
"132 249 LINE",
"132 293 LINE",
"132 504 LINE",
"132 549 LINE",
"132 700 LINE",
"98 700 LINE",
"98 116 LINE",
"96 74 OFFCURVE",
"80 33 OFFCURVE",
"50 1 CURVE",
"51 0 LINE",
"93 0 LINE",
"110 24 OFFCURVE",
"121 51 OFFCURVE",
"127 79 CURVE",
"158 31 OFFCURVE",
"212 0 OFFCURVE",
"274 0 CURVE",
"370 0 OFFCURVE",
"449 78 OFFCURVE",
"449 175 CURVE",
"449 271 OFFCURVE",
"370 350 OFFCURVE",
"274 350 CURVE"
);
}
);
width = 499;
}
);
unicode = 0062;
},
{
glyphname = c;
lastChange = "2020-04-15 21:21:43 +0000";
layers = (
{
layerId = "5C2A42EC-7958-4198-96CC-2E1007E4AFAD";
paths = (
{
closed = 1;
nodes = (
"370 95 OFFCURVE",
"305 30 OFFCURVE",
"225 30 CURVE",
"144 30 OFFCURVE",
"79 95 OFFCURVE",
"79 175 CURVE",
"79 255 OFFCURVE",
"144 320 OFFCURVE",
"225 320 CURVE",
"225 320 OFFCURVE",
"225 320 OFFCURVE",
"225 320 CURVE",
"225 350 LINE",
"225 350 OFFCURVE",
"225 350 OFFCURVE",
"225 350 CURVE",
"128 350 OFFCURVE",
"50 272 OFFCURVE",
"50 175 CURVE",
"50 78 OFFCURVE",
"128 0 OFFCURVE",
"225 0 CURVE",
"321 0 OFFCURVE",
"399 78 OFFCURVE",
"400 174 CURVE",
"370 174 LINE"
);
}
);
width = 450;
}
);
unicode = 0063;
},
{
glyphname = cacute;
lastChange = "2020-05-14 05:12:50 +0000";
layers = (
{
layerId = "5C2A42EC-7958-4198-96CC-2E1007E4AFAD";
paths = (
{
closed = 1;
nodes = (
"370 95 OFFCURVE",
"305 30 OFFCURVE",
"225 30 CURVE",
"144 30 OFFCURVE",
"79 95 OFFCURVE",
"79 175 CURVE",
"79 255 OFFCURVE",
"144 320 OFFCURVE",
"225 320 CURVE",
"225 320 OFFCURVE",
"225 320 OFFCURVE",
"225 320 CURVE",
"225 350 LINE",
"225 350 OFFCURVE",
"225 350 OFFCURVE",
"225 350 CURVE",
"128 350 OFFCURVE",
"50 272 OFFCURVE",
"50 175 CURVE",
"50 78 OFFCURVE",
"128 0 OFFCURVE",
"225 0 CURVE",
"321 0 OFFCURVE",
"399 78 OFFCURVE",
"400 174 CURVE",
"370 174 LINE"
);
},
{
closed = 1;
nodes = (
"209 442 LINE",
"248 611 LINE",
"292 611 LINE",
"243 442 LINE"
);
}
);
width = 450;
}
);
unicode = 0107;
},
{
glyphname = d;
lastChange = "2020-04-15 21:06:35 +0000";
layers = (
{
layerId = "5C2A42EC-7958-4198-96CC-2E1007E4AFAD";
paths = (
{
closed = 1;
nodes = (
"401 242 LINE",
"401 242 OFFCURVE",
"401 242 OFFCURVE",
"401 242 CURVE",
"401 700 LINE",
"367 700 LINE",
"367 550 LINE",
"367 505 LINE",
"367 294 LINE",
"367 250 LINE",
"367 145 LINE",
"353 79 OFFCURVE",
"295 30 OFFCURVE",
"225 30 CURVE",
"145 30 OFFCURVE",
"80 95 OFFCURVE",
"80 175 CURVE",
"80 256 OFFCURVE",
"145 321 OFFCURVE",
"225 321 CURVE",
"225 321 OFFCURVE",
"225 321 OFFCURVE",
"226 321 CURVE",
"226 350 LINE",
"225 350 OFFCURVE",
"225 350 OFFCURVE",
"225 350 CURVE",
"129 350 OFFCURVE",
"50 272 OFFCURVE",
"50 175 CURVE",
"50 79 OFFCURVE",
"129 0 OFFCURVE",
"225 0 CURVE",
"287 0 OFFCURVE",
"341 32 OFFCURVE",
"372 80 CURVE",
"378 52 OFFCURVE",
"389 25 OFFCURVE",
"406 0 CURVE",
"449 0 LINE",
"450 2 LINE",
"416 37 OFFCURVE",
"400 83 OFFCURVE",
"401 129 CURVE"
);
}
);
width = 500;
}
);
unicode = 0064;
},
{
glyphname = e;
lastChange = "2020-05-20 16:36:22 +0000";
layers = (
{
layerId = "5C2A42EC-7958-4198-96CC-2E1007E4AFAD";
paths = (
{
closed = 1;
nodes = (
"381 174 OFFCURVE",
"381 174 OFFCURVE",
"381 175 CURVE",
"346 175 LINE",
"346 174 OFFCURVE",
"346 174 OFFCURVE",
"346 174 CURVE",
"346 96 OFFCURVE",
"269 38 OFFCURVE",
"207 38 CURVE",
"205 38 OFFCURVE",
"205 38 OFFCURVE",
"205 38 CURVE",
"205 38 OFFCURVE",
"206 38 OFFCURVE",
"204 38 CURVE",
"127 38 OFFCURVE",
"67 101 OFFCURVE",
"67 174 CURVE",
"67 174 OFFCURVE",
"67 174 OFFCURVE",
"67 174 CURVE",
"334 292 LINE",
"300 324 OFFCURVE",
"251 350 OFFCURVE",
"207 350 CURVE",
"207 350 LINE",
"207 350 OFFCURVE",
"207 350 OFFCURVE",
"207 350 CURVE",
"-39 350 OFFCURVE",
"-17 0 OFFCURVE",
"205 0 CURVE",
"205 0 OFFCURVE",
"205 0 OFFCURVE",
"206 0 CURVE",
"207 0 OFFCURVE",
"206 0 OFFCURVE",
"207 0 CURVE",
"319 0 OFFCURVE",
"381 96 OFFCURVE",
"381 174 CURVE"
);
},
{
closed = 1;
nodes = (
"67 207 LINE",
"112 329 OFFCURVE",
"209 331 OFFCURVE",
"277 300 CURVE"
);
}
);
width = 431;
}
);
unicode = 0065;
},
{
glyphname = eacute;
lastChange = "2020-05-14 10:50:11 +0000";
layers = (
{
layerId = "5C2A42EC-7958-4198-96CC-2E1007E4AFAD";
paths = (
{
closed = 1;
nodes = (
"209 442 LINE",
"248 611 LINE",
"292 611 LINE",
"243 442 LINE"
);
},
{
closed = 1;
nodes = (
"401 174 OFFCURVE",
"401 174 OFFCURVE",
"401 175 CURVE",
"366 175 LINE",
"366 174 OFFCURVE",
"366 174 OFFCURVE",
"366 174 CURVE",
"366 96 OFFCURVE",
"289 38 OFFCURVE",
"227 38 CURVE",
"225 38 OFFCURVE",
"225 38 OFFCURVE",
"225 38 CURVE",
"225 38 OFFCURVE",
"226 38 OFFCURVE",
"224 38 CURVE",
"147 38 OFFCURVE",
"87 101 OFFCURVE",
"87 174 CURVE",
"87 174 OFFCURVE",
"87 174 OFFCURVE",
"87 174 CURVE",
"354 292 LINE",
"320 324 OFFCURVE",
"271 350 OFFCURVE",
"227 350 CURVE",
"227 350 LINE",
"227 350 OFFCURVE",
"227 350 OFFCURVE",
"227 350 CURVE",
"-19 350 OFFCURVE",
"3 0 OFFCURVE",
"225 0 CURVE",
"225 0 OFFCURVE",
"225 0 OFFCURVE",
"226 0 CURVE",
"227 0 OFFCURVE",
"226 0 OFFCURVE",
"227 0 CURVE",
"339 0 OFFCURVE",
"401 96 OFFCURVE",
"401 174 CURVE"
);
},
{
closed = 1;
nodes = (
"87 207 LINE",
"132 329 OFFCURVE",
"229 331 OFFCURVE",
"297 300 CURVE"
);
}
);
width = 451;
}
);
unicode = 00E9;
},
{
glyphname = ecircumflex;
lastChange = "2020-05-14 10:50:28 +0000";
layers = (
{
layerId = "5C2A42EC-7958-4198-96CC-2E1007E4AFAD";
paths = (
{
closed = 1;
nodes = (
"247 590 LINE",
"225 590 LINE",
"203 590 LINE",
"119 442 LINE",
"160 442 LINE",
"225 557 LINE",
"290 442 LINE",
"331 442 LINE"
);
},
{
closed = 1;
nodes = (
"401 174 OFFCURVE",
"401 174 OFFCURVE",
"401 175 CURVE",
"366 175 LINE",
"366 174 OFFCURVE",
"366 174 OFFCURVE",
"366 174 CURVE",
"366 96 OFFCURVE",
"289 38 OFFCURVE",
"227 38 CURVE",
"225 38 OFFCURVE",
"225 38 OFFCURVE",
"225 38 CURVE",
"225 38 OFFCURVE",
"226 38 OFFCURVE",
"224 38 CURVE",
"147 38 OFFCURVE",
"87 101 OFFCURVE",
"87 174 CURVE",
"87 174 OFFCURVE",
"87 174 OFFCURVE",
"87 174 CURVE",
"354 292 LINE",
"320 324 OFFCURVE",
"271 350 OFFCURVE",
"227 350 CURVE",
"227 350 LINE",
"227 350 OFFCURVE",
"227 350 OFFCURVE",
"227 350 CURVE",
"-19 350 OFFCURVE",
"3 0 OFFCURVE",
"225 0 CURVE",
"225 0 OFFCURVE",
"225 0 OFFCURVE",
"226 0 CURVE",
"227 0 OFFCURVE",
"226 0 OFFCURVE",
"227 0 CURVE",
"339 0 OFFCURVE",
"401 96 OFFCURVE",
"401 174 CURVE"
);
},
{
closed = 1;
nodes = (
"87 207 LINE",
"132 329 OFFCURVE",
"229 331 OFFCURVE",
"297 300 CURVE"
);
}
);
width = 451;
}
);
unicode = 00EA;
},
{
glyphname = edieresis;
lastChange = "2020-05-14 10:50:40 +0000";
layers = (
{
layerId = "5C2A42EC-7958-4198-96CC-2E1007E4AFAD";
paths = (
{
closed = 1;
nodes = (
"170 457 OFFCURVE",
"155 442 OFFCURVE",
"137 442 CURVE",
"118 442 OFFCURVE",
"103 457 OFFCURVE",
"103 476 CURVE",
"103 494 OFFCURVE",
"118 509 OFFCURVE",
"137 509 CURVE",
"155 509 OFFCURVE",
"170 494 OFFCURVE",
"170 476 CURVE"
);
},
{
closed = 1;
nodes = (
"348 457 OFFCURVE",
"333 442 OFFCURVE",
"315 442 CURVE",
"296 442 OFFCURVE",
"281 457 OFFCURVE",
"281 476 CURVE",
"281 494 OFFCURVE",
"296 509 OFFCURVE",
"315 509 CURVE",
"333 509 OFFCURVE",
"348 494 OFFCURVE",
"348 476 CURVE"
);
},
{
closed = 1;
nodes = (
"401 174 OFFCURVE",
"401 174 OFFCURVE",
"401 175 CURVE",
"366 175 LINE",
"366 174 OFFCURVE",
"366 174 OFFCURVE",
"366 174 CURVE",
"366 96 OFFCURVE",
"289 38 OFFCURVE",
"227 38 CURVE",
"225 38 OFFCURVE",
"225 38 OFFCURVE",
"225 38 CURVE",
"225 38 OFFCURVE",
"226 38 OFFCURVE",
"224 38 CURVE",
"147 38 OFFCURVE",
"87 101 OFFCURVE",
"87 174 CURVE",
"87 174 OFFCURVE",
"87 174 OFFCURVE",
"87 174 CURVE",
"354 292 LINE",
"320 324 OFFCURVE",
"271 350 OFFCURVE",
"227 350 CURVE",
"227 350 LINE",
"227 350 OFFCURVE",
"227 350 OFFCURVE",
"227 350 CURVE",
"-19 350 OFFCURVE",
"3 0 OFFCURVE",
"225 0 CURVE",
"225 0 OFFCURVE",
"225 0 OFFCURVE",
"226 0 CURVE",
"227 0 OFFCURVE",
"226 0 OFFCURVE",
"227 0 CURVE",
"339 0 OFFCURVE",
"401 96 OFFCURVE",
"401 174 CURVE"
);
},
{
closed = 1;
nodes = (
"87 207 LINE",
"132 329 OFFCURVE",
"229 331 OFFCURVE",
"297 300 CURVE"
);
}
);
width = 451;
}
);
unicode = 00EB;
},
{
glyphname = edotaccent;
lastChange = "2020-05-14 10:50:49 +0000";
layers = (
{
layerId = "5C2A42EC-7958-4198-96CC-2E1007E4AFAD";
paths = (
{
closed = 1;
nodes = (
"260 457 OFFCURVE",
"245 442 OFFCURVE",
"227 442 CURVE",
"208 442 OFFCURVE",
"193 457 OFFCURVE",
"193 476 CURVE",
"193 494 OFFCURVE",
"208 509 OFFCURVE",
"227 509 CURVE",
"245 509 OFFCURVE",
"260 494 OFFCURVE",
"260 476 CURVE"
);
},
{
closed = 1;
nodes = (
"401 174 OFFCURVE",
"401 174 OFFCURVE",
"401 175 CURVE",
"366 175 LINE",
"366 174 OFFCURVE",
"366 174 OFFCURVE",
"366 174 CURVE",
"366 96 OFFCURVE",
"289 38 OFFCURVE",
"227 38 CURVE",
"225 38 OFFCURVE",
"225 38 OFFCURVE",
"225 38 CURVE",
"225 38 OFFCURVE",
"226 38 OFFCURVE",
"224 38 CURVE",
"147 38 OFFCURVE",
"87 101 OFFCURVE",
"87 174 CURVE",
"87 174 OFFCURVE",
"87 174 OFFCURVE",
"87 174 CURVE",
"354 292 LINE",
"320 324 OFFCURVE",
"271 350 OFFCURVE",
"227 350 CURVE",
"227 350 LINE",
"227 350 OFFCURVE",
"227 350 OFFCURVE",
"227 350 CURVE",
"-19 350 OFFCURVE",
"3 0 OFFCURVE",
"225 0 CURVE",
"225 0 OFFCURVE",
"225 0 OFFCURVE",
"226 0 CURVE",
"227 0 OFFCURVE",
"226 0 OFFCURVE",
"227 0 CURVE",
"339 0 OFFCURVE",
"401 96 OFFCURVE",
"401 174 CURVE"
);
},
{
closed = 1;
nodes = (
"87 207 LINE",
"132 329 OFFCURVE",
"229 331 OFFCURVE",
"297 300 CURVE"
);
}
);
width = 451;
}
);
unicode = 0117;
},
{
glyphname = egrave;
lastChange = "2020-05-14 10:51:00 +0000";
layers = (
{
layerId = "5C2A42EC-7958-4198-96CC-2E1007E4AFAD";
paths = (
{
closed = 1;
nodes = (
"243 442 LINE",
"204 611 LINE",
"160 611 LINE",
"209 442 LINE"
);
},
{
closed = 1;
nodes = (
"401 174 OFFCURVE",
"401 174 OFFCURVE",
"401 175 CURVE",
"366 175 LINE",
"366 174 OFFCURVE",
"366 174 OFFCURVE",
"366 174 CURVE",
"366 96 OFFCURVE",
"289 38 OFFCURVE",
"227 38 CURVE",
"225 38 OFFCURVE",
"225 38 OFFCURVE",
"225 38 CURVE",
"225 38 OFFCURVE",
"226 38 OFFCURVE",
"224 38 CURVE",
"147 38 OFFCURVE",
"87 101 OFFCURVE",
"87 174 CURVE",
"87 174 OFFCURVE",
"87 174 OFFCURVE",
"87 174 CURVE",
"354 292 LINE",
"320 324 OFFCURVE",
"271 350 OFFCURVE",
"227 350 CURVE",
"227 350 LINE",
"227 350 OFFCURVE",
"227 350 OFFCURVE",
"227 350 CURVE",
"-19 350 OFFCURVE",
"3 0 OFFCURVE",
"225 0 CURVE",
"225 0 OFFCURVE",
"225 0 OFFCURVE",
"226 0 CURVE",
"227 0 OFFCURVE",
"226 0 OFFCURVE",
"227 0 CURVE",
"339 0 OFFCURVE",
"401 96 OFFCURVE",
"401 174 CURVE"
);
},
{
closed = 1;
nodes = (
"87 207 LINE",
"132 329 OFFCURVE",
"229 331 OFFCURVE",
"297 300 CURVE"
);
}
);
width = 451;
}
);
unicode = 00E8;
},
{
glyphname = emacron;
lastChange = "2020-05-14 10:51:12 +0000";
layers = (
{
layerId = "5C2A42EC-7958-4198-96CC-2E1007E4AFAD";
paths = (
{
closed = 1;
nodes = (
"311 471 LINE",
"136 471 LINE",
"136 442 LINE",
"311 442 LINE"
);
},
{
closed = 1;
nodes = (
"401 174 OFFCURVE",
"401 174 OFFCURVE",
"401 175 CURVE",
"366 175 LINE",
"366 174 OFFCURVE",
"366 174 OFFCURVE",
"366 174 CURVE",
"366 96 OFFCURVE",
"289 38 OFFCURVE",
"227 38 CURVE",
"225 38 OFFCURVE",
"225 38 OFFCURVE",
"225 38 CURVE",
"225 38 OFFCURVE",
"226 38 OFFCURVE",
"224 38 CURVE",
"147 38 OFFCURVE",
"87 101 OFFCURVE",
"87 174 CURVE",
"87 174 OFFCURVE",
"87 174 OFFCURVE",
"87 174 CURVE",
"354 292 LINE",
"320 324 OFFCURVE",
"271 350 OFFCURVE",
"227 350 CURVE",
"227 350 LINE",
"227 350 OFFCURVE",
"227 350 OFFCURVE",
"227 350 CURVE",
"-19 350 OFFCURVE",
"3 0 OFFCURVE",
"225 0 CURVE",
"225 0 OFFCURVE",
"225 0 OFFCURVE",
"226 0 CURVE",
"227 0 OFFCURVE",
"226 0 OFFCURVE",
"227 0 CURVE",
"339 0 OFFCURVE",
"401 96 OFFCURVE",
"401 174 CURVE"
);
},
{
closed = 1;
nodes = (
"87 207 LINE",
"132 329 OFFCURVE",
"229 331 OFFCURVE",
"297 300 CURVE"
);
}
);
width = 451;
}
);
unicode = 0113;
},
{
glyphname = eogonek;
lastChange = "2020-05-14 10:51:58 +0000";
layers = (
{
layerId = "5C2A42EC-7958-4198-96CC-2E1007E4AFAD";
paths = (
{
closed = 1;
nodes = (
"354 292 LINE",
"320 324 OFFCURVE",
"271 350 OFFCURVE",
"227 350 CURVE",
"227 350 LINE",
"-13 350 OFFCURVE",
"2 16 OFFCURVE",
"210 1 CURVE",
"211 0 LINE",
"198 -13 OFFCURVE",
"185 -38 OFFCURVE",
"190 -67 CURVE SMOOTH",
"204 -146 OFFCURVE",
"270 -116 OFFCURVE",
"284 -103 CURVE",
"284 -76 LINE",
"284 -76 OFFCURVE",
"237 -105 OFFCURVE",
"228 -66 CURVE SMOOTH",
"222 -42 OFFCURVE",
"230 -17 OFFCURVE",
"244 1 CURVE",
"345 10 OFFCURVE",
"401 100 OFFCURVE",
"401 174 CURVE SMOOTH",
"401 175 LINE",
"366 175 LINE",
"366 174 LINE SMOOTH",
"366 96 OFFCURVE",
"289 38 OFFCURVE",
"227 38 CURVE SMOOTH",
"225 38 OFFCURVE",
"225 38 OFFCURVE",
"225 38 CURVE",
"224 38 LINE SMOOTH",
"147 38 OFFCURVE",
"87 101 OFFCURVE",
"87 174 CURVE"
);
},
{
closed = 1;
nodes = (
"132 329 OFFCURVE",
"229 331 OFFCURVE",
"297 300 CURVE",
"87 207 LINE"
);
}
);
width = 451;
}
);
unicode = 0119;
},
{
glyphname = f;
lastChange = "2020-04-15 20:40:35 +0000";
layers = (
{
layerId = "5C2A42EC-7958-4198-96CC-2E1007E4AFAD";
paths = (
{
closed = 1;
nodes = (
"155 265 LINE",
"155 341 LINE",
"225 372 LINE",
"225 407 LINE",
"225 407 LINE",
"155 376 LINE",
"155 384 LINE",
"155 411 LINE",
"155 462 LINE",
"155 514 LINE",
"155 514 LINE",
"155 543 LINE",
"155 543 LINE",
"155 606 LINE",
"155 606 LINE",
"155 606 OFFCURVE",
"155 606 OFFCURVE",
"155 607 CURVE",
"155 640 OFFCURVE",
"182 667 OFFCURVE",
"215 667 CURVE",
"215 700 LINE",
"163 700 OFFCURVE",
"121 659 OFFCURVE",
"121 607 CURVE",
"121 606 OFFCURVE",
"121 606 OFFCURVE",
"121 606 CURVE",
"121 361 LINE",
"50 330 LINE",
"50 294 LINE",
"50 294 LINE",
"121 326 LINE",
"121 241 LINE",
"121 242 OFFCURVE",
"121 242 OFFCURVE",
"121 242 CURVE",
"121 129 LINE",
"122 83 OFFCURVE",
"107 36 OFFCURVE",
"57 0 CURVE SMOOTH",
"57 0 LINE",
"100 0 LINE",
"140 34 OFFCURVE",
"152 73 OFFCURVE",
"155 112 CURVE",
"155 112 LINE",
"155 116 LINE",
"155 122 OFFCURVE",
"155 127 OFFCURVE",
"155 133 CURVE",
"155 140 LINE",
"155 239 LINE"
);
}
);
width = 275;
}
);
unicode = 0066;
},
{
glyphname = g;
lastChange = "2020-04-15 21:06:43 +0000";
layers = (
{
layerId = "5C2A42EC-7958-4198-96CC-2E1007E4AFAD";
paths = (
{
closed = 1;
nodes = (
"401 170 OFFCURVE",
"401 172 OFFCURVE",
"401 175 CURVE",
"369 175 LINE",
"369 95 OFFCURVE",
"306 35 OFFCURVE",
"226 35 CURVE",
"146 35 OFFCURVE",
"84 98 OFFCURVE",
"84 179 CURVE",
"84 259 OFFCURVE",
"146 317 OFFCURVE",
"226 317 CURVE",
"226 317 OFFCURVE",
"226 321 OFFCURVE",
"226 321 CURVE",
"226 350 LINE",
"226 350 OFFCURVE",
"226 350 OFFCURVE",
"226 350 CURVE",
"129 350 OFFCURVE",
"51 272 OFFCURVE",
"51 175 CURVE",
"51 79 OFFCURVE",
"129 1 OFFCURVE",
"226 1 CURVE",
"285 1 OFFCURVE",
"337 30 OFFCURVE",
"369 74 CURVE",
"369 64 LINE",
"369 -56 LINE",
"369 -82 LINE",
"369 -167 LINE",
"369 -167 LINE",
"369 -168 OFFCURVE",
"369 -168 OFFCURVE",
"369 -168 CURVE",
"369 -252 OFFCURVE",
"302 -318 OFFCURVE",
"218 -318 CURVE",
"135 -318 OFFCURVE",
"84 -250 OFFCURVE",
"84 -167 CURVE",
"50 -167 LINE",
"50 -268 OFFCURVE",
"118 -349 OFFCURVE",
"218 -349 CURVE",
"319 -349 OFFCURVE",
"400 -268 OFFCURVE",
"401 -167 CURVE",
"401 -167 LINE",
"401 167 LINE"
);
}
);
width = 451;
}
);
unicode = 0067;
},
{
glyphname = h;
lastChange = "2020-05-20 16:33:16 +0000";
layers = (
{
layerId = "5C2A42EC-7958-4198-96CC-2E1007E4AFAD";
paths = (
{
closed = 1;
nodes = (
"143 350 OFFCURVE",
"107 329 OFFCURVE",
"83 295 CURVE",
"83 316 LINE",
"83 515 LINE",
"83 558 LINE",
"83 700 LINE",
"49 700 LINE",
"49 241 LINE",
"49 241 OFFCURVE",
"49 241 OFFCURVE",
"49 241 CURVE",
"49 129 LINE",
"50 82 OFFCURVE",
"34 36 OFFCURVE",
"0 1 CURVE",
"1 0 LINE",
"44 0 LINE",
"72 39 OFFCURVE",
"85 86 OFFCURVE",
"83 133 CURVE",
"83 133 LINE",
"83 178 LINE",
"86 257 OFFCURVE",
"115 316 OFFCURVE",
"195 316 CURVE",
"276 316 OFFCURVE",
"309 254 OFFCURVE",
"313 174 CURVE",
"313 -1 LINE",
"347 -1 LINE",
"347 59 LINE",
"347 85 LINE",
"347 174 LINE",
"343 271 OFFCURVE",
"292 350 OFFCURVE",
"194 350 CURVE"
);
}
);
width = 397;
}
);
unicode = 0068;
},
{
glyphname = i;
lastChange = "2020-05-14 05:06:33 +0000";
layers = (
{
layerId = "5C2A42EC-7958-4198-96CC-2E1007E4AFAD";
paths = (
{
closed = 1;
nodes = (
"97 528 LINE",
"97 494 LINE",
"131 494 LINE",
"131 528 LINE"
);
},
{
closed = 1;
nodes = (
"131 350 LINE",
"97 350 LINE",
"97 242 LINE",
"97 129 LINE",
"97 120 LINE",
"96 77 OFFCURVE",
"81 33 OFFCURVE",
"50 0 CURVE",
"50 0 LINE",
"93 0 LINE",
"121 40 OFFCURVE",
"134 88 OFFCURVE",
"131 136 CURVE"
);
}
);
width = 181;
}
);
unicode = 0069;
},
{
glyphname = iacute;
lastChange = "2020-05-14 05:29:24 +0000";
layers = (
{
layerId = "5C2A42EC-7958-4198-96CC-2E1007E4AFAD";
paths = (
{
closed = 1;
nodes = (
"131 350 LINE",
"97 350 LINE",
"97 242 LINE",
"97 129 LINE",
"97 120 LINE",
"96 77 OFFCURVE",
"81 33 OFFCURVE",
"50 0 CURVE",
"50 0 LINE",
"93 0 LINE",
"121 40 OFFCURVE",
"134 88 OFFCURVE",
"131 136 CURVE"
);
},
{
closed = 1;
nodes = (
"99 442 LINE",
"138 611 LINE",
"182 611 LINE",
"133 442 LINE"
);
}
);
width = 232;
}
);
unicode = 00ED;
},
{
glyphname = icircumflex;
lastChange = "2020-05-14 05:31:14 +0000";
layers = (
{
layerId = "5C2A42EC-7958-4198-96CC-2E1007E4AFAD";
paths = (
{
closed = 1;
nodes = (
"173 350 LINE",
"139 350 LINE",
"139 242 LINE",
"139 129 LINE",
"139 120 LINE",
"138 77 OFFCURVE",
"123 33 OFFCURVE",
"92 0 CURVE",
"92 0 LINE",
"135 0 LINE",
"163 40 OFFCURVE",
"176 88 OFFCURVE",
"173 136 CURVE"
);
},
{
closed = 1;
nodes = (
"178 590 LINE",
"156 590 LINE",
"134 590 LINE",
"50 442 LINE",
"91 442 LINE",
"156 557 LINE",
"221 442 LINE",
"262 442 LINE"
);
}
);
width = 312;
}
);
unicode = 00EE;
},
{
glyphname = idieresis;
lastChange = "2020-05-14 05:30:12 +0000";
layers = (
{
layerId = "5C2A42EC-7958-4198-96CC-2E1007E4AFAD";
paths = (
{
closed = 1;
nodes = (
"191 350 LINE",
"157 350 LINE",
"157 242 LINE",
"157 129 LINE",
"157 120 LINE",
"156 77 OFFCURVE",
"141 33 OFFCURVE",
"110 0 CURVE",
"110 0 LINE",
"153 0 LINE",
"181 40 OFFCURVE",
"194 88 OFFCURVE",
"191 136 CURVE"
);
},
{
closed = 1;
nodes = (
"119 457 OFFCURVE",
"104 442 OFFCURVE",
"86 442 CURVE",
"67 442 OFFCURVE",
"52 457 OFFCURVE",
"52 476 CURVE",
"52 494 OFFCURVE",
"67 509 OFFCURVE",
"86 509 CURVE",
"104 509 OFFCURVE",
"119 494 OFFCURVE",
"119 476 CURVE"
);
},
{
closed = 1;
nodes = (
"297 457 OFFCURVE",
"282 442 OFFCURVE",
"264 442 CURVE",
"245 442 OFFCURVE",
"230 457 OFFCURVE",
"230 476 CURVE",
"230 494 OFFCURVE",
"245 509 OFFCURVE",
"264 509 CURVE",
"282 509 OFFCURVE",
"297 494 OFFCURVE",
"297 476 CURVE"
);
}
);
width = 345;
}
);
unicode = 00EF;
},
{
glyphname = igrave;
lastChange = "2020-05-14 05:32:03 +0000";
layers = (
{
layerId = "5C2A42EC-7958-4198-96CC-2E1007E4AFAD";
paths = (
{
closed = 1;
nodes = (
"131 350 LINE",
"97 350 LINE",
"97 242 LINE",
"97 129 LINE",
"97 120 LINE",
"96 77 OFFCURVE",
"81 33 OFFCURVE",
"50 0 CURVE",
"50 0 LINE",
"93 0 LINE",
"121 40 OFFCURVE",
"134 88 OFFCURVE",
"131 136 CURVE"
);
},
{
closed = 1;
nodes = (
"133 442 LINE",
"94 611 LINE",
"50 611 LINE",
"99 442 LINE"
);
}
);
width = 183;
}
);
unicode = 00EC;
},
{
glyphname = imacron;
lastChange = "2020-05-14 05:42:40 +0000";
layers = (
{
layerId = "5C2A42EC-7958-4198-96CC-2E1007E4AFAD";
paths = (
{
closed = 1;
nodes = (
"154 350 LINE",
"120 350 LINE",
"120 242 LINE",
"120 129 LINE",
"120 120 LINE",
"119 77 OFFCURVE",
"104 33 OFFCURVE",
"73 0 CURVE",
"73 0 LINE",
"116 0 LINE",
"144 40 OFFCURVE",
"157 88 OFFCURVE",
"154 136 CURVE"
);
},
{
closed = 1;
nodes = (
"225 471 LINE",
"50 471 LINE",
"50 442 LINE",
"225 442 LINE"
);
}
);
width = 275;
}
);
unicode = 012B;
},
{
glyphname = iogonek;
lastChange = "2020-05-14 06:40:30 +0000";
layers = (
{
layerId = "5C2A42EC-7958-4198-96CC-2E1007E4AFAD";
paths = (
{
closed = 1;
nodes = (
"65 -146 OFFCURVE",
"132 -125 OFFCURVE",
"151 -114 CURVE",
"151 -86 LINE",
"151 -86 OFFCURVE",
"107 -105 OFFCURVE",
"98 -66 CURVE",
"93 -28 OFFCURVE",
"114 -10 OFFCURVE",
"121 0 CURVE",
"149 40 OFFCURVE",
"162 88 OFFCURVE",
"159 136 CURVE",
"159 350 LINE",
"125 350 LINE",
"125 120 LINE SMOOTH",
"124 77 OFFCURVE",
"109 33 OFFCURVE",
"78 0 CURVE SMOOTH",
"64 -13 OFFCURVE",
"51 -34 OFFCURVE",
"55 -67 CURVE SMOOTH"
);
},
{
closed = 1;
nodes = (
"159 494 LINE",
"159 528 LINE",
"125 528 LINE",
"125 494 LINE"
);
}
);
width = 209;
}
);
unicode = 012F;
},
{
glyphname = j;
lastChange = "2020-04-15 20:41:01 +0000";
layers = (
{
layerId = "5C2A42EC-7958-4198-96CC-2E1007E4AFAD";
paths = (
{
closed = 1;
nodes = (
"196 491 LINE",
"230 491 LINE",
"230 525 LINE",
"196 525 LINE"
);
},
{
closed = 1;
nodes = (
"191 332 LINE",
"191 332 LINE",
"50 270 LINE",
"50 234 LINE",
"197 299 LINE",
"197 159 LINE",
"197 105 LINE",
"197 56 LINE",
"197 -71 LINE",
"197 -159 LINE",
"197 -176 LINE",
"196 -193 LINE",
"196 -203 OFFCURVE",
"194 -213 OFFCURVE",
"182 -237 CURVE",
"182 -238 LINE",
"158 -285 OFFCURVE",
"108 -317 OFFCURVE",
"50 -318 CURVE",
"50 -350 LINE",
"100 -350 OFFCURVE",
"146 -330 OFFCURVE",
"178 -299 CURVE",
"178 -298 LINE",
"178 -298 OFFCURVE",
"226 -248 OFFCURVE",
"228 -193 CURVE",
"228 -193 OFFCURVE",
"229 -191 OFFCURVE",
"229 -188 CURVE",
"229 -183 OFFCURVE",
"229 -178 OFFCURVE",
"229 -172 CURVE",
"229 -163 LINE",
"229 -112 LINE",
"229 56 LINE",
"229 64 LINE",
"229 174 LINE",
"229 350 LINE",
"197 335 LINE"
);
}
);
width = 280;
}
);
unicode = 006A;
},
{
glyphname = k;
lastChange = "2020-04-15 20:41:06 +0000";
layers = (
{
layerId = "5C2A42EC-7958-4198-96CC-2E1007E4AFAD";
paths = (
{
closed = 1;
nodes = (
"168 146 LINE",
"341 350 LINE",
"300 350 LINE",
"144 166 LINE",
"132 176 LINE",
"132 271 LINE",
"132 314 LINE",
"132 514 LINE",
"132 557 LINE",
"132 700 LINE",
"98 700 LINE",
"98 241 LINE",
"98 241 OFFCURVE",
"98 241 OFFCURVE",
"98 241 CURVE",
"98 129 LINE",
"99 83 OFFCURVE",
"84 35 OFFCURVE",
"50 0 CURVE SMOOTH",
"50 0 LINE",
"93 0 LINE",
"120 38 OFFCURVE",
"133 83 OFFCURVE",
"132 129 CURVE",
"132 129 LINE",
"132 132 LINE",
"294 0 LINE",
"346 0 LINE"
);
}
);
width = 396;
}
);
unicode = 006B;
},
{
glyphname = l;
lastChange = "2020-05-20 16:35:56 +0000";
layers = (
{
layerId = "5C2A42EC-7958-4198-96CC-2E1007E4AFAD";
paths = (
{
closed = 1;
nodes = (
"84 117 LINE",
"84 700 LINE",
"50 700 LINE",
"50 555 LINE",
"50 510 LINE",
"50 306 LINE",
"50 263 LINE",
"50 117 LINE",
"50 117 LINE",
"51 76 OFFCURVE",
"64 35 OFFCURVE",
"88 0 CURVE",
"130 0 LINE",
"130 0 LINE SMOOTH",
"99 35 OFFCURVE",
"85 75 OFFCURVE",
"84 117 CURVE"
);
}
);
width = 180;
}
);
unicode = 006C;
},
{
glyphname = lslash;
lastChange = "2020-05-14 05:35:36 +0000";
layers = (
{
layerId = "5C2A42EC-7958-4198-96CC-2E1007E4AFAD";
paths = (
{
closed = 1;
nodes = (
"102 323 LINE",
"102 117 LINE SMOOTH",
"103 76 OFFCURVE",
"116 35 OFFCURVE",
"140 0 CURVE",
"182 0 LINE",
"151 35 OFFCURVE",
"137 75 OFFCURVE",
"136 117 CURVE SMOOTH",
"136 348 LINE",
"188 387 LINE",
"188 431 LINE",
"136 391 LINE",
"136 700 LINE",
"102 700 LINE",
"102 365 LINE",
"50 325 LINE",
"50 284 LINE"
);
}
);
width = 238;
}
);
unicode = 0142;
},
{
glyphname = m;
lastChange = "2020-04-15 20:46:54 +0000";
layers = (
{
layerId = "5C2A42EC-7958-4198-96CC-2E1007E4AFAD";
paths = (
{
closed = 1;
nodes = (
"465 306 OFFCURVE",
"420 350 OFFCURVE",
"365 350 CURVE SMOOTH",
"330 350 OFFCURVE",
"299 333 OFFCURVE",
"281 306 CURVE",
"263 333 OFFCURVE",
"233 350 OFFCURVE",
"198 350 CURVE",
"172 350 OFFCURVE",
"149 341 OFFCURVE",
"131 326 CURVE",
"131 350 LINE",
"97 350 LINE",
"97 242 LINE",
"97 242 OFFCURVE",
"97 242 OFFCURVE",
"97 243 CURVE",
"97 130 LINE",
"98 84 OFFCURVE",
"84 39 OFFCURVE",
"50 0 CURVE SMOOTH",
"50 0 LINE",
"91 0 LINE",
"119 39 OFFCURVE",
"133 87 OFFCURVE",
"131 134 CURVE",
"131 134 LINE",
"131 188 LINE",
"131 204 LINE",
"131 250 LINE",
"132 250 LINE",
"132 250 OFFCURVE",
"132 250 OFFCURVE",
"132 250 CURVE",
"132 287 OFFCURVE",
"161 317 OFFCURVE",
"198 317 CURVE",
"235 317 OFFCURVE",
"264 287 OFFCURVE",
"264 250 CURVE",
"264 250 OFFCURVE",
"264 250 OFFCURVE",
"264 250 CURVE",
"264 250 LINE",
"298 250 LINE",
"299 250 LINE",
"299 250 OFFCURVE",
"299 250 OFFCURVE",
"299 250 CURVE",
"299 287 OFFCURVE",
"328 317 OFFCURVE",
"365 317 CURVE",
"401 317 OFFCURVE",
"431 287 OFFCURVE",
"431 251 CURVE",
"431 251 LINE",
"431 0 LINE",
"465 0 LINE",
"465 82 LINE",
"465 118 LINE",
"465 250 LINE",
"465 250 LINE",
"465 250 OFFCURVE",
"465 250 OFFCURVE",
"465 250 CURVE"
);
}
);
width = 515;
}
);
unicode = 006D;
},
{
glyphname = n;
lastChange = "2020-04-15 21:05:49 +0000";
layers = (
{
layerId = "5C2A42EC-7958-4198-96CC-2E1007E4AFAD";
paths = (
{
closed = 1;
nodes = (
"193 350 OFFCURVE",
"156 330 OFFCURVE",
"133 297 CURVE",
"133 297 LINE",
"133 350 LINE",
"99 350 LINE",
"99 242 LINE",
"99 242 OFFCURVE",
"99 243 OFFCURVE",
"98 243 CURVE",
"98 130 LINE",
"100 84 OFFCURVE",
"83 40 OFFCURVE",
"50 0 CURVE",
"50 0 LINE",
"93 0 LINE",
"121 40 OFFCURVE",
"134 88 OFFCURVE",
"133 134 CURVE",
"133 134 LINE",
"133 180 LINE",
"135 258 OFFCURVE",
"165 317 OFFCURVE",
"245 317 CURVE",
"326 317 OFFCURVE",
"359 256 OFFCURVE",
"363 175 CURVE",
"363 0 LINE",
"397 0 LINE",
"397 60 LINE",
"397 87 LINE",
"397 175 LINE",
"393 273 OFFCURVE",
"342 350 OFFCURVE",
"244 350 CURVE"
);
}
);
width = 447;
}
);
unicode = 006E;
},
{
glyphname = nacute;
lastChange = "2020-05-14 05:16:12 +0000";
layers = (
{
layerId = "5C2A42EC-7958-4198-96CC-2E1007E4AFAD";
paths = (
{
closed = 1;
nodes = (
"193 350 OFFCURVE",
"156 330 OFFCURVE",
"133 297 CURVE",
"133 297 LINE",
"133 350 LINE",
"99 350 LINE",
"99 242 LINE",
"99 242 OFFCURVE",
"99 243 OFFCURVE",
"98 243 CURVE",
"98 130 LINE",
"100 84 OFFCURVE",
"83 40 OFFCURVE",
"50 0 CURVE",
"50 0 LINE",
"93 0 LINE",
"121 40 OFFCURVE",
"134 88 OFFCURVE",
"133 134 CURVE",
"133 134 LINE",
"133 180 LINE",
"135 258 OFFCURVE",
"165 317 OFFCURVE",
"245 317 CURVE",
"326 317 OFFCURVE",
"359 256 OFFCURVE",
"363 175 CURVE",
"363 0 LINE",
"397 0 LINE",
"397 60 LINE",
"397 87 LINE",
"397 175 LINE",
"393 273 OFFCURVE",
"342 350 OFFCURVE",
"244 350 CURVE"
);
},
{
closed = 1;
nodes = (
"226 442 LINE",
"265 611 LINE",
"309 611 LINE",
"260 442 LINE"
);
}
);
width = 447;
}
);
unicode = 0144;
},
{
glyphname = ntilde;
lastChange = "2020-05-14 05:20:44 +0000";
layers = (
{
layerId = "5C2A42EC-7958-4198-96CC-2E1007E4AFAD";
paths = (
{
closed = 1;
nodes = (
"193 350 OFFCURVE",
"156 330 OFFCURVE",
"133 297 CURVE",
"133 297 LINE",
"133 350 LINE",
"99 350 LINE",
"99 242 LINE",
"99 242 OFFCURVE",
"99 243 OFFCURVE",
"98 243 CURVE",
"98 130 LINE",
"100 84 OFFCURVE",
"83 40 OFFCURVE",
"50 0 CURVE",
"50 0 LINE",
"93 0 LINE",
"121 40 OFFCURVE",
"134 88 OFFCURVE",
"133 134 CURVE",
"133 134 LINE",
"133 180 LINE",
"135 258 OFFCURVE",
"165 317 OFFCURVE",
"245 317 CURVE",
"326 317 OFFCURVE",
"359 256 OFFCURVE",
"363 175 CURVE",
"363 0 LINE",
"397 0 LINE",
"397 60 LINE",
"397 87 LINE",
"397 175 LINE",
"393 273 OFFCURVE",
"342 350 OFFCURVE",
"244 350 CURVE"
);
},
{
closed = 1;
nodes = (
"344 497 OFFCURVE",
"326 478 OFFCURVE",
"305 478 CURVE",
"303 478 OFFCURVE",
"305 478 OFFCURVE",
"302 478 CURVE",
"302 478 LINE",
"296 478 OFFCURVE",
"282 485 OFFCURVE",
"278 487 CURVE",
"255 499 OFFCURVE",
"213 518 OFFCURVE",
"187 518 CURVE",
"186 518 LINE",
"146 518 OFFCURVE",
"116 487 OFFCURVE",
"116 447 CURVE",
"116 445 OFFCURVE",
"116 444 OFFCURVE",
"116 442 CURVE",
"149 442 LINE",
"149 444 OFFCURVE",
"149 445 OFFCURVE",
"149 447 CURVE",
"149 468 OFFCURVE",
"166 485 OFFCURVE",
"187 485 CURVE",
"188 485 LINE",
"188 485 OFFCURVE",
"204 486 OFFCURVE",
"240 470 CURVE SMOOTH",
"251 465 LINE",
"251 465 LINE",
"251 465 LINE",
"261 460 OFFCURVE",
"263 459 OFFCURVE",
"276 453 CURVE",
"281 451 OFFCURVE",
"285 449 OFFCURVE",
"291 447 CURVE",
"296 445 OFFCURVE",
"303 445 OFFCURVE",
"302 445 CURVE",
"302 445 LINE",
"302 445 LINE",
"302 445 LINE",
"303 445 OFFCURVE",
"300 445 OFFCURVE",
"302 445 CURVE",
"341 445 OFFCURVE",
"377 479 OFFCURVE",
"377 518 CURVE",
"344 518 LINE"
);
}
);
width = 447;
}
);
unicode = 00F1;
},
{
glyphname = o;
lastChange = "2020-04-15 21:23:25 +0000";
layers = (
{
layerId = "5C2A42EC-7958-4198-96CC-2E1007E4AFAD";
paths = (
{
closed = 1;
nodes = (
"128 350 OFFCURVE",
"50 272 OFFCURVE",
"50 175 CURVE",
"50 79 OFFCURVE",
"128 0 OFFCURVE",
"225 0 CURVE",
"322 0 OFFCURVE",
"400 79 OFFCURVE",
"400 175 CURVE",
"400 272 OFFCURVE",
"322 350 OFFCURVE",
"225 350 CURVE"
);
},
{
closed = 1;
nodes = (
"146 32 OFFCURVE",
"81 96 OFFCURVE",
"81 175 CURVE",
"81 254 OFFCURVE",
"146 319 OFFCURVE",
"225 319 CURVE",
"304 319 OFFCURVE",
"368 254 OFFCURVE",
"368 175 CURVE",
"368 96 OFFCURVE",
"304 32 OFFCURVE",
"225 32 CURVE"
);
}
);
width = 450;
}
);
unicode = 006F;
},
{
glyphname = oacute;
lastChange = "2020-05-14 05:16:40 +0000";
layers = (
{
layerId = "5C2A42EC-7958-4198-96CC-2E1007E4AFAD";
paths = (
{
closed = 1;
nodes = (
"128 350 OFFCURVE",
"50 272 OFFCURVE",
"50 175 CURVE",
"50 79 OFFCURVE",
"128 0 OFFCURVE",
"225 0 CURVE",
"322 0 OFFCURVE",
"400 79 OFFCURVE",
"400 175 CURVE",
"400 272 OFFCURVE",
"322 350 OFFCURVE",
"225 350 CURVE"
);
},
{
closed = 1;
nodes = (
"146 32 OFFCURVE",
"81 96 OFFCURVE",
"81 175 CURVE",
"81 254 OFFCURVE",
"146 319 OFFCURVE",
"225 319 CURVE",
"304 319 OFFCURVE",
"368 254 OFFCURVE",
"368 175 CURVE",
"368 96 OFFCURVE",
"304 32 OFFCURVE",
"225 32 CURVE"
);
},
{
closed = 1;
nodes = (
"209 442 LINE",
"248 611 LINE",
"292 611 LINE",
"243 442 LINE"
);
}
);
width = 450;
}
);
unicode = 00F3;
},
{
glyphname = ocircumflex;
lastChange = "2020-05-14 05:18:23 +0000";
layers = (
{
layerId = "5C2A42EC-7958-4198-96CC-2E1007E4AFAD";
paths = (
{
closed = 1;
nodes = (
"128 350 OFFCURVE",
"50 272 OFFCURVE",
"50 175 CURVE",
"50 79 OFFCURVE",
"128 0 OFFCURVE",
"225 0 CURVE",
"322 0 OFFCURVE",
"400 79 OFFCURVE",
"400 175 CURVE",
"400 272 OFFCURVE",
"322 350 OFFCURVE",
"225 350 CURVE"
);
},
{
closed = 1;
nodes = (
"146 32 OFFCURVE",
"81 96 OFFCURVE",
"81 175 CURVE",
"81 254 OFFCURVE",
"146 319 OFFCURVE",
"225 319 CURVE",
"304 319 OFFCURVE",
"368 254 OFFCURVE",
"368 175 CURVE",
"368 96 OFFCURVE",
"304 32 OFFCURVE",
"225 32 CURVE"
);
},
{
closed = 1;
nodes = (
"247 590 LINE",
"225 590 LINE",
"203 590 LINE",
"119 442 LINE",
"160 442 LINE",
"225 557 LINE",
"290 442 LINE",
"331 442 LINE"
);
}
);
width = 450;
}
);
unicode = 00F4;
},
{
glyphname = odieresis;
lastChange = "2020-05-14 05:17:36 +0000";
layers = (
{
layerId = "5C2A42EC-7958-4198-96CC-2E1007E4AFAD";
paths = (
{
closed = 1;
nodes = (
"128 350 OFFCURVE",
"50 272 OFFCURVE",
"50 175 CURVE",
"50 79 OFFCURVE",
"128 0 OFFCURVE",
"225 0 CURVE",
"322 0 OFFCURVE",
"400 79 OFFCURVE",
"400 175 CURVE",
"400 272 OFFCURVE",
"322 350 OFFCURVE",
"225 350 CURVE"
);
},
{
closed = 1;
nodes = (
"146 32 OFFCURVE",
"81 96 OFFCURVE",
"81 175 CURVE",
"81 254 OFFCURVE",
"146 319 OFFCURVE",
"225 319 CURVE",
"304 319 OFFCURVE",
"368 254 OFFCURVE",
"368 175 CURVE",
"368 96 OFFCURVE",
"304 32 OFFCURVE",
"225 32 CURVE"
);
},
{
closed = 1;
nodes = (
"170 457 OFFCURVE",
"155 442 OFFCURVE",
"137 442 CURVE",
"118 442 OFFCURVE",
"103 457 OFFCURVE",
"103 476 CURVE",
"103 494 OFFCURVE",
"118 509 OFFCURVE",
"137 509 CURVE",
"155 509 OFFCURVE",
"170 494 OFFCURVE",
"170 476 CURVE"
);
},
{
closed = 1;
nodes = (
"348 457 OFFCURVE",
"333 442 OFFCURVE",
"315 442 CURVE",
"296 442 OFFCURVE",
"281 457 OFFCURVE",
"281 476 CURVE",
"281 494 OFFCURVE",
"296 509 OFFCURVE",
"315 509 CURVE",
"333 509 OFFCURVE",
"348 494 OFFCURVE",
"348 476 CURVE"
);
}
);
width = 450;
}
);
unicode = 00F6;
},
{
glyphname = ograve;
lastChange = "2020-05-14 05:16:55 +0000";
layers = (
{
layerId = "5C2A42EC-7958-4198-96CC-2E1007E4AFAD";
paths = (
{
closed = 1;
nodes = (
"128 350 OFFCURVE",
"50 272 OFFCURVE",
"50 175 CURVE",
"50 79 OFFCURVE",
"128 0 OFFCURVE",
"225 0 CURVE",
"322 0 OFFCURVE",
"400 79 OFFCURVE",
"400 175 CURVE",
"400 272 OFFCURVE",
"322 350 OFFCURVE",
"225 350 CURVE"
);
},
{
closed = 1;
nodes = (
"146 32 OFFCURVE",
"81 96 OFFCURVE",
"81 175 CURVE",
"81 254 OFFCURVE",
"146 319 OFFCURVE",
"225 319 CURVE",
"304 319 OFFCURVE",
"368 254 OFFCURVE",
"368 175 CURVE",
"368 96 OFFCURVE",
"304 32 OFFCURVE",
"225 32 CURVE"
);
},
{
closed = 1;
nodes = (
"243 442 LINE",
"204 611 LINE",
"160 611 LINE",
"209 442 LINE"
);
}
);
width = 450;
}
);
unicode = 00F2;
},
{
glyphname = otilde;
lastChange = "2020-05-14 05:24:28 +0000";
layers = (
{
layerId = "5C2A42EC-7958-4198-96CC-2E1007E4AFAD";
paths = (
{
closed = 1;
nodes = (
"128 350 OFFCURVE",
"50 272 OFFCURVE",
"50 175 CURVE",
"50 79 OFFCURVE",
"128 0 OFFCURVE",
"225 0 CURVE",
"322 0 OFFCURVE",
"400 79 OFFCURVE",
"400 175 CURVE",
"400 272 OFFCURVE",
"322 350 OFFCURVE",
"225 350 CURVE"
);
},
{
closed = 1;
nodes = (
"146 32 OFFCURVE",
"81 96 OFFCURVE",
"81 175 CURVE",
"81 254 OFFCURVE",
"146 319 OFFCURVE",
"225 319 CURVE",
"304 319 OFFCURVE",
"368 254 OFFCURVE",
"368 175 CURVE",
"368 96 OFFCURVE",
"304 32 OFFCURVE",
"225 32 CURVE"
);
},
{
closed = 1;
nodes = (
"322 497 OFFCURVE",
"304 478 OFFCURVE",
"283 478 CURVE",
"281 478 OFFCURVE",
"283 478 OFFCURVE",
"280 478 CURVE",
"280 478 LINE",
"274 478 OFFCURVE",
"260 485 OFFCURVE",
"256 487 CURVE",
"233 499 OFFCURVE",
"191 518 OFFCURVE",
"165 518 CURVE",
"164 518 LINE",
"124 518 OFFCURVE",
"94 487 OFFCURVE",
"94 447 CURVE",
"94 445 OFFCURVE",
"94 444 OFFCURVE",
"94 442 CURVE",
"127 442 LINE",
"127 444 OFFCURVE",
"127 445 OFFCURVE",
"127 447 CURVE",
"127 468 OFFCURVE",
"144 485 OFFCURVE",
"165 485 CURVE",
"166 485 LINE",
"166 485 OFFCURVE",
"182 486 OFFCURVE",
"218 470 CURVE SMOOTH",
"229 465 LINE",
"229 465 LINE",
"229 465 LINE",
"239 460 OFFCURVE",
"241 459 OFFCURVE",
"254 453 CURVE",
"259 451 OFFCURVE",
"263 449 OFFCURVE",
"269 447 CURVE",
"274 445 OFFCURVE",
"281 445 OFFCURVE",
"280 445 CURVE",
"280 445 LINE",
"280 445 LINE",
"280 445 LINE",
"281 445 OFFCURVE",
"278 445 OFFCURVE",
"280 445 CURVE",
"319 445 OFFCURVE",
"355 479 OFFCURVE",
"355 518 CURVE",
"322 518 LINE"
);
}
);
width = 450;
}
);
unicode = 00F5;
},
{
glyphname = p;
lastChange = "2020-05-10 08:01:34 +0000";
layers = (
{
layerId = "5C2A42EC-7958-4198-96CC-2E1007E4AFAD";
paths = (
{
closed = 1;
nodes = (
"218 350 OFFCURVE",
"166 321 OFFCURVE",
"133 277 CURVE",
"133 350 LINE",
"99 350 LINE",
"99 -110 LINE",
"99 -221 LINE",
"101 -267 OFFCURVE",
"83 -311 OFFCURVE",
"50 -350 CURVE",
"52 -350 LINE",
"95 -350 LINE",
"122 -311 OFFCURVE",
"135 -264 OFFCURVE",
"133 -217 CURVE",
"133 -86 LINE",
"133 -43 LINE",
"133 160 LINE",
"133 174 LINE",
"134 174 LINE",
"134 255 OFFCURVE",
"196 318 OFFCURVE",
"276 318 CURVE",
"357 318 OFFCURVE",
"421 255 OFFCURVE",
"421 174 CURVE",
"421 93 OFFCURVE",
"357 33 OFFCURVE",
"276 33 CURVE",
"276 33 OFFCURVE",
"276 33 OFFCURVE",
"276 33 CURVE",
"276 -2 LINE",
"276 -2 OFFCURVE",
"276 0 OFFCURVE",
"276 0 CURVE",
"374 0 OFFCURVE",
"452 77 OFFCURVE",
"452 174 CURVE",
"452 271 OFFCURVE",
"374 350 OFFCURVE",
"276 350 CURVE"
);
}
);
width = 502;
}
);
unicode = 0070;
},
{
glyphname = q;
lastChange = "2020-04-15 21:07:27 +0000";
layers = (
{
layerId = "5C2A42EC-7958-4198-96CC-2E1007E4AFAD";
paths = (
{
closed = 1;
nodes = (
"403 -110 LINE",
"403 350 LINE",
"369 350 LINE",
"369 277 LINE",
"337 321 OFFCURVE",
"285 350 OFFCURVE",
"226 350 CURVE",
"129 350 OFFCURVE",
"50 271 OFFCURVE",
"50 174 CURVE",
"50 77 OFFCURVE",
"129 0 OFFCURVE",
"226 0 CURVE",
"227 0 OFFCURVE",
"227 -2 OFFCURVE",
"227 -2 CURVE",
"227 33 LINE",
"227 33 OFFCURVE",
"227 33 OFFCURVE",
"226 33 CURVE",
"146 33 OFFCURVE",
"82 93 OFFCURVE",
"82 174 CURVE",
"82 255 OFFCURVE",
"146 318 OFFCURVE",
"226 318 CURVE",
"307 318 OFFCURVE",
"369 255 OFFCURVE",
"369 174 CURVE",
"369 174 LINE",
"369 160 LINE",
"369 -43 LINE",
"369 -86 LINE",
"369 -217 LINE",
"368 -264 OFFCURVE",
"381 -311 OFFCURVE",
"408 -350 CURVE",
"451 -350 LINE",
"453 -350 LINE",
"420 -311 OFFCURVE",
"402 -267 OFFCURVE",
"404 -221 CURVE"
);
}
);
width = 503;
}
);
unicode = 0071;
},
{
glyphname = r;
lastChange = "2020-05-20 16:33:25 +0000";
layers = (
{
layerId = "5C2A42EC-7958-4198-96CC-2E1007E4AFAD";
paths = (
{
closed = 1;
nodes = (
"168 350 OFFCURVE",
"116 320 OFFCURVE",
"83 275 CURVE",
"83 279 LINE",
"83 296 LINE",
"83 350 LINE",
"49 350 LINE",
"49 241 LINE",
"49 241 OFFCURVE",
"49 241 OFFCURVE",
"49 241 CURVE",
"49 178 LINE",
"49 175 OFFCURVE",
"48 172 OFFCURVE",
"48 169 CURVE",
"48 166 OFFCURVE",
"49 163 OFFCURVE",
"49 160 CURVE",
"49 129 LINE",
"50 83 OFFCURVE",
"33 39 OFFCURVE",
"0 0 CURVE",
"1 0 LINE",
"44 0 LINE",
"72 39 OFFCURVE",
"85 86 OFFCURVE",
"83 133 CURVE",
"83 133 LINE",
"83 187 LINE",
"83 203 LINE",
"83 204 LINE",
"99 270 OFFCURVE",
"157 318 OFFCURVE",
"227 318 CURVE",
"230 318 OFFCURVE",
"233 318 OFFCURVE",
"235 318 CURVE",
"235 350 LINE",
"233 350 OFFCURVE",
"230 350 OFFCURVE",
"227 350 CURVE"
);
}
);
width = 285;
}
);
unicode = 0072;
},
{
glyphname = s;
lastChange = "2020-05-20 17:27:43 +0000";
layers = (
{
layerId = "5C2A42EC-7958-4198-96CC-2E1007E4AFAD";
paths = (
{
closed = 1;
nodes = (
"172 242 LINE",
"171 242 OFFCURVE",
"169 242 OFFCURVE",
"168 242 CURVE",
"147 242 OFFCURVE",
"130 258 OFFCURVE",
"130 279 CURVE",
"130 300 OFFCURVE",
"147 317 OFFCURVE",
"168 317 CURVE",
"189 317 OFFCURVE",
"206 300 OFFCURVE",
"206 279 CURVE",
"206 279 OFFCURVE",
"206 279 OFFCURVE",
"206 279 CURVE",
"239 279 LINE",
"239 279 OFFCURVE",
"239 279 OFFCURVE",
"239 279 CURVE",
"239 318 OFFCURVE",
"207 350 OFFCURVE",
"168 350 CURVE",
"129 350 OFFCURVE",
"97 318 OFFCURVE",
"97 279 CURVE",
"97 240 OFFCURVE",
"129 208 OFFCURVE",
"168 208 CURVE",
"169 208 OFFCURVE",
"171 208 OFFCURVE",
"172 208 CURVE",
"172 208 LINE",
"220 208 OFFCURVE",
"258 169 OFFCURVE",
"258 121 CURVE",
"258 73 OFFCURVE",
"219 33 OFFCURVE",
"171 33 CURVE",
"123 33 OFFCURVE",
"83 73 OFFCURVE",
"83 121 CURVE",
"50 121 LINE",
"50 54 OFFCURVE",
"104 0 OFFCURVE",
"171 0 CURVE",
"238 0 OFFCURVE",
"292 54 OFFCURVE",
"292 121 CURVE",
"292 187 OFFCURVE",
"238 241 OFFCURVE",
"172 242 CURVE"
);
}
);
width = 342;
}
);
unicode = 0073;
},
{
glyphname = sacute;
lastChange = "2020-05-14 05:22:03 +0000";
layers = (
{
layerId = "5C2A42EC-7958-4198-96CC-2E1007E4AFAD";
paths = (
{
closed = 1;
nodes = (
"172 242 LINE",
"171 242 OFFCURVE",
"169 242 OFFCURVE",
"168 242 CURVE",
"147 242 OFFCURVE",
"130 258 OFFCURVE",
"130 279 CURVE",
"130 300 OFFCURVE",
"147 317 OFFCURVE",
"168 317 CURVE",
"189 317 OFFCURVE",
"206 300 OFFCURVE",
"206 279 CURVE",
"206 279 OFFCURVE",
"206 279 OFFCURVE",
"206 279 CURVE",
"239 279 LINE",
"239 279 OFFCURVE",
"239 279 OFFCURVE",
"239 279 CURVE",
"239 318 OFFCURVE",
"207 350 OFFCURVE",
"168 350 CURVE",
"129 350 OFFCURVE",
"97 318 OFFCURVE",
"97 279 CURVE",
"97 240 OFFCURVE",
"129 208 OFFCURVE",
"168 208 CURVE",
"169 208 OFFCURVE",
"171 208 OFFCURVE",
"172 208 CURVE",
"172 208 LINE",
"220 208 OFFCURVE",
"258 169 OFFCURVE",
"258 121 CURVE",
"258 73 OFFCURVE",
"219 33 OFFCURVE",
"171 33 CURVE",
"123 33 OFFCURVE",
"83 73 OFFCURVE",
"83 121 CURVE",
"50 121 LINE",
"50 54 OFFCURVE",
"104 0 OFFCURVE",
"171 0 CURVE",
"238 0 OFFCURVE",
"292 54 OFFCURVE",
"292 121 CURVE",
"292 187 OFFCURVE",
"238 241 OFFCURVE",
"172 242 CURVE"
);
},
{
closed = 1;
nodes = (
"150 442 LINE",
"189 611 LINE",
"233 611 LINE",
"184 442 LINE"
);
}
);
width = 342;
}
);
unicode = 015B;
},
{
glyphname = scaron;
lastChange = "2020-05-14 05:27:53 +0000";
layers = (
{
layerId = "5C2A42EC-7958-4198-96CC-2E1007E4AFAD";
paths = (
{
closed = 1;
nodes = (
"172 242 LINE",
"171 242 OFFCURVE",
"169 242 OFFCURVE",
"168 242 CURVE",
"147 242 OFFCURVE",
"130 258 OFFCURVE",
"130 279 CURVE",
"130 300 OFFCURVE",
"147 317 OFFCURVE",
"168 317 CURVE",
"189 317 OFFCURVE",
"206 300 OFFCURVE",
"206 279 CURVE",
"206 279 OFFCURVE",
"206 279 OFFCURVE",
"206 279 CURVE",
"239 279 LINE",
"239 279 OFFCURVE",
"239 279 OFFCURVE",
"239 279 CURVE",
"239 318 OFFCURVE",
"207 350 OFFCURVE",
"168 350 CURVE",
"129 350 OFFCURVE",
"97 318 OFFCURVE",
"97 279 CURVE",
"97 240 OFFCURVE",
"129 208 OFFCURVE",
"168 208 CURVE",
"169 208 OFFCURVE",
"171 208 OFFCURVE",
"172 208 CURVE",
"172 208 LINE",
"220 208 OFFCURVE",
"258 169 OFFCURVE",
"258 121 CURVE",
"258 73 OFFCURVE",
"219 33 OFFCURVE",
"171 33 CURVE",
"123 33 OFFCURVE",
"83 73 OFFCURVE",
"83 121 CURVE",
"50 121 LINE",
"50 54 OFFCURVE",
"104 0 OFFCURVE",
"171 0 CURVE",
"238 0 OFFCURVE",
"292 54 OFFCURVE",
"292 121 CURVE",
"292 187 OFFCURVE",
"238 241 OFFCURVE",
"172 242 CURVE"
);
},
{
closed = 1;
nodes = (
"193 590 LINE",
"171 590 LINE",
"149 590 LINE",
"65 442 LINE",
"106 442 LINE",
"171 557 LINE",
"236 442 LINE",
"277 442 LINE"
);
}
);
width = 342;
}
);
unicode = 0161;
},
{
glyphname = germandbls;
lastChange = "2020-05-14 06:50:41 +0000";
layers = (
{
layerId = "5C2A42EC-7958-4198-96CC-2E1007E4AFAD";
paths = (
{
closed = 1;
nodes = (
"370 378 OFFCURVE",
"415 442 OFFCURVE",
"415 517 CURVE",
"415 618 OFFCURVE",
"334 700 OFFCURVE",
"233 700 CURVE",
"141 700 OFFCURVE",
"48 628 OFFCURVE",
"50 531 CURVE",
"50 522 LINE",
"50 458 LINE",
"50 0 LINE",
"84 0 LINE",
"84 152 LINE",
"84 197 LINE",
"84 320 LINE",
"84 409 LINE",
"84 455 LINE",
"84 522 LINE",
"86 604 OFFCURVE",
"152 666 OFFCURVE",
"233 666 CURVE",
"317 666 OFFCURVE",
"381 602 OFFCURVE",
"381 518 CURVE",
"381 434 OFFCURVE",
"317 367 OFFCURVE",
"234 367 CURVE",
"234 367 OFFCURVE",
"233 367 OFFCURVE",
"233 367 CURVE",
"233 333 LINE",
"233 333 OFFCURVE",
"233 333 OFFCURVE",
"233 333 CURVE",
"317 333 OFFCURVE",
"381 267 OFFCURVE",
"381 183 CURVE",
"381 99 OFFCURVE",
"316 34 OFFCURVE",
"233 34 CURVE",
"233 0 LINE",
"233 0 OFFCURVE",
"233 0 OFFCURVE",
"233 0 CURVE",
"334 0 OFFCURVE",
"415 82 OFFCURVE",
"415 183 CURVE",
"415 258 OFFCURVE",
"370 322 OFFCURVE",
"306 350 CURVE"
);
}
);
width = 465;
}
);
unicode = 00DF;
},
{
glyphname = t;
lastChange = "2020-05-20 16:35:00 +0000";
layers = (
{
layerId = "5C2A42EC-7958-4198-96CC-2E1007E4AFAD";
paths = (
{
closed = 1;
nodes = (
"144 145 LINE",
"144 343 LINE",
"215 375 LINE",
"215 410 LINE",
"215 410 LINE",
"144 379 LINE",
"144 514 LINE",
"144 543 LINE",
"144 700 LINE",
"110 700 LINE",
"110 606 LINE",
"110 606 LINE",
"110 364 LINE",
"40 333 LINE",
"40 297 LINE",
"40 297 LINE",
"110 328 LINE",
"110 140 LINE",
"110 126 LINE",
"110 126 LINE",
"110 82 OFFCURVE",
"123 38 OFFCURVE",
"149 0 CURVE",
"191 0 LINE",
"193 0 LINE",
"159 38 OFFCURVE",
"146 75 OFFCURVE",
"144 118 CURVE",
"144 140 LINE",
"144 145 LINE"
);
}
);
width = 265;
}
);
unicode = 0074;
},
{
glyphname = u;
lastChange = "2020-04-15 21:01:41 +0000";
layers = (
{
layerId = "5C2A42EC-7958-4198-96CC-2E1007E4AFAD";
paths = (
{
closed = 1;
nodes = (
"397 241 LINE",
"397 241 OFFCURVE",
"397 241 OFFCURVE",
"397 241 CURVE",
"397 350 LINE",
"362 350 LINE",
"361 167 LINE",
"361 167 LINE SMOOTH",
"361 167 OFFCURVE",
"364 167 OFFCURVE",
"361 167 CURVE",
"361 95 OFFCURVE",
"298 33 OFFCURVE",
"223 33 CURVE SMOOTH",
"148 33 OFFCURVE",
"85 95 OFFCURVE",
"85 167 CURVE SMOOTH",
"85 167 OFFCURVE",
"85 167 OFFCURVE",
"85 167 CURVE SMOOTH",
"85 167 LINE",
"85 350 LINE",
"50 350 LINE",
"50 167 LINE",
"50 167 LINE",
"50 167 OFFCURVE",
"50 167 OFFCURVE",
"50 167 CURVE",
"50 75 OFFCURVE",
"127 0 OFFCURVE",
"223 0 CURVE",
"282 0 OFFCURVE",
"334 31 OFFCURVE",
"366 75 CURVE SMOOTH",
"373 49 OFFCURVE",
"385 22 OFFCURVE",
"402 0 CURVE",
"446 0 LINE",
"446 0 LINE",
"423 22 OFFCURVE",
"395 82 OFFCURVE",
"397 129 CURVE"
);
}
);
width = 496;
}
);
unicode = 0075;
},
{
glyphname = uacute;
lastChange = "2020-05-14 05:19:08 +0000";
layers = (
{
layerId = "5C2A42EC-7958-4198-96CC-2E1007E4AFAD";
paths = (
{
closed = 1;
nodes = (
"397 241 LINE",
"397 241 OFFCURVE",
"397 241 OFFCURVE",
"397 241 CURVE",
"397 350 LINE",
"362 350 LINE",
"361 167 LINE",
"361 167 LINE SMOOTH",
"361 167 OFFCURVE",
"364 167 OFFCURVE",
"361 167 CURVE",
"361 95 OFFCURVE",
"298 33 OFFCURVE",
"223 33 CURVE SMOOTH",
"148 33 OFFCURVE",
"85 95 OFFCURVE",
"85 167 CURVE SMOOTH",
"85 167 OFFCURVE",
"85 167 OFFCURVE",
"85 167 CURVE SMOOTH",
"85 167 LINE",
"85 350 LINE",
"50 350 LINE",
"50 167 LINE",
"50 167 LINE",
"50 167 OFFCURVE",
"50 167 OFFCURVE",
"50 167 CURVE",
"50 75 OFFCURVE",
"127 0 OFFCURVE",
"223 0 CURVE",
"282 0 OFFCURVE",
"334 31 OFFCURVE",
"366 75 CURVE SMOOTH",
"373 49 OFFCURVE",
"385 22 OFFCURVE",
"402 0 CURVE",
"446 0 LINE",
"446 0 LINE",
"423 22 OFFCURVE",
"395 82 OFFCURVE",
"397 129 CURVE"
);
},
{
closed = 1;
nodes = (
"209 442 LINE",
"248 611 LINE",
"292 611 LINE",
"243 442 LINE"
);
}
);
width = 496;
}
);
unicode = 00FA;
},
{
glyphname = ucircumflex;
lastChange = "2020-05-14 05:18:52 +0000";
layers = (
{
layerId = "5C2A42EC-7958-4198-96CC-2E1007E4AFAD";
paths = (
{
closed = 1;
nodes = (
"397 241 LINE",
"397 241 OFFCURVE",
"397 241 OFFCURVE",
"397 241 CURVE",
"397 350 LINE",
"362 350 LINE",
"361 167 LINE",
"361 167 LINE SMOOTH",
"361 167 OFFCURVE",
"364 167 OFFCURVE",
"361 167 CURVE",
"361 95 OFFCURVE",
"298 33 OFFCURVE",
"223 33 CURVE SMOOTH",
"148 33 OFFCURVE",
"85 95 OFFCURVE",
"85 167 CURVE SMOOTH",
"85 167 OFFCURVE",
"85 167 OFFCURVE",
"85 167 CURVE SMOOTH",
"85 167 LINE",
"85 350 LINE",
"50 350 LINE",
"50 167 LINE",
"50 167 LINE",
"50 167 OFFCURVE",
"50 167 OFFCURVE",
"50 167 CURVE",
"50 75 OFFCURVE",
"127 0 OFFCURVE",
"223 0 CURVE",
"282 0 OFFCURVE",
"334 31 OFFCURVE",
"366 75 CURVE SMOOTH",
"373 49 OFFCURVE",
"385 22 OFFCURVE",
"402 0 CURVE",
"446 0 LINE",
"446 0 LINE",
"423 22 OFFCURVE",
"395 82 OFFCURVE",
"397 129 CURVE"
);
},
{
closed = 1;
nodes = (
"247 590 LINE",
"225 590 LINE",
"203 590 LINE",
"119 442 LINE",
"160 442 LINE",
"225 557 LINE",
"290 442 LINE",
"331 442 LINE"
);
}
);
width = 496;
}
);
unicode = 00FB;
},
{
glyphname = udieresis;
lastChange = "2020-05-14 05:19:31 +0000";
layers = (
{
layerId = "5C2A42EC-7958-4198-96CC-2E1007E4AFAD";
paths = (
{
closed = 1;
nodes = (
"397 241 LINE",
"397 241 OFFCURVE",
"397 241 OFFCURVE",
"397 241 CURVE",
"397 350 LINE",
"362 350 LINE",
"361 167 LINE",
"361 167 LINE SMOOTH",
"361 167 OFFCURVE",
"364 167 OFFCURVE",
"361 167 CURVE",
"361 95 OFFCURVE",
"298 33 OFFCURVE",
"223 33 CURVE SMOOTH",
"148 33 OFFCURVE",
"85 95 OFFCURVE",
"85 167 CURVE SMOOTH",
"85 167 OFFCURVE",
"85 167 OFFCURVE",
"85 167 CURVE SMOOTH",
"85 167 LINE",
"85 350 LINE",
"50 350 LINE",
"50 167 LINE",
"50 167 LINE",
"50 167 OFFCURVE",
"50 167 OFFCURVE",
"50 167 CURVE",
"50 75 OFFCURVE",
"127 0 OFFCURVE",
"223 0 CURVE",
"282 0 OFFCURVE",
"334 31 OFFCURVE",
"366 75 CURVE SMOOTH",
"373 49 OFFCURVE",
"385 22 OFFCURVE",
"402 0 CURVE",
"446 0 LINE",
"446 0 LINE",
"423 22 OFFCURVE",
"395 82 OFFCURVE",
"397 129 CURVE"
);
},
{
closed = 1;
nodes = (
"170 457 OFFCURVE",
"155 442 OFFCURVE",
"137 442 CURVE",
"118 442 OFFCURVE",
"103 457 OFFCURVE",
"103 476 CURVE",
"103 494 OFFCURVE",
"118 509 OFFCURVE",
"137 509 CURVE",
"155 509 OFFCURVE",
"170 494 OFFCURVE",
"170 476 CURVE"
);
},
{
closed = 1;
nodes = (
"348 457 OFFCURVE",
"333 442 OFFCURVE",
"315 442 CURVE",
"296 442 OFFCURVE",
"281 457 OFFCURVE",
"281 476 CURVE",
"281 494 OFFCURVE",
"296 509 OFFCURVE",
"315 509 CURVE",
"333 509 OFFCURVE",
"348 494 OFFCURVE",
"348 476 CURVE"
);
}
);
width = 496;
}
);
unicode = 00FC;
},
{
glyphname = ugrave;
lastChange = "2020-05-14 05:21:44 +0000";
layers = (
{
layerId = "5C2A42EC-7958-4198-96CC-2E1007E4AFAD";
paths = (
{
closed = 1;
nodes = (
"397 241 LINE",
"397 241 OFFCURVE",
"397 241 OFFCURVE",
"397 241 CURVE",
"397 350 LINE",
"362 350 LINE",
"361 167 LINE",
"361 167 LINE SMOOTH",
"361 167 OFFCURVE",
"364 167 OFFCURVE",
"361 167 CURVE",
"361 95 OFFCURVE",
"298 33 OFFCURVE",
"223 33 CURVE SMOOTH",
"148 33 OFFCURVE",
"85 95 OFFCURVE",
"85 167 CURVE SMOOTH",
"85 167 OFFCURVE",
"85 167 OFFCURVE",
"85 167 CURVE SMOOTH",
"85 167 LINE",
"85 350 LINE",
"50 350 LINE",
"50 167 LINE",
"50 167 LINE",
"50 167 OFFCURVE",
"50 167 OFFCURVE",
"50 167 CURVE",
"50 75 OFFCURVE",
"127 0 OFFCURVE",
"223 0 CURVE",
"282 0 OFFCURVE",
"334 31 OFFCURVE",
"366 75 CURVE SMOOTH",
"373 49 OFFCURVE",
"385 22 OFFCURVE",
"402 0 CURVE",
"446 0 LINE",
"446 0 LINE",
"423 22 OFFCURVE",
"395 82 OFFCURVE",
"397 129 CURVE"
);
},
{
closed = 1;
nodes = (
"243 442 LINE",
"204 611 LINE",
"160 611 LINE",
"209 442 LINE"
);
}
);
width = 496;
}
);
unicode = 00F9;
},
{
glyphname = v;
lastChange = "2020-04-15 20:42:04 +0000";
layers = (
{
layerId = "5C2A42EC-7958-4198-96CC-2E1007E4AFAD";
paths = (
{
closed = 1;
nodes = (
"246 350 LINE",
"259 336 OFFCURVE",
"263 316 OFFCURVE",
"257 298 CURVE",
"180 46 LINE",
"87 350 LINE",
"50 350 LINE",
"160 0 LINE",
"163 0 LINE",
"197 0 LINE",
"197 0 LINE",
"197 0 LINE",
"197 0 LINE",
"200 0 LINE",
"294 298 LINE",
"300 316 OFFCURVE",
"296 336 OFFCURVE",
"283 350 CURVE",
"283 350 LINE",
"246 350 LINE"
);
}
);
width = 347;
}
);
unicode = 0076;
},
{
glyphname = w;
lastChange = "2020-04-15 20:39:50 +0000";
layers = (
{
layerId = "5C2A42EC-7958-4198-96CC-2E1007E4AFAD";
paths = (
{
closed = 1;
nodes = (
"470 349 LINE",
"482 335 OFFCURVE",
"487 316 OFFCURVE",
"481 297 CURVE",
"404 45 LINE",
"311 349 LINE",
"311 349 LINE",
"310 349 LINE",
"274 349 LINE",
"273 349 LINE",
"180 45 LINE",
"86 349 LINE",
"50 349 LINE",
"158 0 LINE",
"163 0 LINE",
"196 0 LINE",
"196 -1 LINE",
"196 0 LINE",
"196 0 LINE",
"200 0 LINE",
"292 290 LINE",
"382 0 LINE",
"387 0 LINE",
"420 0 LINE",
"420 -1 LINE",
"420 0 LINE",
"420 0 LINE",
"424 0 LINE",
"518 297 LINE",
"524 315 OFFCURVE",
"519 335 OFFCURVE",
"507 349 CURVE"
);
}
);
width = 571;
}
);
unicode = 0077;
},
{
glyphname = x;
lastChange = "2020-04-15 20:42:11 +0000";
layers = (
{
layerId = "5C2A42EC-7958-4198-96CC-2E1007E4AFAD";
paths = (
{
closed = 1;
nodes = (
"208 178 LINE",
"322 350 LINE",
"281 350 LINE",
"188 208 LINE",
"95 350 LINE",
"53 350 LINE",
"168 178 LINE",
"50 0 LINE",
"89 0 LINE",
"188 148 LINE",
"263 36 LINE",
"276 17 OFFCURVE",
"286 5 OFFCURVE",
"302 0 CURVE",
"305 0 LINE",
"341 0 LINE",
"349 0 LINE",
"326 6 OFFCURVE",
"303 32 OFFCURVE",
"290 54 CURVE"
);
}
);
width = 399;
}
);
unicode = 0078;
},
{
glyphname = y;
lastChange = "2020-05-20 16:35:31 +0000";
layers = (
{
layerId = "5C2A42EC-7958-4198-96CC-2E1007E4AFAD";
paths = (
{
closed = 1;
nodes = (
"274 350 LINE",
"178 42 LINE",
"82 350 LINE",
"45 350 LINE",
"160 -15 LINE",
"127 -121 LINE",
"127 -121 OFFCURVE",
"127 -121 OFFCURVE",
"127 -121 CURVE",
"93 -228 LINE",
"81 -272 OFFCURVE",
"48 -311 OFFCURVE",
"0 -350 CURVE",
"50 -350 LINE",
"50 -350 LINE",
"93 -311 OFFCURVE",
"112 -284 OFFCURVE",
"125 -242 CURVE",
"135 -209 LINE",
"174 -85 LINE",
"184 -53 LINE",
"230 94 LINE",
"240 128 LINE",
"260 191 LINE",
"280 256 LINE",
"280 256 LINE",
"291 292 LINE",
"291 292 LINE",
"310 350 LINE"
);
}
);
width = 360;
}
);
unicode = 0079;
},
{
glyphname = ydieresis;
lastChange = "2020-05-14 05:21:00 +0000";
layers = (
{
layerId = "5C2A42EC-7958-4198-96CC-2E1007E4AFAD";
paths = (
{
closed = 1;
nodes = (
"324 350 LINE",
"228 42 LINE",
"132 350 LINE",
"95 350 LINE",
"210 -15 LINE",
"177 -121 LINE",
"177 -121 OFFCURVE",
"177 -121 OFFCURVE",
"177 -121 CURVE",
"143 -228 LINE",
"131 -272 OFFCURVE",
"98 -311 OFFCURVE",
"50 -350 CURVE",
"100 -350 LINE",
"100 -350 LINE",
"143 -311 OFFCURVE",
"162 -284 OFFCURVE",
"175 -242 CURVE",
"185 -209 LINE",
"224 -85 LINE",
"234 -53 LINE",
"280 94 LINE",
"290 128 LINE",
"310 191 LINE",
"330 256 LINE",
"330 256 LINE",
"341 292 LINE",
"341 292 LINE",
"360 350 LINE"
);
},
{
closed = 1;
nodes = (
"170 457 OFFCURVE",
"155 442 OFFCURVE",
"137 442 CURVE",
"118 442 OFFCURVE",
"103 457 OFFCURVE",
"103 476 CURVE",
"103 494 OFFCURVE",
"118 509 OFFCURVE",
"137 509 CURVE",
"155 509 OFFCURVE",
"170 494 OFFCURVE",
"170 476 CURVE"
);
},
{
closed = 1;
nodes = (
"348 457 OFFCURVE",
"333 442 OFFCURVE",
"315 442 CURVE",
"296 442 OFFCURVE",
"281 457 OFFCURVE",
"281 476 CURVE",
"281 494 OFFCURVE",
"296 509 OFFCURVE",
"315 509 CURVE",
"333 509 OFFCURVE",
"348 494 OFFCURVE",
"348 476 CURVE"
);
}
);
width = 410;
}
);
unicode = 00FF;
},
{
glyphname = z;
lastChange = "2020-04-15 20:42:21 +0000";
layers = (
{
layerId = "5C2A42EC-7958-4198-96CC-2E1007E4AFAD";
paths = (
{
closed = 1;
nodes = (
"190 36 LINE",
"178 36 LINE",
"178 36 LINE",
"121 36 LINE",
"317 349 LINE",
"319 350 LINE",
"319 350 LINE",
"318 350 LINE",
"274 350 LINE",
"188 350 LINE",
"149 350 LINE",
"51 350 LINE",
"51 315 LINE",
"251 315 LINE",
"50 0 LINE",
"80 0 LINE",
"98 0 LINE",
"131 0 LINE",
"145 0 LINE",
"195 0 LINE",
"195 0 LINE",
"239 0 OFFCURVE",
"282 14 OFFCURVE",
"319 41 CURVE",
"319 85 LINE",
"319 87 LINE",
"285 54 OFFCURVE",
"240 36 OFFCURVE",
"195 36 CURVE"
);
}
);
width = 369;
}
);
unicode = 007A;
},
{
glyphname = zacute;
lastChange = "2020-05-14 05:21:23 +0000";
layers = (
{
layerId = "5C2A42EC-7958-4198-96CC-2E1007E4AFAD";
paths = (
{
closed = 1;
nodes = (
"190 36 LINE",
"178 36 LINE",
"178 36 LINE",
"121 36 LINE",
"317 349 LINE",
"319 350 LINE",
"319 350 LINE",
"318 350 LINE",
"274 350 LINE",
"188 350 LINE",
"149 350 LINE",
"51 350 LINE",
"51 315 LINE",
"251 315 LINE",
"50 0 LINE",
"80 0 LINE",
"98 0 LINE",
"131 0 LINE",
"145 0 LINE",
"195 0 LINE",
"195 0 LINE",
"239 0 OFFCURVE",
"282 14 OFFCURVE",
"319 41 CURVE",
"319 85 LINE",
"319 87 LINE",
"285 54 OFFCURVE",
"240 36 OFFCURVE",
"195 36 CURVE"
);
},
{
closed = 1;
nodes = (
"169 442 LINE",
"208 611 LINE",
"252 611 LINE",
"203 442 LINE"
);
}
);
width = 369;
}
);
unicode = 017A;
},
{
glyphname = zdotaccent;
lastChange = "2020-05-14 05:22:50 +0000";
layers = (
{
layerId = "5C2A42EC-7958-4198-96CC-2E1007E4AFAD";
paths = (
{
closed = 1;
nodes = (
"190 36 LINE",
"178 36 LINE",
"178 36 LINE",
"121 36 LINE",
"317 349 LINE",
"319 350 LINE",
"319 350 LINE",
"318 350 LINE",
"274 350 LINE",
"188 350 LINE",
"149 350 LINE",
"51 350 LINE",
"51 315 LINE",
"251 315 LINE",
"50 0 LINE",
"80 0 LINE",
"98 0 LINE",
"131 0 LINE",
"145 0 LINE",
"195 0 LINE",
"195 0 LINE",
"239 0 OFFCURVE",
"282 14 OFFCURVE",
"319 41 CURVE",
"319 85 LINE",
"319 87 LINE",
"285 54 OFFCURVE",
"240 36 OFFCURVE",
"195 36 CURVE"
);
},
{
closed = 1;
nodes = (
"223 457 OFFCURVE",
"208 442 OFFCURVE",
"190 442 CURVE",
"171 442 OFFCURVE",
"156 457 OFFCURVE",
"156 476 CURVE",
"156 494 OFFCURVE",
"171 509 OFFCURVE",
"190 509 CURVE",
"208 509 OFFCURVE",
"223 494 OFFCURVE",
"223 476 CURVE"
);
}
);
width = 369;
}
);
unicode = 017C;
},
{
glyphname = L_A.liga;
lastChange = "2020-04-29 17:41:20 +0000";
layers = (
{
layerId = "5C2A42EC-7958-4198-96CC-2E1007E4AFAD";
paths = (
{
closed = 1;
nodes = (
"84 665 OFFCURVE",
"99 618 OFFCURVE",
"100 572 CURVE SMOOTH",
"100 0 LINE",
"462 0 LINE",
"612 494 LINE",
"613 494 LINE",
"623 528 LINE",
"655 633 LINE",
"687 528 LINE",
"697 494 LINE",
"734 373 LINE",
"655 338 LINE",
"655 303 LINE",
"743 342 LINE",
"820 89 LINE SMOOTH",
"830 56 OFFCURVE",
"846 25 OFFCURVE",
"868 0 CURVE",
"910 0 LINE",
"885 29 OFFCURVE",
"866 65 OFFCURVE",
"851 108 CURVE SMOOTH",
"828 180 LINE",
"732 494 LINE",
"722 528 LINE",
"676 680 LINE",
"670 700 LINE",
"640 700 LINE",
"598 563 LINE",
"587 528 LINE",
"577 494 LINE",
"437 34 LINE",
"134 34 LINE",
"134 580 LINE SMOOTH",
"133 622 OFFCURVE",
"120 664 OFFCURVE",
"95 700 CURVE",
"50 700 LINE"
);
}
);
width = 960;
}
);
leftMetricsKey = L;
rightMetricsKey = A;
},
{
glyphname = T_Y.liga;
lastChange = "2020-04-29 17:42:34 +0000";
layers = (
{
layerId = "5C2A42EC-7958-4198-96CC-2E1007E4AFAD";
paths = (
{
closed = 1;
nodes = (
"83 648 OFFCURVE",
"127 665 OFFCURVE",
"170 666 CURVE SMOOTH",
"223 666 LINE",
"223 0 LINE",
"257 0 LINE",
"257 666 LINE",
"419 666 LINE",
"429 657 OFFCURVE",
"437 646 OFFCURVE",
"444 635 CURVE SMOOTH",
"447 631 LINE",
"618 347 LINE",
"620 0 LINE",
"651 0 LINE",
"651 347 LINE",
"862 700 LINE",
"823 700 LINE",
"636 378 LINE",
"481 639 LINE SMOOTH",
"468 662 OFFCURVE",
"452 683 OFFCURVE",
"433 700 CURVE",
"169 700 LINE SMOOTH",
"127 699 OFFCURVE",
"86 686 OFFCURVE",
"50 661 CURVE",
"50 617 LINE"
);
}
);
width = 912;
}
);
leftMetricsKey = T;
rightMetricsKey = Y;
},
{
glyphname = T_h.liga;
lastChange = "2020-04-29 17:24:49 +0000";
layers = (
{
layerId = "5C2A42EC-7958-4198-96CC-2E1007E4AFAD";
paths = (
{
closed = 1;
nodes = (
"83 648 OFFCURVE",
"127 666 OFFCURVE",
"170 666 CURVE SMOOTH",
"223 666 LINE",
"223 0 LINE",
"257 0 LINE",
"257 666 LINE",
"433 666 LINE",
"433 129 LINE SMOOTH",
"433 82 OFFCURVE",
"419 39 OFFCURVE",
"385 0 CURVE SMOOTH",
"385 0 LINE",
"428 0 LINE",
"456 39 OFFCURVE",
"467 86 OFFCURVE",
"467 133 CURVE SMOOTH",
"467 178 LINE SMOOTH",
"467 257 OFFCURVE",
"505 316 OFFCURVE",
"585 316 CURVE SMOOTH",
"666 316 OFFCURVE",
"693 254 OFFCURVE",
"697 174 CURVE",
"697 -1 LINE",
"731 -1 LINE",
"731 174 LINE",
"727 271 OFFCURVE",
"682 350 OFFCURVE",
"584 350 CURVE SMOOTH",
"533 350 OFFCURVE",
"491 329 OFFCURVE",
"467 295 CURVE",
"467 700 LINE",
"169 700 LINE SMOOTH",
"127 700 OFFCURVE",
"86 686 OFFCURVE",
"50 661 CURVE",
"50 617 LINE"
);
}
);
width = 781;
}
);
leftMetricsKey = T;
rightMetricsKey = h;
},
{
glyphname = zero;
lastChange = "2020-04-17 12:30:43 +0000";
layers = (
{
layerId = "5C2A42EC-7958-4198-96CC-2E1007E4AFAD";
paths = (
{
closed = 1;
nodes = (
"129 700 OFFCURVE",
"50 543 OFFCURVE",
"50 350 CURVE",
"50 157 OFFCURVE",
"129 0 OFFCURVE",
"227 0 CURVE",
"324 0 OFFCURVE",
"403 157 OFFCURVE",
"403 350 CURVE",
"403 543 OFFCURVE",
"324 700 OFFCURVE",
"227 700 CURVE"
);
},
{
closed = 1;
nodes = (
"145 34 OFFCURVE",
"84 187 OFFCURVE",
"84 350 CURVE",
"84 513 OFFCURVE",
"145 666 OFFCURVE",
"227 666 CURVE",
"309 666 OFFCURVE",
"369 513 OFFCURVE",
"369 350 CURVE",
"369 187 OFFCURVE",
"309 34 OFFCURVE",
"227 34 CURVE"
);
}
);
width = 453;
}
);
unicode = 0030;
},
{
glyphname = one;
lastChange = "2020-04-17 21:56:42 +0000";
layers = (
{
layerId = "5C2A42EC-7958-4198-96CC-2E1007E4AFAD";
paths = (
{
closed = 1;
nodes = (
"221 700 LINE",
"201 700 LINE",
"192 700 LINE",
"192 700 LINE",
"192 700 LINE",
"192 700 LINE",
"137 672 LINE",
"135 671 OFFCURVE",
"132 670 OFFCURVE",
"129 668 CURVE",
"119 664 LINE",
"98 655 OFFCURVE",
"74 650 OFFCURVE",
"50 650 CURVE",
"50 633 LINE",
"50 633 LINE",
"50 623 LINE",
"50 623 LINE",
"50 617 LINE",
"83 617 OFFCURVE",
"115 625 OFFCURVE",
"144 639 CURVE",
"192 660 LINE",
"192 606 LINE",
"192 606 LINE",
"192 0 LINE",
"226 0 LINE",
"226 112 LINE",
"226 145 LINE",
"226 145 LINE",
"226 482 LINE",
"226 520 LINE",
"226 675 LINE",
"226 675 LINE",
"226 700 LINE"
);
}
);
width = 276;
}
);
unicode = 0031;
},
{
glyphname = two;
lastChange = "2020-04-17 05:23:07 +0000";
layers = (
{
layerId = "5C2A42EC-7958-4198-96CC-2E1007E4AFAD";
paths = (
{
closed = 1;
nodes = (
"353 401 LINE",
"386 435 OFFCURVE",
"403 479 OFFCURVE",
"403 523 CURVE",
"403 523 LINE",
"403 523 OFFCURVE",
"403 523 OFFCURVE",
"403 523 CURVE",
"403 568 OFFCURVE",
"386 613 OFFCURVE",
"352 648 CURVE",
"338 662 OFFCURVE",
"322 673 OFFCURVE",
"305 681 CURVE",
"239 714 OFFCURVE",
"157 704 OFFCURVE",
"102 649 CURVE",
"68 614 OFFCURVE",
"50 569 OFFCURVE",
"50 523 CURVE",
"83 523 LINE",
"83 559 OFFCURVE",
"97 596 OFFCURVE",
"126 625 CURVE",
"154 653 OFFCURVE",
"190 667 OFFCURVE",
"226 667 CURVE",
"226 667 LINE",
"243 667 OFFCURVE",
"261 664 OFFCURVE",
"277 657 CURVE",
"295 650 OFFCURVE",
"312 639 OFFCURVE",
"327 624 CURVE",
"345 606 OFFCURVE",
"357 587 OFFCURVE",
"363 566 CURVE",
"378 520 OFFCURVE",
"368 470 OFFCURVE",
"334 431 CURVE",
"334 431 LINE",
"334 430 OFFCURVE",
"308 389 OFFCURVE",
"243 305 CURVE",
"184 231 OFFCURVE",
"81 116 OFFCURVE",
"50 0 CURVE",
"84 0 LINE",
"84 0 OFFCURVE",
"84 0 OFFCURVE",
"84 0 CURVE",
"120 0 LINE",
"120 0 LINE",
"189 0 LINE",
"210 0 LINE",
"279 0 LINE",
"279 0 LINE",
"322 0 OFFCURVE",
"366 13 OFFCURVE",
"403 39 CURVE",
"403 81 LINE",
"403 83 LINE",
"369 51 OFFCURVE",
"323 34 OFFCURVE",
"279 34 CURVE",
"279 34 LINE",
"274 34 LINE",
"273 34 LINE",
"273 34 LINE",
"97 34 LINE",
"137 124 OFFCURVE",
"214 207 OFFCURVE",
"262 273 CURVE",
"324 359 OFFCURVE",
"352 400 OFFCURVE",
"353 401 CURVE"
);
}
);
width = 453;
}
);
unicode = 0032;
},
{
glyphname = three;
lastChange = "2020-04-17 21:56:51 +0000";
layers = (
{
layerId = "5C2A42EC-7958-4198-96CC-2E1007E4AFAD";
paths = (
{
closed = 1;
nodes = (
"393 462 OFFCURVE",
"420 507 OFFCURVE",
"420 559 CURVE",
"421 559 LINE",
"421 637 OFFCURVE",
"357 700 OFFCURVE",
"279 700 CURVE",
"279 700 OFFCURVE",
"279 700 OFFCURVE",
"279 700 CURVE",
"279 700 OFFCURVE",
"279 700 OFFCURVE",
"279 700 CURVE",
"204 700 OFFCURVE",
"144 643 OFFCURVE",
"138 570 CURVE",
"137 562 OFFCURVE",
"135 553 OFFCURVE",
"131 545 CURVE",
"130 543 OFFCURVE",
"129 541 OFFCURVE",
"128 539 CURVE",
"128 538 OFFCURVE",
"127 537 OFFCURVE",
"127 536 CURVE",
"126 536 OFFCURVE",
"126 536 OFFCURVE",
"126 535 CURVE",
"126 535 LINE",
"123 531 OFFCURVE",
"120 527 OFFCURVE",
"116 523 CURVE",
"118 523 LINE",
"156 523 LINE",
"158 527 OFFCURVE",
"165 538 OFFCURVE",
"170 555 CURVE",
"170 555 LINE",
"171 557 OFFCURVE",
"171 559 OFFCURVE",
"171 562 CURVE",
"173 620 OFFCURVE",
"221 666 OFFCURVE",
"279 666 CURVE",
"338 666 OFFCURVE",
"386 618 OFFCURVE",
"386 559 CURVE",
"386 499 OFFCURVE",
"338 451 OFFCURVE",
"279 451 CURVE",
"279 417 LINE",
"382 415 OFFCURVE",
"464 329 OFFCURVE",
"464 226 CURVE",
"464 201 OFFCURVE",
"460 178 OFFCURVE",
"451 157 CURVE",
"446 143 OFFCURVE",
"439 130 OFFCURVE",
"431 119 CURVE",
"397 69 OFFCURVE",
"340 36 OFFCURVE",
"275 36 CURVE",
"192 36 OFFCURVE",
"122 89 OFFCURVE",
"96 163 CURVE",
"96 163 LINE",
"89 182 OFFCURVE",
"85 204 OFFCURVE",
"85 226 CURVE",
"85 226 OFFCURVE",
"85 227 OFFCURVE",
"85 228 CURVE",
"50 228 LINE",
"50 227 OFFCURVE",
"50 226 OFFCURVE",
"50 225 CURVE",
"50 203 OFFCURVE",
"53 182 OFFCURVE",
"58 163 CURVE",
"58 163 LINE",
"58 163 OFFCURVE",
"58 163 OFFCURVE",
"58 164 CURVE",
"61 153 OFFCURVE",
"65 142 OFFCURVE",
"69 132 CURVE",
"70 131 OFFCURVE",
"70 130 OFFCURVE",
"70 130 CURVE",
"70 130 OFFCURVE",
"70 130 OFFCURVE",
"70 129 CURVE",
"94 78 OFFCURVE",
"137 37 OFFCURVE",
"191 16 CURVE",
"217 6 OFFCURVE",
"244 0 OFFCURVE",
"273 0 CURVE",
"276 0 OFFCURVE",
"280 0 OFFCURVE",
"283 0 CURVE",
"371 2 OFFCURVE",
"442 52 OFFCURVE",
"477 126 CURVE",
"492 156 OFFCURVE",
"500 190 OFFCURVE",
"500 226 CURVE",
"500 323 OFFCURVE",
"438 406 OFFCURVE",
"352 437 CURVE"
);
}
);
width = 550;
}
);
unicode = 0033;
},
{
glyphname = four;
lastChange = "2020-04-17 05:55:19 +0000";
layers = (
{
layerId = "5C2A42EC-7958-4198-96CC-2E1007E4AFAD";
paths = (
{
closed = 1;
nodes = (
"338 140 LINE",
"338 145 LINE",
"338 145 LINE",
"338 374 LINE",
"369 388 LINE",
"369 388 LINE",
"387 396 LINE",
"387 433 LINE",
"338 411 LINE",
"338 514 LINE",
"338 542 LINE",
"338 700 LINE",
"338 700 LINE",
"300 700 LINE",
"90 343 LINE",
"76 319 LINE",
"76 319 LINE",
"67 303 LINE",
"67 303 LINE",
"50 276 LINE",
"50 246 LINE",
"101 269 LINE",
"101 269 LINE",
"118 277 LINE",
"142 287 LINE",
"250 335 LINE",
"276 346 LINE",
"304 359 LINE",
"304 140 LINE",
"304 126 LINE",
"304 126 LINE",
"304 82 OFFCURVE",
"317 37 OFFCURVE",
"343 0 CURVE",
"385 0 LINE",
"387 0 LINE",
"357 32 OFFCURVE",
"340 75 OFFCURVE",
"338 117 CURVE"
);
},
{
closed = 1;
nodes = (
"304 606 LINE",
"304 396 LINE",
"108 310 LINE",
"113 317 LINE",
"113 317 LINE",
"113 317 LINE",
"113 317 LINE",
"304 642 LINE",
"304 606 LINE"
);
}
);
width = 437;
}
);
unicode = 0034;
},
{
glyphname = five;
lastChange = "2020-04-17 05:38:39 +0000";
layers = (
{
layerId = "5C2A42EC-7958-4198-96CC-2E1007E4AFAD";
paths = (
{
closed = 1;
nodes = (
"256 379 OFFCURVE",
"176 393 OFFCURVE",
"108 366 CURVE",
"138 450 LINE",
"153 490 LINE",
"216 665 LINE",
"236 665 LINE",
"236 665 LINE",
"282 666 OFFCURVE",
"330 649 OFFCURVE",
"365 616 CURVE",
"365 618 LINE",
"365 660 LINE",
"327 687 OFFCURVE",
"282 699 OFFCURVE",
"237 699 CURVE",
"237 699 LINE",
"211 699 LINE",
"193 699 LINE",
"191 693 LINE",
"190 693 LINE",
"112 477 LINE",
"62 338 LINE",
"62 338 LINE",
"62 338 OFFCURVE",
"61 336 OFFCURVE",
"60 332 CURVE",
"58 326 LINE",
"58 326 LINE",
"57 322 OFFCURVE",
"56 317 OFFCURVE",
"56 312 CURVE",
"90 312 LINE",
"90 312 OFFCURVE",
"99 319 OFFCURVE",
"102 321 CURVE",
"102 321 OFFCURVE",
"103 322 OFFCURVE",
"103 322 CURVE",
"103 322 OFFCURVE",
"103 322 OFFCURVE",
"103 322 CURVE",
"103 322 LINE",
"161 358 OFFCURVE",
"233 351 OFFCURVE",
"285 299 CURVE",
"346 238 OFFCURVE",
"346 145 OFFCURVE",
"284 83 CURVE",
"223 21 OFFCURVE",
"127 19 OFFCURVE",
"66 80 CURVE",
"62 84 OFFCURVE",
"55 91 OFFCURVE",
"50 96 CURVE",
"50 45 LINE",
"124 -19 OFFCURVE",
"238 -14 OFFCURVE",
"309 57 CURVE",
"384 132 OFFCURVE",
"384 251 OFFCURVE",
"311 325 CURVE"
);
}
);
width = 416;
}
);
unicode = 0035;
},
{
glyphname = six;
lastChange = "2020-04-15 15:58:48 +0000";
layers = (
{
layerId = "5C2A42EC-7958-4198-96CC-2E1007E4AFAD";
paths = (
{
closed = 1;
nodes = (
"318 330 OFFCURVE",
"272 347 OFFCURVE",
"226 347 CURVE",
"226 347 LINE",
"182 347 OFFCURVE",
"137 330 OFFCURVE",
"102 297 CURVE",
"108 315 OFFCURVE",
"115 333 OFFCURVE",
"123 353 CURVE",
"171 460 OFFCURVE",
"247 588 OFFCURVE",
"357 666 CURVE",
"384 685 OFFCURVE",
"402 700 OFFCURVE",
"402 700 CURVE",
"353 700 LINE",
"223 633 OFFCURVE",
"131 467 OFFCURVE",
"85 353 CURVE",
"45 254 OFFCURVE",
"50 177 OFFCURVE",
"50 177 CURVE",
"50 177 LINE",
"50 132 OFFCURVE",
"67 87 OFFCURVE",
"102 52 CURVE",
"132 22 OFFCURVE",
"170 5 OFFCURVE",
"209 1 CURVE",
"209 1 OFFCURVE",
"209 1 OFFCURVE",
"209 1 CURVE",
"210 1 OFFCURVE",
"210 1 OFFCURVE",
"210 1 CURVE",
"216 0 OFFCURVE",
"221 0 OFFCURVE",
"226 0 CURVE",
"226 0 LINE",
"262 0 OFFCURVE",
"298 10 OFFCURVE",
"328 32 CURVE",
"336 38 OFFCURVE",
"344 44 OFFCURVE",
"351 51 CURVE",
"420 119 OFFCURVE",
"421 229 OFFCURVE",
"352 296 CURVE"
);
},
{
closed = 1;
nodes = (
"154 301 OFFCURVE",
"190 315 OFFCURVE",
"226 315 CURVE",
"226 315 LINE",
"263 315 OFFCURVE",
"299 301 OFFCURVE",
"328 272 CURVE",
"356 245 OFFCURVE",
"370 211 OFFCURVE",
"370 177 CURVE",
"370 177 LINE",
"370 141 OFFCURVE",
"356 104 OFFCURVE",
"327 75 CURVE",
"270 18 OFFCURVE",
"183 19 OFFCURVE",
"126 76 CURVE",
"97 105 OFFCURVE",
"83 141 OFFCURVE",
"83 177 CURVE",
"83 177 LINE",
"83 177 OFFCURVE",
"83 181 OFFCURVE",
"83 188 CURVE",
"86 219 OFFCURVE",
"101 248 OFFCURVE",
"125 273 CURVE"
);
}
);
width = 453;
}
);
unicode = 0036;
},
{
glyphname = seven;
lastChange = "2020-04-17 05:08:03 +0000";
layers = (
{
layerId = "5C2A42EC-7958-4198-96CC-2E1007E4AFAD";
paths = (
{
closed = 1;
nodes = (
"287 700 LINE",
"260 700 LINE",
"171 700 LINE",
"171 700 LINE",
"129 699 OFFCURVE",
"86 686 OFFCURVE",
"50 661 CURVE",
"50 619 LINE",
"50 617 LINE",
"83 648 OFFCURVE",
"128 665 OFFCURVE",
"171 666 CURVE",
"171 666 LINE",
"179 666 LINE",
"179 666 OFFCURVE",
"179 666 OFFCURVE",
"179 666 CURVE",
"292 666 LINE",
"292 666 OFFCURVE",
"292 666 OFFCURVE",
"292 666 CURVE",
"292 666 LINE",
"354 666 LINE",
"283 449 OFFCURVE",
"234 226 OFFCURVE",
"208 0 CURVE",
"208 0 LINE",
"242 0 LINE",
"242 0 LINE",
"269 231 OFFCURVE",
"320 458 OFFCURVE",
"396 677 CURVE",
"404 700 LINE",
"379 700 LINE"
);
}
);
width = 454;
}
);
unicode = 0037;
},
{
glyphname = eight;
lastChange = "2020-04-17 06:33:44 +0000";
layers = (
{
layerId = "5C2A42EC-7958-4198-96CC-2E1007E4AFAD";
paths = (
{
closed = 1;
nodes = (
"393 462 OFFCURVE",
"421 507 OFFCURVE",
"421 559 CURVE",
"421 559 LINE",
"421 637 OFFCURVE",
"357 700 OFFCURVE",
"279 700 CURVE",
"279 700 OFFCURVE",
"279 700 OFFCURVE",
"279 700 CURVE",
"279 700 OFFCURVE",
"279 700 OFFCURVE",
"279 700 CURVE",
"278 700 OFFCURVE",
"278 700 OFFCURVE",
"278 700 CURVE",
"278 700 LINE",
"251 700 LINE",
"242 700 LINE",
"204 700 LINE",
"196 700 LINE",
"169 700 LINE",
"169 700 LINE",
"127 699 OFFCURVE",
"85 686 OFFCURVE",
"50 661 CURVE",
"50 619 LINE",
"50 617 LINE",
"83 648 OFFCURVE",
"127 665 OFFCURVE",
"170 666 CURVE",
"187 666 LINE",
"156 640 OFFCURVE",
"137 602 OFFCURVE",
"137 559 CURVE",
"137 559 LINE SMOOTH",
"137 507 OFFCURVE",
"165 462 OFFCURVE",
"206 438 CURVE",
"117 406 OFFCURVE",
"50 322 OFFCURVE",
"50 225 CURVE",
"50 203 OFFCURVE",
"53 182 OFFCURVE",
"58 163 CURVE",
"58 163 LINE",
"58 163 OFFCURVE",
"58 162 OFFCURVE",
"58 163 CURVE",
"61 152 OFFCURVE",
"65 141 OFFCURVE",
"69 131 CURVE",
"70 130 OFFCURVE",
"70 130 OFFCURVE",
"70 130 CURVE",
"70 130 OFFCURVE",
"70 130 OFFCURVE",
"70 129 CURVE",
"94 78 OFFCURVE",
"137 37 OFFCURVE",
"191 16 CURVE",
"217 6 OFFCURVE",
"244 0 OFFCURVE",
"273 0 CURVE",
"276 0 OFFCURVE",
"280 0 OFFCURVE",
"283 0 CURVE",
"371 2 OFFCURVE",
"442 52 OFFCURVE",
"477 126 CURVE",
"492 156 OFFCURVE",
"500 190 OFFCURVE",
"500 226 CURVE",
"500 323 OFFCURVE",
"438 406 OFFCURVE",
"352 437 CURVE"
);
},
{
closed = 1;
nodes = (
"171 617 OFFCURVE",
"218 664 OFFCURVE",
"276 666 CURVE",
"278 666 LINE",
"278 666 LINE",
"281 666 LINE",
"340 665 OFFCURVE",
"386 617 OFFCURVE",
"386 559 CURVE",
"386 499 OFFCURVE",
"338 451 OFFCURVE",
"279 451 CURVE",
"220 451 OFFCURVE",
"171 499 OFFCURVE",
"171 559 CURVE"
);
},
{
closed = 1;
nodes = (
"446 143 OFFCURVE",
"439 130 OFFCURVE",
"431 119 CURVE",
"397 69 OFFCURVE",
"340 36 OFFCURVE",
"275 36 CURVE",
"192 36 OFFCURVE",
"122 89 OFFCURVE",
"96 163 CURVE",
"96 163 LINE",
"89 182 OFFCURVE",
"85 204 OFFCURVE",
"85 226 CURVE",
"85 329 OFFCURVE",
"176 415 OFFCURVE",
"279 417 CURVE",
"279 417 OFFCURVE",
"279 417 OFFCURVE",
"279 417 CURVE",
"279 417 OFFCURVE",
"279 417 OFFCURVE",
"279 417 CURVE",
"382 415 OFFCURVE",
"464 329 OFFCURVE",
"464 226 CURVE",
"464 201 OFFCURVE",
"460 178 OFFCURVE",
"451 157 CURVE"
);
}
);
width = 550;
}
);
unicode = 0038;
},
{
glyphname = nine;
lastChange = "2020-04-15 15:59:17 +0000";
layers = (
{
layerId = "5C2A42EC-7958-4198-96CC-2E1007E4AFAD";
paths = (
{
closed = 1;
nodes = (
"403 523 LINE",
"403 568 OFFCURVE",
"386 614 OFFCURVE",
"351 648 CURVE",
"321 678 OFFCURVE",
"283 695 OFFCURVE",
"244 699 CURVE",
"244 699 OFFCURVE",
"244 699 OFFCURVE",
"244 699 CURVE",
"243 699 OFFCURVE",
"243 699 OFFCURVE",
"243 699 CURVE",
"238 700 OFFCURVE",
"232 700 OFFCURVE",
"227 700 CURVE",
"227 700 LINE",
"191 700 OFFCURVE",
"155 690 OFFCURVE",
"125 668 CURVE",
"117 662 OFFCURVE",
"109 656 OFFCURVE",
"102 649 CURVE",
"33 581 OFFCURVE",
"32 471 OFFCURVE",
"101 404 CURVE",
"135 370 OFFCURVE",
"181 353 OFFCURVE",
"227 353 CURVE",
"227 353 LINE",
"272 353 OFFCURVE",
"316 370 OFFCURVE",
"351 403 CURVE",
"345 385 OFFCURVE",
"339 367 OFFCURVE",
"330 347 CURVE",
"282 240 OFFCURVE",
"206 112 OFFCURVE",
"96 34 CURVE",
"69 15 OFFCURVE",
"51 0 OFFCURVE",
"51 0 CURVE",
"100 0 LINE",
"230 67 OFFCURVE",
"322 233 OFFCURVE",
"368 347 CURVE",
"408 446 OFFCURVE",
"403 523 OFFCURVE",
"403 523 CURVE"
);
},
{
closed = 1;
nodes = (
"299 399 OFFCURVE",
"263 385 OFFCURVE",
"227 385 CURVE",
"227 385 LINE",
"190 385 OFFCURVE",
"154 399 OFFCURVE",
"125 428 CURVE",
"97 455 OFFCURVE",
"83 489 OFFCURVE",
"83 523 CURVE",
"83 523 LINE",
"83 559 OFFCURVE",
"98 596 OFFCURVE",
"126 625 CURVE",
"183 682 OFFCURVE",
"270 681 OFFCURVE",
"327 624 CURVE",
"356 595 OFFCURVE",
"370 559 OFFCURVE",
"370 523 CURVE",
"370 523 LINE",
"370 523 OFFCURVE",
"371 519 OFFCURVE",
"370 512 CURVE",
"367 481 OFFCURVE",
"353 452 OFFCURVE",
"328 427 CURVE"
);
}
);
width = 453;
}
);
unicode = 0039;
},
{
glyphname = fraction;
lastChange = "2020-04-22 20:57:06 +0000";
layers = (
{
layerId = "5C2A42EC-7958-4198-96CC-2E1007E4AFAD";
paths = (
{
closed = 1;
nodes = (
"462 700 LINE",
"504 700 LINE",
"91 0 LINE",
"50 0 LINE"
);
}
);
width = 554;
}
);
unicode = 2044;
},
{
glyphname = period;
lastChange = "2020-04-15 15:59:27 +0000";
layers = (
{
layerId = "5C2A42EC-7958-4198-96CC-2E1007E4AFAD";
paths = (
{
closed = 1;
nodes = (
"117 15 OFFCURVE",
"102 0 OFFCURVE",
"84 0 CURVE",
"65 0 OFFCURVE",
"50 15 OFFCURVE",
"50 34 CURVE",
"50 52 OFFCURVE",
"65 67 OFFCURVE",
"84 67 CURVE",
"102 67 OFFCURVE",
"117 52 OFFCURVE",
"117 34 CURVE"
);
}
);
width = 167;
}
);
unicode = 002E;
},
{
glyphname = comma;
lastChange = "2020-04-22 19:44:48 +0000";
layers = (
{
layerId = "5C2A42EC-7958-4198-96CC-2E1007E4AFAD";
paths = (
{
closed = 1;
nodes = (
"50 -93 LINE",
"90 76 LINE",
"134 76 LINE",
"84 -93 LINE"
);
}
);
width = 184;
}
);
unicode = 002C;
},
{
glyphname = colon;
lastChange = "2020-04-22 19:19:51 +0000";
layers = (
{
layerId = "5C2A42EC-7958-4198-96CC-2E1007E4AFAD";
paths = (
{
closed = 1;
nodes = (
"117 15 OFFCURVE",
"102 0 OFFCURVE",
"83 0 CURVE",
"65 0 OFFCURVE",
"50 15 OFFCURVE",
"50 34 CURVE",
"50 52 OFFCURVE",
"65 67 OFFCURVE",
"83 67 CURVE",
"102 67 OFFCURVE",
"117 52 OFFCURVE",
"117 34 CURVE"
);
},
{
closed = 1;
nodes = (
"117 365 OFFCURVE",
"102 350 OFFCURVE",
"83 350 CURVE",
"65 350 OFFCURVE",
"50 365 OFFCURVE",
"50 384 CURVE",
"50 402 OFFCURVE",
"65 417 OFFCURVE",
"83 417 CURVE",
"102 417 OFFCURVE",
"117 402 OFFCURVE",
"117 384 CURVE"
);
}
);
width = 167;
}
);
unicode = 003A;
},
{
glyphname = semicolon;
lastChange = "2020-04-22 19:47:14 +0000";
layers = (
{
layerId = "5C2A42EC-7958-4198-96CC-2E1007E4AFAD";
paths = (
{
closed = 1;
nodes = (
"146 264 OFFCURVE",
"131 249 OFFCURVE",
"112 249 CURVE",
"94 249 OFFCURVE",
"79 264 OFFCURVE",
"79 282 CURVE",
"79 301 OFFCURVE",
"94 316 OFFCURVE",
"112 316 CURVE",
"131 316 OFFCURVE",
"146 301 OFFCURVE",
"146 282 CURVE"
);
},
{
closed = 1;
nodes = (
"51 -84 LINE",
"91 84 LINE",
"135 84 LINE",
"85 -84 LINE"
);
}
);
width = 196;
}
);
unicode = 003B;
},
{
glyphname = exclam;
lastChange = "2020-04-22 19:26:53 +0000";
layers = (
{
layerId = "5C2A42EC-7958-4198-96CC-2E1007E4AFAD";
paths = (
{
closed = 1;
nodes = (
"117 15 OFFCURVE",
"102 0 OFFCURVE",
"83 0 CURVE",
"65 0 OFFCURVE",
"50 15 OFFCURVE",
"50 34 CURVE",
"50 52 OFFCURVE",
"65 67 OFFCURVE",
"83 67 CURVE",
"102 67 OFFCURVE",
"117 52 OFFCURVE",
"117 34 CURVE"
);
},
{
closed = 1;
nodes = (
"100 196 LINE",
"105 700 LINE",
"61 700 LINE",
"66 196 LINE"
);
}
);
width = 167;
}
);
unicode = 0021;
},
{
glyphname = exclamdown;
lastChange = "2020-04-22 19:28:50 +0000";
layers = (
{
layerId = "5C2A42EC-7958-4198-96CC-2E1007E4AFAD";
paths = (
{
closed = 1;
nodes = (
"49 538 OFFCURVE",
"64 554 OFFCURVE",
"83 553 CURVE",
"101 553 OFFCURVE",
"116 538 OFFCURVE",
"117 519 CURVE",
"117 501 OFFCURVE",
"101 486 OFFCURVE",
"83 486 CURVE",
"64 487 OFFCURVE",
"50 501 OFFCURVE",
"50 519 CURVE"
);
},
{
closed = 1;
nodes = (
"66 357 LINE",
"61 -147 LINE",
"105 -147 LINE",
"100 357 LINE"
);
}
);
width = 167;
}
);
unicode = 00A1;
},
{
glyphname = question;
lastChange = "2020-04-19 05:09:30 +0000";
layers = (
{
layerId = "5C2A42EC-7958-4198-96CC-2E1007E4AFAD";
paths = (
{
closed = 1;
nodes = (
"260 15 OFFCURVE",
"245 0 OFFCURVE",
"227 0 CURVE",
"208 0 OFFCURVE",
"193 15 OFFCURVE",
"193 34 CURVE",
"193 52 OFFCURVE",
"208 67 OFFCURVE",
"227 67 CURVE",
"245 67 OFFCURVE",
"260 52 OFFCURVE",
"260 34 CURVE"
);
},
{
closed = 1;
nodes = (
"403 568 OFFCURVE",
"386 613 OFFCURVE",
"352 648 CURVE",
"338 662 OFFCURVE",
"322 673 OFFCURVE",
"305 681 CURVE",
"239 714 OFFCURVE",
"157 704 OFFCURVE",
"102 649 CURVE",
"68 614 OFFCURVE",
"50 569 OFFCURVE",
"50 523 CURVE",
"83 523 LINE",
"83 559 OFFCURVE",
"98 596 OFFCURVE",
"126 625 CURVE",
"154 653 OFFCURVE",
"190 667 OFFCURVE",
"226 667 CURVE",
"226 667 LINE",
"243 667 OFFCURVE",
"261 664 OFFCURVE",
"277 657 CURVE",
"295 650 OFFCURVE",
"312 639 OFFCURVE",
"327 624 CURVE",
"345 606 OFFCURVE",
"357 587 OFFCURVE",
"364 566 CURVE",
"378 521 OFFCURVE",
"370 472 OFFCURVE",
"338 434 CURVE",
"336 432 OFFCURVE",
"333 429 OFFCURVE",
"332 428 CURVE",
"314 416 OFFCURVE",
"245 357 OFFCURVE",
"229 300 CURVE",
"223 281 OFFCURVE",
"210 230 OFFCURVE",
"210 177 CURVE",
"244 177 LINE",
"244 177 OFFCURVE",
"242 215 OFFCURVE",
"252 258 CURVE",
"253 261 OFFCURVE",
"257 284 OFFCURVE",
"259 290 CURVE",
"259 290 OFFCURVE",
"260 291 OFFCURVE",
"260 291 CURVE",
"269 336 OFFCURVE",
"322 378 OFFCURVE",
"344 394 CURVE",
"344 394 LINE",
"344 394 OFFCURVE",
"344 394 OFFCURVE",
"344 394 CURVE",
"345 396 OFFCURVE",
"347 397 OFFCURVE",
"348 397 CURVE",
"351 400 OFFCURVE",
"356 404 OFFCURVE",
"360 408 CURVE",
"360 409 OFFCURVE",
"361 410 OFFCURVE",
"362 411 CURVE",
"362 411 OFFCURVE",
"362 411 OFFCURVE",
"362 411 CURVE",
"389 443 OFFCURVE",
"403 483 OFFCURVE",
"403 523 CURVE",
"403 523 LINE",
"403 523 OFFCURVE",
"403 523 OFFCURVE",
"403 523 CURVE"
);
}
);
width = 453;
}
);
unicode = 003F;
},
{
glyphname = questiondown;
lastChange = "2020-04-22 19:22:20 +0000";
layers = (
{
layerId = "5C2A42EC-7958-4198-96CC-2E1007E4AFAD";
paths = (
{
closed = 1;
nodes = (
"271 512 OFFCURVE",
"285 527 OFFCURVE",
"303 528 CURVE",
"322 527 OFFCURVE",
"337 512 OFFCURVE",
"338 493 CURVE",
"338 475 OFFCURVE",
"323 459 OFFCURVE",
"304 460 CURVE",
"286 460 OFFCURVE",
"271 475 OFFCURVE",
"270 493 CURVE"
);
},
{
closed = 1;
nodes = (
"133 -42 OFFCURVE",
"150 -88 OFFCURVE",
"185 -122 CURVE",
"199 -136 OFFCURVE",
"215 -147 OFFCURVE",
"232 -155 CURVE",
"298 -186 OFFCURVE",
"381 -176 OFFCURVE",
"434 -121 CURVE",
"468 -86 OFFCURVE",
"486 -41 OFFCURVE",
"485 6 CURVE",
"452 5 LINE",
"453 -31 OFFCURVE",
"439 -68 OFFCURVE",
"410 -97 CURVE",
"383 -125 OFFCURVE",
"347 -140 OFFCURVE",
"311 -139 CURVE",
"311 -139 LINE",
"294 -140 OFFCURVE",
"276 -137 OFFCURVE",
"260 -131 CURVE",
"242 -124 OFFCURVE",
"225 -113 OFFCURVE",
"209 -98 CURVE",
"191 -80 OFFCURVE",
"179 -61 OFFCURVE",
"172 -40 CURVE",
"157 5 OFFCURVE",
"165 54 OFFCURVE",
"197 92 CURVE",
"199 93 OFFCURVE",
"201 97 OFFCURVE",
"202 98 CURVE",
"221 110 OFFCURVE",
"289 170 OFFCURVE",
"304 228 CURVE",
"310 246 OFFCURVE",
"323 296 OFFCURVE",
"322 350 CURVE",
"288 350 LINE",
"288 350 OFFCURVE",
"291 312 OFFCURVE",
"280 269 CURVE",
"280 266 OFFCURVE",
"277 243 OFFCURVE",
"274 237 CURVE",
"274 237 OFFCURVE",
"274 236 OFFCURVE",
"274 236 CURVE",
"265 191 OFFCURVE",
"212 148 OFFCURVE",
"190 132 CURVE",
"190 132 LINE",
"190 132 OFFCURVE",
"190 132 OFFCURVE",
"190 132 CURVE",
"189 131 OFFCURVE",
"188 130 OFFCURVE",
"187 129 CURVE",
"183 126 OFFCURVE",
"178 123 OFFCURVE",
"174 118 CURVE",
"174 117 OFFCURVE",
"173 116 OFFCURVE",
"172 115 CURVE",
"172 115 OFFCURVE",
"172 115 OFFCURVE",
"172 115 CURVE",
"146 83 OFFCURVE",
"132 42 OFFCURVE",
"133 3 CURVE",
"133 3 LINE",
"133 3 OFFCURVE",
"133 3 OFFCURVE",
"133 3 CURVE"
);
}
);
width = 600;
}
);
unicode = 00BF;
},
{
glyphname = periodcentered;
lastChange = "2020-04-22 19:20:37 +0000";
layers = (
{
layerId = "5C2A42EC-7958-4198-96CC-2E1007E4AFAD";
paths = (
{
closed = 1;
nodes = (
"117 250 OFFCURVE",
"102 235 OFFCURVE",
"84 235 CURVE",
"65 235 OFFCURVE",
"50 250 OFFCURVE",
"50 269 CURVE",
"50 287 OFFCURVE",
"65 302 OFFCURVE",
"84 302 CURVE",
"102 302 OFFCURVE",
"117 287 OFFCURVE",
"117 269 CURVE"
);
}
);
width = 167;
}
);
unicode = 00B7;
},
{
glyphname = bullet;
lastChange = "2020-04-22 19:30:15 +0000";
layers = (
{
layerId = "5C2A42EC-7958-4198-96CC-2E1007E4AFAD";
paths = (
{
closed = 1;
nodes = (
"184 274 OFFCURVE",
"154 244 OFFCURVE",
"118 244 CURVE",
"80 244 OFFCURVE",
"50 274 OFFCURVE",
"50 312 CURVE",
"50 348 OFFCURVE",
"80 378 OFFCURVE",
"118 378 CURVE",
"154 378 OFFCURVE",
"184 348 OFFCURVE",
"184 312 CURVE"
);
}
);
width = 234;
}
);
unicode = 2022;
},
{
glyphname = asterisk;
lastChange = "2020-04-19 07:58:51 +0000";
layers = (
{
layerId = "5C2A42EC-7958-4198-96CC-2E1007E4AFAD";
paths = (
{
closed = 1;
nodes = (
"356 629 LINE",
"279 585 LINE",
"256 572 LINE",
"228 555 LINE",
"228 700 LINE",
"194 700 LINE",
"194 615 LINE",
"194 588 LINE",
"194 555 LINE",
"67 629 LINE",
"50 600 LINE",
"127 556 LINE",
"149 543 LINE",
"177 526 LINE",
"149 510 LINE",
"127 497 LINE",
"50 453 LINE",
"67 423 LINE",
"194 496 LINE",
"194 465 LINE",
"194 438 LINE",
"194 350 LINE",
"228 350 LINE",
"228 496 LINE",
"256 481 LINE",
"279 467 LINE",
"356 423 LINE",
"373 453 LINE",
"245 526 LINE",
"373 600 LINE"
);
}
);
width = 423;
}
);
unicode = 002A;
},
{
glyphname = numbersign;
lastChange = "2020-04-22 18:48:13 +0000";
layers = (
{
layerId = "5C2A42EC-7958-4198-96CC-2E1007E4AFAD";
paths = (
{
closed = 1;
nodes = (
"525 261 LINE",
"525 261 LINE",
"541 347 LINE",
"742 347 LINE",
"748 381 LINE",
"574 381 LINE",
"548 381 LINE",
"560 444 LINE",
"560 444 LINE",
"567 478 LINE",
"567 478 LINE",
"591 603 LINE",
"590 603 LINE",
"609 700 LINE",
"572 700 LINE",
"529 478 LINE",
"529 478 LINE",
"523 444 LINE",
"523 444 LINE",
"511 381 LINE",
"322 381 LINE",
"334 444 LINE",
"334 444 LINE",
"341 478 LINE",
"341 478 LINE",
"365 603 LINE",
"364 603 LINE",
"383 700 LINE",
"346 700 LINE",
"303 478 LINE",
"297 444 LINE",
"285 381 LINE",
"277 381 LINE",
"224 381 LINE",
"99 381 LINE",
"92 347 LINE",
"278 347 LINE",
"262 261 LINE",
"262 261 LINE",
"255 227 LINE",
"255 227 LINE",
"243 164 LINE",
"224 164 LINE",
"57 164 LINE",
"50 130 LINE",
"236 130 LINE",
"211 0 LINE",
"212 0 LINE",
"248 0 LINE",
"273 130 LINE",
"462 130 LINE",
"437 0 LINE",
"438 0 LINE",
"438 0 LINE",
"474 0 LINE",
"499 130 LINE",
"700 130 LINE",
"707 164 LINE",
"574 164 LINE",
"522 164 LINE",
"506 164 LINE",
"518 227 LINE"
);
},
{
closed = 1;
nodes = (
"488 261 LINE",
"481 227 LINE",
"481 227 LINE",
"469 164 LINE",
"280 164 LINE",
"292 227 LINE",
"292 227 LINE",
"299 261 LINE",
"299 261 LINE",
"315 347 LINE",
"504 347 LINE",
"488 261 LINE"
);
}
);
width = 798;
}
);
unicode = 0023;
},
{
glyphname = slash;
lastChange = "2020-04-19 05:11:02 +0000";
layers = (
{
layerId = "5C2A42EC-7958-4198-96CC-2E1007E4AFAD";
paths = (
{
closed = 1;
nodes = (
"462 700 LINE",
"504 700 LINE",
"91 0 LINE",
"50 0 LINE"
);
}
);
width = 554;
}
);
unicode = 002F;
},
{
glyphname = backslash;
lastChange = "2020-04-19 05:12:47 +0000";
layers = (
{
layerId = "5C2A42EC-7958-4198-96CC-2E1007E4AFAD";
paths = (
{
closed = 1;
nodes = (
"92 700 LINE",
"50 700 LINE",
"463 0 LINE",
"504 0 LINE"
);
}
);
width = 554;
}
);
unicode = 005C;
},
{
glyphname = parenleft;
lastChange = "2020-04-19 07:00:03 +0000";
layers = (
{
layerId = "5C2A42EC-7958-4198-96CC-2E1007E4AFAD";
paths = (
{
closed = 1;
nodes = (
"188 700 OFFCURVE",
"-122 361 OFFCURVE",
"188 0 CURVE",
"222 0 LINE",
"222 0 OFFCURVE",
"-88 310 OFFCURVE",
"222 700 CURVE",
"188 700 LINE"
);
}
);
width = 272;
}
);
unicode = 0028;
},
{
glyphname = parenright;
lastChange = "2020-04-19 07:01:40 +0000";
layers = (
{
layerId = "5C2A42EC-7958-4198-96CC-2E1007E4AFAD";
paths = (
{
closed = 1;
nodes = (
"84 700 OFFCURVE",
"394 361 OFFCURVE",
"84 0 CURVE",
"50 0 LINE",
"50 0 OFFCURVE",
"360 310 OFFCURVE",
"50 700 CURVE",
"84 700 LINE"
);
}
);
width = 272;
}
);
unicode = 0029;
},
{
glyphname = braceleft;
lastChange = "2020-05-14 07:09:25 +0000";
layers = (
{
layerId = "5C2A42EC-7958-4198-96CC-2E1007E4AFAD";
paths = (
{
closed = 1;
nodes = (
"189 668 OFFCURVE",
"300 666 OFFCURVE",
"300 666 CURVE",
"300 698 LINE",
"149 718 OFFCURVE",
"152 551 OFFCURVE",
"152 551 CURVE",
"157 353 OFFCURVE",
"50 370 OFFCURVE",
"50 370 CURVE",
"50 353 LINE",
"50 347 LINE",
"50 331 LINE",
"50 331 OFFCURVE",
"157 346 OFFCURVE",
"152 147 CURVE",
"152 147 OFFCURVE",
"149 -19 OFFCURVE",
"300 2 CURVE",
"300 34 LINE",
"300 34 OFFCURVE",
"189 31 OFFCURVE",
"189 143 CURVE",
"189 254 OFFCURVE",
"180 311 OFFCURVE",
"99 348 CURVE",
"99 352 LINE",
"180 387 OFFCURVE",
"189 443 OFFCURVE",
"189 555 CURVE"
);
}
);
width = 350;
}
);
unicode = 007B;
},
{
glyphname = braceright;
lastChange = "2020-05-14 07:10:24 +0000";
layers = (
{
layerId = "5C2A42EC-7958-4198-96CC-2E1007E4AFAD";
paths = (
{
closed = 1;
nodes = (
"164 32 OFFCURVE",
"53 34 OFFCURVE",
"53 34 CURVE",
"53 2 LINE",
"204 -18 OFFCURVE",
"200 149 OFFCURVE",
"200 149 CURVE",
"194 347 OFFCURVE",
"301 331 OFFCURVE",
"301 331 CURVE",
"301 348 LINE",
"301 354 LINE",
"301 370 LINE",
"301 370 OFFCURVE",
"194 354 OFFCURVE",
"199 553 CURVE",
"199 553 OFFCURVE",
"201 719 OFFCURVE",
"50 698 CURVE",
"50 666 LINE",
"50 666 OFFCURVE",
"161 669 OFFCURVE",
"162 557 CURVE",
"162 446 OFFCURVE",
"171 389 OFFCURVE",
"252 353 CURVE",
"252 349 LINE",
"172 313 OFFCURVE",
"163 257 OFFCURVE",
"163 145 CURVE"
);
}
);
width = 351;
}
);
unicode = 007D;
},
{
glyphname = bracketleft;
lastChange = "2020-04-19 05:16:03 +0000";
layers = (
{
layerId = "5C2A42EC-7958-4198-96CC-2E1007E4AFAD";
paths = (
{
closed = 1;
nodes = (
"84 473 LINE",
"84 525 LINE",
"84 666 LINE",
"86 666 LINE",
"91 666 LINE",
"115 666 LINE",
"120 666 LINE",
"137 666 LINE",
"137 700 LINE",
"69 700 LINE",
"69 700 LINE",
"50 700 LINE",
"50 0 LINE",
"84 0 LINE",
"84 0 LINE",
"86 0 LINE",
"91 0 LINE",
"115 0 LINE",
"120 0 LINE",
"137 0 LINE",
"137 34 LINE",
"84 34 LINE",
"84 175 LINE",
"84 228 LINE"
);
}
);
width = 187;
}
);
unicode = 005B;
},
{
glyphname = bracketright;
lastChange = "2020-04-19 05:16:39 +0000";
layers = (
{
layerId = "5C2A42EC-7958-4198-96CC-2E1007E4AFAD";
paths = (
{
closed = 1;
nodes = (
"118 700 LINE",
"50 700 LINE",
"50 666 LINE",
"67 666 LINE",
"72 666 LINE",
"96 666 LINE",
"101 666 LINE",
"103 666 LINE",
"103 525 LINE",
"103 473 LINE",
"103 228 LINE",
"103 175 LINE",
"103 34 LINE",
"50 34 LINE",
"50 0 LINE",
"67 0 LINE",
"72 0 LINE",
"96 0 LINE",
"101 0 LINE",
"103 0 LINE",
"103 0 LINE",
"137 0 LINE",
"137 700 LINE",
"118 700 LINE"
);
}
);
width = 187;
}
);
unicode = 005D;
},
{
glyphname = cornerbracketleft;
lastChange = "2020-05-14 06:53:19 +0000";
layers = (
{
layerId = "5C2A42EC-7958-4198-96CC-2E1007E4AFAD";
paths = (
{
closed = 1;
nodes = (
"84 473 LINE",
"84 525 LINE",
"84 666 LINE",
"86 666 LINE",
"91 666 LINE",
"115 666 LINE",
"120 666 LINE",
"214 666 LINE",
"214 700 LINE",
"69 700 LINE",
"69 700 LINE",
"50 700 LINE",
"50 350 LINE",
"84 350 LINE",
"84 350 LINE",
"84 384 LINE",
"84 525 LINE",
"84 578 LINE"
);
}
);
width = 264;
}
);
unicode = 300C;
},
{
glyphname = cornerbracketright;
lastChange = "2020-05-14 06:53:33 +0000";
layers = (
{
layerId = "5C2A42EC-7958-4198-96CC-2E1007E4AFAD";
paths = (
{
closed = 1;
nodes = (
"180 227 LINE",
"180 175 LINE",
"180 34 LINE",
"178 34 LINE",
"173 34 LINE",
"149 34 LINE",
"144 34 LINE",
"50 34 LINE",
"50 0 LINE",
"195 0 LINE",
"195 0 LINE",
"214 0 LINE",
"214 350 LINE",
"180 350 LINE",
"180 350 LINE",
"180 316 LINE",
"180 175 LINE",
"180 122 LINE"
);
}
);
width = 264;
}
);
unicode = 300D;
},
{
glyphname = dblanglebracketleft;
lastChange = "2020-04-22 19:31:44 +0000";
layers = (
{
layerId = "5C2A42EC-7958-4198-96CC-2E1007E4AFAD";
paths = (
{
closed = 1;
nodes = (
"178 700 LINE",
"50 350 LINE",
"178 0 LINE",
"214 0 LINE",
"86 350 LINE",
"214 700 LINE"
);
},
{
closed = 1;
nodes = (
"278 700 LINE",
"150 350 LINE",
"278 0 LINE",
"314 0 LINE",
"186 350 LINE",
"314 700 LINE"
);
}
);
width = 364;
}
);
unicode = 300A;
},
{
glyphname = dblanglebracketright;
lastChange = "2020-04-19 07:44:02 +0000";
layers = (
{
layerId = "5C2A42EC-7958-4198-96CC-2E1007E4AFAD";
paths = (
{
closed = 1;
nodes = (
"177 700 LINE",
"297 350 LINE",
"177 0 LINE",
"144 0 LINE",
"264 350 LINE",
"144 700 LINE"
);
},
{
closed = 1;
nodes = (
"84 700 LINE",
"204 350 LINE",
"84 0 LINE",
"50 0 LINE",
"170 350 LINE",
"50 700 LINE"
);
}
);
width = 347;
}
);
unicode = 300B;
},
{
glyphname = hyphen;
lastChange = "2020-04-22 19:38:16 +0000";
layers = (
{
layerId = "5C2A42EC-7958-4198-96CC-2E1007E4AFAD";
paths = (
{
closed = 1;
nodes = (
"100 295 LINE",
"50 295 LINE",
"50 329 LINE",
"250 329 LINE",
"250 295 LINE",
"200 295 LINE",
"185 295 LINE",
"115 295 LINE"
);
}
);
width = 300;
}
);
unicode = 002D;
},
{
glyphname = endash;
lastChange = "2020-04-22 19:39:00 +0000";
layers = (
{
layerId = "5C2A42EC-7958-4198-96CC-2E1007E4AFAD";
paths = (
{
closed = 1;
nodes = (
"150 295 LINE",
"50 295 LINE",
"50 329 LINE",
"450 329 LINE",
"450 295 LINE",
"350 295 LINE",
"320 295 LINE",
"180 295 LINE"
);
}
);
width = 500;
}
);
unicode = 2013;
},
{
glyphname = emdash;
lastChange = "2020-04-22 19:39:32 +0000";
layers = (
{
layerId = "5C2A42EC-7958-4198-96CC-2E1007E4AFAD";
paths = (
{
closed = 1;
nodes = (
"200 295 LINE",
"50 295 LINE",
"50 329 LINE",
"650 329 LINE",
"650 295 LINE",
"500 295 LINE",
"455 295 LINE",
"245 295 LINE"
);
}
);
width = 700;
}
);
unicode = 2014;
},
{
glyphname = underscore;
lastChange = "2020-04-22 19:39:47 +0000";
layers = (
{
layerId = "5C2A42EC-7958-4198-96CC-2E1007E4AFAD";
paths = (
{
closed = 1;
nodes = (
"162 -46 LINE",
"50 -46 LINE",
"50 -80 LINE",
"97 -80 LINE",
"111 -80 LINE",
"162 -80 LINE",
"177 -80 LINE",
"191 -80 LINE",
"209 -80 LINE",
"223 -80 LINE",
"238 -80 LINE",
"289 -80 LINE",
"303 -80 LINE",
"350 -80 LINE",
"350 -46 LINE",
"238 -46 LINE"
);
}
);
width = 400;
}
);
unicode = 005F;
},
{
glyphname = quotedblleft;
lastChange = "2020-04-22 19:41:35 +0000";
layers = (
{
layerId = "5C2A42EC-7958-4198-96CC-2E1007E4AFAD";
paths = (
{
closed = 1;
nodes = (
"240 531 LINE",
"201 700 LINE",
"157 700 LINE",
"206 531 LINE"
);
},
{
closed = 1;
nodes = (
"133 531 LINE",
"94 700 LINE",
"50 700 LINE",
"99 531 LINE"
);
}
);
width = 290;
}
);
unicode = 201C;
},
{
glyphname = quotedblright;
lastChange = "2020-04-22 19:42:17 +0000";
layers = (
{
layerId = "5C2A42EC-7958-4198-96CC-2E1007E4AFAD";
paths = (
{
closed = 1;
nodes = (
"50 531 LINE",
"89 700 LINE",
"133 700 LINE",
"84 531 LINE"
);
},
{
closed = 1;
nodes = (
"157 531 LINE",
"196 700 LINE",
"240 700 LINE",
"191 531 LINE"
);
}
);
width = 290;
}
);
unicode = 201D;
},
{
glyphname = quoteleft;
lastChange = "2020-04-22 19:41:49 +0000";
layers = (
{
layerId = "5C2A42EC-7958-4198-96CC-2E1007E4AFAD";
paths = (
{
closed = 1;
nodes = (
"133 531 LINE",
"94 700 LINE",
"50 700 LINE",
"99 531 LINE"
);
}
);
width = 183;
}
);
unicode = 2018;
},
{
glyphname = quoteright;
lastChange = "2020-04-22 19:42:32 +0000";
layers = (
{
layerId = "5C2A42EC-7958-4198-96CC-2E1007E4AFAD";
paths = (
{
closed = 1;
nodes = (
"50 531 LINE",
"89 700 LINE",
"133 700 LINE",
"84 531 LINE"
);
}
);
width = 183;
}
);
unicode = 2019;
},
{
glyphname = guillemetleft;
lastChange = "2020-04-22 19:33:05 +0000";
layers = (
{
layerId = "5C2A42EC-7958-4198-96CC-2E1007E4AFAD";
paths = (
{
closed = 1;
nodes = (
"178 466 LINE",
"50 291 LINE",
"178 116 LINE",
"214 116 LINE",
"86 291 LINE",
"214 466 LINE"
);
},
{
closed = 1;
nodes = (
"278 466 LINE",
"150 291 LINE",
"278 116 LINE",
"314 116 LINE",
"186 291 LINE",
"314 466 LINE"
);
}
);
width = 364;
}
);
unicode = 00AB;
},
{
glyphname = guillemetright;
lastChange = "2020-04-22 19:34:10 +0000";
layers = (
{
layerId = "5C2A42EC-7958-4198-96CC-2E1007E4AFAD";
paths = (
{
closed = 1;
nodes = (
"186 116 LINE",
"313 291 LINE",
"186 466 LINE",
"150 466 LINE",
"277 291 LINE",
"150 116 LINE"
);
},
{
closed = 1;
nodes = (
"86 116 LINE",
"214 291 LINE",
"86 466 LINE",
"50 466 LINE",
"178 291 LINE",
"50 116 LINE"
);
}
);
width = 363;
}
);
unicode = 00BB;
},
{
glyphname = guilsinglleft;
lastChange = "2020-04-22 19:34:40 +0000";
layers = (
{
layerId = "5C2A42EC-7958-4198-96CC-2E1007E4AFAD";
paths = (
{
closed = 1;
nodes = (
"178 466 LINE",
"50 291 LINE",
"178 116 LINE",
"214 116 LINE",
"86 291 LINE",
"214 466 LINE"
);
}
);
width = 264;
}
);
unicode = 2039;
},
{
glyphname = guilsinglright;
lastChange = "2020-04-22 19:35:05 +0000";
layers = (
{
layerId = "5C2A42EC-7958-4198-96CC-2E1007E4AFAD";
paths = (
{
closed = 1;
nodes = (
"86 116 LINE",
"213 291 LINE",
"86 466 LINE",
"50 466 LINE",
"177 291 LINE",
"50 116 LINE"
);
}
);
width = 263;
}
);
unicode = 203A;
},
{
glyphname = quotedbl;
lastChange = "2020-04-22 19:36:21 +0000";
layers = (
{
layerId = "5C2A42EC-7958-4198-96CC-2E1007E4AFAD";
paths = (
{
closed = 1;
nodes = (
"89 531 LINE",
"94 700 LINE",
"50 700 LINE",
"55 531 LINE"
);
},
{
closed = 1;
nodes = (
"201 531 LINE",
"206 700 LINE",
"162 700 LINE",
"167 531 LINE"
);
}
);
width = 256;
}
);
unicode = 0022;
},
{
glyphname = quotesingle;
lastChange = "2020-04-19 07:48:06 +0000";
layers = (
{
layerId = "5C2A42EC-7958-4198-96CC-2E1007E4AFAD";
paths = (
{
closed = 1;
nodes = (
"89 531 LINE",
"94 700 LINE",
"50 700 LINE",
"55 531 LINE"
);
}
);
width = 144;
}
);
unicode = 0027;
},
{
glyphname = cent;
lastChange = "2020-04-19 09:17:36 +0000";
layers = (
{
layerId = "5C2A42EC-7958-4198-96CC-2E1007E4AFAD";
paths = (
{
closed = 1;
nodes = (
"357 648 OFFCURVE",
"344 648 OFFCURVE",
"335 648 CURVE",
"335 648 LINE",
"294 648 OFFCURVE",
"257 640 OFFCURVE",
"223 626 CURVE",
"223 700 LINE",
"189 700 LINE",
"189 608 LINE",
"102 556 OFFCURVE",
"50 458 OFFCURVE",
"50 349 CURVE",
"50 243 OFFCURVE",
"105 149 OFFCURVE",
"189 96 CURVE",
"189 0 LINE",
"223 0 LINE",
"223 78 LINE",
"261 60 OFFCURVE",
"304 50 OFFCURVE",
"348 50 CURVE",
"353 50 OFFCURVE",
"358 50 OFFCURVE",
"363 50 CURVE",
"363 84 LINE",
"358 84 OFFCURVE",
"353 84 OFFCURVE",
"347 84 CURVE",
"303 84 OFFCURVE",
"261 95 OFFCURVE",
"223 116 CURVE",
"223 586 LINE",
"256 603 OFFCURVE",
"294 613 OFFCURVE",
"335 613 CURVE",
"363 614 LINE",
"363 636 LINE",
"363 636 LINE",
"363 648 LINE",
"363 648 LINE"
);
},
{
closed = 1;
nodes = (
"189 473 LINE",
"189 228 LINE",
"189 175 LINE",
"189 137 LINE",
"126 185 OFFCURVE",
"84 260 OFFCURVE",
"84 347 CURVE",
"84 437 OFFCURVE",
"124 517 OFFCURVE",
"189 565 CURVE",
"189 525 LINE"
);
}
);
width = 413;
}
);
unicode = 00A2;
},
{
glyphname = dollar;
lastChange = "2020-04-19 08:57:30 +0000";
layers = (
{
layerId = "5C2A42EC-7958-4198-96CC-2E1007E4AFAD";
paths = (
{
closed = 1;
nodes = (
"532 344 OFFCURVE",
"442 440 OFFCURVE",
"327 451 CURVE",
"327 486 LINE",
"327 543 LINE",
"327 665 LINE",
"379 658 OFFCURVE",
"419 613 OFFCURVE",
"419 559 CURVE",
"453 559 LINE",
"453 632 OFFCURVE",
"398 692 OFFCURVE",
"327 700 CURVE",
"327 736 LINE",
"293 736 LINE",
"293 700 LINE",
"293 700 LINE",
"223 692 OFFCURVE",
"170 631 OFFCURVE",
"170 559 CURVE",
"170 487 OFFCURVE",
"223 427 OFFCURVE",
"293 419 CURVE",
"293 37 LINE",
"216 42 OFFCURVE",
"152 93 OFFCURVE",
"128 163 CURVE",
"128 163 LINE",
"121 185 OFFCURVE",
"104 209 OFFCURVE",
"88 226 CURVE",
"57 226 LINE",
"50 226 LINE",
"66 208 OFFCURVE",
"82 187 OFFCURVE",
"90 164 CURVE",
"115 74 OFFCURVE",
"196 6 OFFCURVE",
"293 0 CURVE",
"293 -35 LINE",
"327 -35 LINE",
"327 0 LINE",
"442 11 OFFCURVE",
"532 108 OFFCURVE",
"532 226 CURVE"
);
},
{
closed = 1;
nodes = (
"203 612 OFFCURVE",
"242 656 OFFCURVE",
"293 665 CURVE",
"293 453 LINE",
"242 462 OFFCURVE",
"203 506 OFFCURVE",
"203 559 CURVE"
);
},
{
closed = 1;
nodes = (
"327 158 LINE",
"327 216 LINE",
"327 416 LINE",
"422 406 OFFCURVE",
"496 324 OFFCURVE",
"496 226 CURVE",
"496 128 OFFCURVE",
"422 48 OFFCURVE",
"327 37 CURVE"
);
}
);
width = 582;
}
);
unicode = 0024;
},
{
glyphname = euro;
lastChange = "2020-04-19 09:20:03 +0000";
layers = (
{
layerId = "5C2A42EC-7958-4198-96CC-2E1007E4AFAD";
paths = (
{
closed = 1;
nodes = (
"479 700 OFFCURVE",
"464 700 OFFCURVE",
"454 700 CURVE",
"454 700 LINE",
"307 693 OFFCURVE",
"184 596 OFFCURVE",
"139 464 CURVE",
"138 464 LINE",
"50 464 LINE",
"50 430 LINE",
"129 430 LINE",
"123 404 OFFCURVE",
"120 377 OFFCURVE",
"120 350 CURVE",
"120 334 OFFCURVE",
"121 318 OFFCURVE",
"123 303 CURVE",
"50 303 LINE",
"50 269 LINE",
"129 269 LINE",
"166 115 OFFCURVE",
"304 0 OFFCURVE",
"469 0 CURVE",
"475 0 OFFCURVE",
"481 0 OFFCURVE",
"487 0 CURVE",
"487 32 LINE",
"481 31 OFFCURVE",
"475 31 OFFCURVE",
"468 31 CURVE",
"321 31 OFFCURVE",
"197 132 OFFCURVE",
"162 269 CURVE",
"405 269 LINE",
"405 303 LINE",
"316 303 LINE",
"290 303 LINE",
"166 303 LINE",
"155 303 LINE",
"153 318 OFFCURVE",
"152 333 OFFCURVE",
"152 348 CURVE",
"152 376 OFFCURVE",
"156 403 OFFCURVE",
"163 430 CURVE",
"404 430 LINE",
"404 464 LINE",
"315 464 LINE",
"289 464 LINE",
"174 464 LINE",
"218 577 OFFCURVE",
"326 659 OFFCURVE",
"454 665 CURVE",
"454 665 LINE",
"487 665 LINE",
"487 686 LINE",
"487 686 LINE",
"487 700 LINE",
"486 700 LINE"
);
}
);
width = 537;
}
);
unicode = 20AC;
},
{
glyphname = plus;
lastChange = "2020-04-22 21:02:25 +0000";
layers = (
{
layerId = "5C2A42EC-7958-4198-96CC-2E1007E4AFAD";
paths = (
{
closed = 1;
nodes = (
"298 234 LINE",
"298 269 LINE",
"298 333 LINE",
"361 333 LINE",
"395 333 LINE",
"510 333 LINE",
"510 366 LINE",
"298 366 LINE",
"298 430 LINE",
"297 465 LINE",
"296 580 LINE",
"262 580 LINE",
"264 366 LINE",
"50 366 LINE",
"50 334 LINE",
"165 333 LINE",
"200 333 LINE",
"264 333 LINE",
"266 120 LINE",
"299 120 LINE"
);
}
);
width = 560;
}
);
unicode = 002B;
},
{
glyphname = minus;
lastChange = "2020-04-22 21:04:27 +0000";
layers = (
{
layerId = "5C2A42EC-7958-4198-96CC-2E1007E4AFAD";
paths = (
{
closed = 1;
nodes = (
"150 295 LINE",
"50 295 LINE",
"50 329 LINE",
"450 329 LINE",
"450 295 LINE",
"350 295 LINE",
"320 295 LINE",
"180 295 LINE"
);
}
);
width = 500;
}
);
unicode = 2212;
},
{
glyphname = multiply;
lastChange = "2020-04-22 20:59:32 +0000";
layers = (
{
layerId = "5C2A42EC-7958-4198-96CC-2E1007E4AFAD";
paths = (
{
closed = 1;
nodes = (
"319 280 LINE",
"294 305 LINE",
"249 350 LINE",
"294 394 LINE",
"318 419 LINE",
"400 501 LINE",
"375 525 LINE",
"225 374 LINE",
"181 419 LINE",
"156 443 LINE",
"75 525 LINE",
"50 501 LINE",
"201 350 LINE",
"50 199 LINE",
"74 175 LINE",
"155 256 LINE",
"180 281 LINE",
"225 326 LINE",
"376 175 LINE",
"400 199 LINE"
);
}
);
width = 450;
}
);
unicode = 00D7;
},
{
glyphname = divide;
lastChange = "2020-04-19 06:40:37 +0000";
layers = (
{
layerId = "5C2A42EC-7958-4198-96CC-2E1007E4AFAD";
paths = (
{
closed = 1;
nodes = (
"207 241 OFFCURVE",
"192 226 OFFCURVE",
"192 208 CURVE",
"192 189 OFFCURVE",
"207 174 OFFCURVE",
"225 174 CURVE",
"244 174 OFFCURVE",
"259 189 OFFCURVE",
"259 208 CURVE",
"259 226 OFFCURVE",
"244 241 OFFCURVE",
"225 241 CURVE"
);
},
{
closed = 1;
nodes = (
"244 458 OFFCURVE",
"259 473 OFFCURVE",
"259 492 CURVE",
"259 510 OFFCURVE",
"244 525 OFFCURVE",
"225 525 CURVE",
"207 525 OFFCURVE",
"192 510 OFFCURVE",
"192 492 CURVE",
"192 473 OFFCURVE",
"207 458 OFFCURVE",
"225 458 CURVE"
);
},
{
closed = 1;
nodes = (
"286 367 LINE",
"164 367 LINE",
"137 367 LINE",
"50 367 LINE",
"50 333 LINE",
"400 333 LINE",
"400 367 LINE",
"312 367 LINE"
);
}
);
width = 450;
}
);
unicode = 00F7;
},
{
glyphname = equal;
lastChange = "2020-04-22 21:05:22 +0000";
layers = (
{
layerId = "5C2A42EC-7958-4198-96CC-2E1007E4AFAD";
paths = (
{
closed = 1;
nodes = (
"150 350 LINE",
"50 350 LINE",
"50 384 LINE",
"450 384 LINE",
"450 350 LINE",
"350 350 LINE",
"320 350 LINE",
"180 350 LINE"
);
},
{
closed = 1;
nodes = (
"150 198 LINE",
"50 198 LINE",
"50 232 LINE",
"450 232 LINE",
"450 198 LINE",
"350 198 LINE",
"320 198 LINE",
"180 198 LINE"
);
}
);
width = 500;
}
);
unicode = 003D;
},
{
glyphname = notequal;
lastChange = "2020-04-22 21:09:03 +0000";
layers = (
{
layerId = "5C2A42EC-7958-4198-96CC-2E1007E4AFAD";
paths = (
{
closed = 1;
nodes = (
"150 350 LINE",
"50 350 LINE",
"50 384 LINE",
"450 384 LINE",
"450 350 LINE",
"350 350 LINE",
"320 350 LINE",
"180 350 LINE"
);
},
{
closed = 1;
nodes = (
"150 198 LINE",
"50 198 LINE",
"50 232 LINE",
"450 232 LINE",
"450 198 LINE",
"350 198 LINE",
"320 198 LINE",
"180 198 LINE"
);
},
{
closed = 1;
nodes = (
"340 461 LINE",
"381 461 LINE",
"171 104 LINE",
"130 104 LINE"
);
}
);
width = 500;
}
);
unicode = 2260;
},
{
glyphname = greater;
lastChange = "2020-04-19 08:52:34 +0000";
layers = (
{
layerId = "5C2A42EC-7958-4198-96CC-2E1007E4AFAD";
paths = (
{
closed = 1;
nodes = (
"340 310 LINE",
"340 288 LINE",
"340 266 LINE",
"50 102 LINE",
"50 143 LINE",
"307 288 LINE",
"50 433 LINE",
"50 474 LINE"
);
}
);
width = 390;
}
);
unicode = 003E;
},
{
glyphname = less;
lastChange = "2020-04-19 08:49:26 +0000";
layers = (
{
layerId = "5C2A42EC-7958-4198-96CC-2E1007E4AFAD";
paths = (
{
closed = 1;
nodes = (
"50 310 LINE",
"50 288 LINE",
"50 266 LINE",
"340 102 LINE",
"340 143 LINE",
"84 288 LINE",
"340 433 LINE",
"340 474 LINE"
);
}
);
width = 390;
}
);
unicode = 003C;
},
{
glyphname = asciitilde;
lastChange = "2020-04-22 20:50:46 +0000";
layers = (
{
layerId = "5C2A42EC-7958-4198-96CC-2E1007E4AFAD";
paths = (
{
closed = 1;
nodes = (
"278 329 OFFCURVE",
"260 311 OFFCURVE",
"239 311 CURVE",
"237 311 OFFCURVE",
"239 311 OFFCURVE",
"236 311 CURVE",
"236 311 LINE",
"230 311 OFFCURVE",
"216 318 OFFCURVE",
"212 320 CURVE",
"189 332 OFFCURVE",
"147 351 OFFCURVE",
"121 351 CURVE",
"121 351 LINE",
"81 351 OFFCURVE",
"50 320 OFFCURVE",
"50 280 CURVE",
"50 278 OFFCURVE",
"50 277 OFFCURVE",
"50 275 CURVE",
"83 275 LINE",
"83 277 OFFCURVE",
"83 278 OFFCURVE",
"83 280 CURVE",
"83 301 OFFCURVE",
"100 318 OFFCURVE",
"121 318 CURVE",
"121 318 LINE",
"121 318 OFFCURVE",
"134 321 OFFCURVE",
"174 303 CURVE SMOOTH",
"185 298 LINE",
"185 298 LINE",
"185 298 LINE",
"195 293 OFFCURVE",
"197 292 OFFCURVE",
"210 286 CURVE",
"215 284 OFFCURVE",
"219 282 OFFCURVE",
"225 280 CURVE",
"230 278 OFFCURVE",
"237 278 OFFCURVE",
"236 278 CURVE",
"236 278 LINE",
"236 278 LINE",
"236 278 LINE",
"237 278 OFFCURVE",
"234 278 OFFCURVE",
"236 278 CURVE",
"275 278 OFFCURVE",
"311 311 OFFCURVE",
"311 350 CURVE",
"278 350 LINE"
);
}
);
width = 361;
}
);
unicode = 007E;
},
{
glyphname = asciicircum;
lastChange = "2020-04-19 08:59:27 +0000";
layers = (
{
layerId = "5C2A42EC-7958-4198-96CC-2E1007E4AFAD";
paths = (
{
closed = 1;
nodes = (
"258 700 LINE",
"236 700 LINE",
"214 700 LINE",
"50 410 LINE",
"91 410 LINE",
"236 667 LINE",
"381 410 LINE",
"422 410 LINE"
);
}
);
width = 472;
}
);
unicode = 005E;
},
{
glyphname = percent;
lastChange = "2020-04-19 06:52:03 +0000";
layers = (
{
layerId = "5C2A42EC-7958-4198-96CC-2E1007E4AFAD";
paths = (
{
closed = 1;
nodes = (
"117 636 OFFCURVE",
"102 651 OFFCURVE",
"84 651 CURVE",
"65 651 OFFCURVE",
"50 636 OFFCURVE",
"50 618 CURVE",
"50 599 OFFCURVE",
"65 584 OFFCURVE",
"84 584 CURVE",
"102 584 OFFCURVE",
"117 599 OFFCURVE",
"117 618 CURVE"
);
},
{
closed = 1;
nodes = (
"601 116 OFFCURVE",
"586 101 OFFCURVE",
"586 83 CURVE",
"586 64 OFFCURVE",
"601 49 OFFCURVE",
"620 49 CURVE",
"638 49 OFFCURVE",
"653 64 OFFCURVE",
"653 83 CURVE",
"653 101 OFFCURVE",
"638 116 OFFCURVE",
"620 116 CURVE"
);
},
{
closed = 1;
nodes = (
"84 0 LINE",
"125 0 LINE",
"621 700 LINE",
"579 700 LINE"
);
}
);
width = 703;
}
);
unicode = 0025;
},
{
glyphname = perthousand;
lastChange = "2020-04-29 15:51:24 +0000";
layers = (
{
layerId = "5C2A42EC-7958-4198-96CC-2E1007E4AFAD";
paths = (
{
closed = 1;
nodes = (
"117 636 OFFCURVE",
"102 651 OFFCURVE",
"84 651 CURVE",
"65 651 OFFCURVE",
"50 636 OFFCURVE",
"50 618 CURVE",
"50 599 OFFCURVE",
"65 584 OFFCURVE",
"84 584 CURVE",
"102 584 OFFCURVE",
"117 599 OFFCURVE",
"117 618 CURVE"
);
},
{
closed = 1;
nodes = (
"601 116 OFFCURVE",
"586 101 OFFCURVE",
"586 83 CURVE",
"586 64 OFFCURVE",
"601 49 OFFCURVE",
"620 49 CURVE",
"638 49 OFFCURVE",
"653 64 OFFCURVE",
"653 83 CURVE",
"653 101 OFFCURVE",
"638 116 OFFCURVE",
"620 116 CURVE"
);
},
{
closed = 1;
nodes = (
"84 0 LINE",
"125 0 LINE",
"621 700 LINE",
"579 700 LINE"
);
},
{
closed = 1;
nodes = (
"749 116 OFFCURVE",
"734 101 OFFCURVE",
"734 83 CURVE",
"734 64 OFFCURVE",
"749 49 OFFCURVE",
"768 49 CURVE",
"786 49 OFFCURVE",
"801 64 OFFCURVE",
"801 83 CURVE",
"801 101 OFFCURVE",
"786 116 OFFCURVE",
"768 116 CURVE"
);
}
);
width = 851;
}
);
unicode = 2030;
},
{
glyphname = at;
lastChange = "2020-04-19 06:30:10 +0000";
layers = (
{
layerId = "5C2A42EC-7958-4198-96CC-2E1007E4AFAD";
paths = (
{
closed = 1;
nodes = (
"556 73 OFFCURVE",
"556 73 OFFCURVE",
"556 73 CURVE",
"556 73 OFFCURVE",
"556 73 OFFCURVE",
"556 73 CURVE"
);
},
{
closed = 1;
nodes = (
"750 223 OFFCURVE",
"749 247 OFFCURVE",
"749 250 CURVE",
"749 251 LINE",
"749 251 LINE",
"748 443 OFFCURVE",
"592 598 OFFCURVE",
"400 598 CURVE",
"207 598 OFFCURVE",
"50 441 OFFCURVE",
"50 248 CURVE",
"50 56 OFFCURVE",
"205 -100 OFFCURVE",
"397 -101 CURVE",
"397 -66 LINE",
"223 -65 OFFCURVE",
"82 76 OFFCURVE",
"82 250 CURVE",
"82 425 OFFCURVE",
"224 567 OFFCURVE",
"399 567 CURVE",
"573 567 OFFCURVE",
"715 425 OFFCURVE",
"715 251 CURVE",
"715 251 LINE",
"715 249 LINE",
"715 249 OFFCURVE",
"715 248 OFFCURVE",
"715 241 CURVE",
"715 230 OFFCURVE",
"715 208 OFFCURVE",
"714 191 CURVE",
"714 191 LINE",
"714 191 OFFCURVE",
"710 145 OFFCURVE",
"703 125 CURVE",
"701 119 OFFCURVE",
"700 117 OFFCURVE",
"695 107 CURVE",
"659 35 OFFCURVE",
"604 71 OFFCURVE",
"602 73 CURVE",
"602 73 LINE",
"571 104 OFFCURVE",
"554 146 OFFCURVE",
"551 188 CURVE",
"551 192 OFFCURVE",
"551 197 OFFCURVE",
"551 202 CURVE",
"551 240 LINE",
"551 243 OFFCURVE",
"551 245 OFFCURVE",
"551 248 CURVE",
"519 248 LINE",
"519 167 OFFCURVE",
"456 107 OFFCURVE",
"376 107 CURVE",
"296 107 OFFCURVE",
"235 171 OFFCURVE",
"235 251 CURVE",
"235 331 OFFCURVE",
"296 386 OFFCURVE",
"377 386 CURVE",
"377 386 OFFCURVE",
"376 393 OFFCURVE",
"377 393 CURVE",
"377 420 LINE",
"376 420 OFFCURVE",
"376 420 OFFCURVE",
"376 420 CURVE",
"280 420 OFFCURVE",
"201 344 OFFCURVE",
"201 248 CURVE",
"201 151 OFFCURVE",
"280 73 OFFCURVE",
"376 73 CURVE",
"436 73 OFFCURVE",
"490 103 OFFCURVE",
"521 149 CURVE",
"522 146 OFFCURVE",
"523 142 OFFCURVE",
"524 139 CURVE",
"531 115 OFFCURVE",
"541 93 OFFCURVE",
"556 73 CURVE",
"556 73 LINE",
"556 73 OFFCURVE",
"556 73 OFFCURVE",
"556 73 CURVE",
"556 73 OFFCURVE",
"556 73 OFFCURVE",
"556 73 CURVE",
"556 73 OFFCURVE",
"556 73 OFFCURVE",
"556 73 CURVE",
"556 73 OFFCURVE",
"556 73 OFFCURVE",
"556 73 CURVE",
"557 73 OFFCURVE",
"557 72 OFFCURVE",
"557 72 CURVE",
"557 72 OFFCURVE",
"557 72 OFFCURVE",
"557 72 CURVE",
"557 72 OFFCURVE",
"557 72 OFFCURVE",
"557 72 CURVE",
"557 72 OFFCURVE",
"557 72 OFFCURVE",
"557 72 CURVE",
"557 72 OFFCURVE",
"557 72 OFFCURVE",
"557 72 CURVE",
"558 72 OFFCURVE",
"558 72 OFFCURVE",
"558 71 CURVE",
"562 66 OFFCURVE",
"578 48 OFFCURVE",
"601 37 CURVE",
"611 32 OFFCURVE",
"622 29 OFFCURVE",
"633 29 CURVE",
"634 29 OFFCURVE",
"728 25 OFFCURVE",
"743 162 CURVE",
"745 176 OFFCURVE",
"746 188 OFFCURVE",
"746 193 CURVE"
);
}
);
width = 799;
}
);
unicode = 0040;
},
{
glyphname = ampersand;
lastChange = "2020-04-29 16:12:33 +0000";
layers = (
{
layerId = "5C2A42EC-7958-4198-96CC-2E1007E4AFAD";
paths = (
{
closed = 1;
nodes = (
"457 86 OFFCURVE",
"481 122 OFFCURVE",
"493 164 CURVE",
"501 187 OFFCURVE",
"516 208 OFFCURVE",
"532 226 CURVE",
"525 226 LINE",
"494 226 LINE",
"478 209 OFFCURVE",
"461 185 OFFCURVE",
"455 163 CURVE",
"455 163 LINE",
"443 131 OFFCURVE",
"424 103 OFFCURVE",
"398 81 CURVE",
"314 158 OFFCURVE",
"246 260 OFFCURVE",
"206 347 CURVE",
"199 364 OFFCURVE",
"193 380 OFFCURVE",
"188 395 CURVE",
"188 396 OFFCURVE",
"188 396 OFFCURVE",
"188 396 CURVE",
"178 429 LINE",
"178 429 LINE",
"178 429 OFFCURVE",
"178 429 OFFCURVE",
"178 429 CURVE",
"165 477 OFFCURVE",
"164 511 OFFCURVE",
"164 521 CURVE",
"164 521 LINE",
"164 521 OFFCURVE",
"161 539 OFFCURVE",
"163 559 CURVE",
"163 559 LINE",
"163 618 OFFCURVE",
"212 667 OFFCURVE",
"271 667 CURVE",
"330 667 OFFCURVE",
"378 619 OFFCURVE",
"379 560 CURVE",
"413 560 LINE",
"412 638 OFFCURVE",
"349 701 OFFCURVE",
"271 701 CURVE",
"193 701 OFFCURVE",
"130 637 OFFCURVE",
"130 559 CURVE",
"130 559 LINE",
"130 554 OFFCURVE",
"129 534 OFFCURVE",
"131 514 CURVE",
"132 497 OFFCURVE",
"134 460 OFFCURVE",
"147 411 CURVE",
"88 371 OFFCURVE",
"50 303 OFFCURVE",
"50 226 CURVE",
"50 101 OFFCURVE",
"151 1 OFFCURVE",
"276 1 CURVE",
"320 1 OFFCURVE",
"362 13 OFFCURVE",
"397 36 CURVE",
"415 22 OFFCURVE",
"433 10 OFFCURVE",
"452 0 CURVE",
"501 0 LINE",
"501 0 OFFCURVE",
"483 15 OFFCURVE",
"456 34 CURVE",
"446 41 OFFCURVE",
"436 49 OFFCURVE",
"426 58 CURVE"
);
},
{
closed = 1;
nodes = (
"171 36 OFFCURVE",
"86 121 OFFCURVE",
"86 226 CURVE",
"86 286 OFFCURVE",
"114 340 OFFCURVE",
"158 376 CURVE",
"161 366 OFFCURVE",
"165 357 OFFCURVE",
"168 347 CURVE",
"204 259 OFFCURVE",
"276 140 OFFCURVE",
"367 60 CURVE",
"340 45 OFFCURVE",
"309 36 OFFCURVE",
"276 36 CURVE"
);
}
);
width = 582;
}
);
unicode = 0026;
},
{
glyphname = copyright;
lastChange = "2020-04-19 05:22:03 +0000";
layers = (
{
layerId = "5C2A42EC-7958-4198-96CC-2E1007E4AFAD";
paths = (
{
closed = 1;
nodes = (
"319 204 OFFCURVE",
"254 269 OFFCURVE",
"254 350 CURVE",
"254 430 OFFCURVE",
"319 495 OFFCURVE",
"399 495 CURVE",
"399 495 OFFCURVE",
"399 495 OFFCURVE",
"400 495 CURVE",
"400 525 LINE",
"399 525 OFFCURVE",
"399 525 OFFCURVE",
"399 525 CURVE",
"302 525 OFFCURVE",
"224 446 OFFCURVE",
"224 350 CURVE",
"224 253 OFFCURVE",
"302 175 OFFCURVE",
"399 175 CURVE",
"496 175 OFFCURVE",
"574 253 OFFCURVE",
"574 349 CURVE",
"544 349 LINE",
"544 269 OFFCURVE",
"479 204 OFFCURVE",
"399 204 CURVE"
);
},
{
closed = 1;
nodes = (
"206 699 OFFCURVE",
"50 543 OFFCURVE",
"50 350 CURVE",
"50 156 OFFCURVE",
"206 0 OFFCURVE",
"399 0 CURVE",
"593 0 OFFCURVE",
"749 156 OFFCURVE",
"749 350 CURVE",
"749 543 OFFCURVE",
"593 699 OFFCURVE",
"399 699 CURVE"
);
},
{
closed = 1;
nodes = (
"533 54 OFFCURVE",
"469 32 OFFCURVE",
"400 32 CURVE",
"226 32 OFFCURVE",
"84 173 OFFCURVE",
"84 348 CURVE",
"84 348 LINE",
"84 349 OFFCURVE",
"84 350 OFFCURVE",
"84 351 CURVE",
"84 526 OFFCURVE",
"226 668 OFFCURVE",
"402 668 CURVE",
"577 668 OFFCURVE",
"719 526 OFFCURVE",
"719 351 CURVE",
"719 243 OFFCURVE",
"666 149 OFFCURVE",
"585 91 CURVE"
);
}
);
width = 799;
}
);
unicode = 00A9;
},
{
glyphname = registered;
lastChange = "2020-04-19 08:38:54 +0000";
layers = (
{
layerId = "5C2A42EC-7958-4198-96CC-2E1007E4AFAD";
paths = (
{
closed = 1;
nodes = (
"238 500 LINE",
"272 500 OFFCURVE",
"299 528 OFFCURVE",
"299 561 CURVE",
"299 595 OFFCURVE",
"272 622 OFFCURVE",
"238 622 CURVE",
"223 622 OFFCURVE",
"210 617 OFFCURVE",
"199 608 CURVE",
"197 613 OFFCURVE",
"195 617 OFFCURVE",
"191 622 CURVE",
"180 622 LINE",
"163 622 LINE",
"171 614 OFFCURVE",
"177 588 OFFCURVE",
"177 576 CURVE",
"177 574 LINE",
"177 562 LINE",
"177 560 OFFCURVE",
"177 559 OFFCURVE",
"177 557 CURVE",
"177 545 LINE",
"177 426 LINE",
"201 426 LINE",
"201 466 LINE",
"201 470 LINE",
"257 426 LINE",
"296 426 LINE",
"292 429 LINE",
"281 438 LINE",
"226 482 LINE",
"214 491 LINE",
"201 501 LINE",
"201 505 LINE",
"201 517 LINE",
"201 532 LINE",
"201 544 LINE",
"201 557 LINE",
"201 559 OFFCURVE",
"201 560 OFFCURVE",
"201 562 CURVE",
"201 565 LINE",
"203 584 OFFCURVE",
"219 599 OFFCURVE",
"238 599 CURVE",
"259 599 OFFCURVE",
"275 582 OFFCURVE",
"275 561 CURVE",
"275 541 OFFCURVE",
"259 524 OFFCURVE",
"238 524 CURVE"
);
},
{
closed = 1;
nodes = (
"131 706 OFFCURVE",
"50 625 OFFCURVE",
"50 525 CURVE",
"50 425 OFFCURVE",
"131 343 OFFCURVE",
"231 343 CURVE",
"332 343 OFFCURVE",
"413 425 OFFCURVE",
"413 525 CURVE",
"413 625 OFFCURVE",
"332 706 OFFCURVE",
"231 706 CURVE"
);
},
{
closed = 1;
nodes = (
"317 403 OFFCURVE",
"317 402 OFFCURVE",
"317 402 CURVE",
"316 402 OFFCURVE",
"315 401 OFFCURVE",
"313 400 CURVE",
"290 384 OFFCURVE",
"261 375 OFFCURVE",
"231 375 CURVE",
"213 375 OFFCURVE",
"195 379 OFFCURVE",
"178 385 CURVE",
"136 398 OFFCURVE",
"106 427 OFFCURVE",
"93 469 CURVE",
"86 486 OFFCURVE",
"82 505 OFFCURVE",
"82 525 CURVE",
"82 545 OFFCURVE",
"86 564 OFFCURVE",
"93 581 CURVE",
"106 622 OFFCURVE",
"135 651 OFFCURVE",
"177 664 CURVE",
"194 671 OFFCURVE",
"212 675 OFFCURVE",
"231 675 CURVE",
"314 675 OFFCURVE",
"381 608 OFFCURVE",
"381 525 CURVE",
"381 475 OFFCURVE",
"356 430 OFFCURVE",
"318 403 CURVE"
);
}
);
width = 463;
}
);
unicode = 00AE;
},
{
glyphname = bar;
lastChange = "2020-04-29 15:57:53 +0000";
layers = (
{
layerId = "5C2A42EC-7958-4198-96CC-2E1007E4AFAD";
paths = (
{
closed = 1;
nodes = (
"50 175 LINE",
"50 0 LINE",
"84 0 LINE",
"84 700 LINE",
"50 700 LINE",
"50 525 LINE",
"50 473 LINE",
"50 228 LINE"
);
}
);
width = 134;
}
);
unicode = 007C;
},
{
glyphname = brokenbar;
lastChange = "2020-04-29 15:58:32 +0000";
layers = (
{
layerId = "5C2A42EC-7958-4198-96CC-2E1007E4AFAD";
paths = (
{
closed = 1;
nodes = (
"50 485 LINE",
"50 413 LINE",
"84 413 LINE",
"84 700 LINE",
"50 700 LINE",
"50 629 LINE",
"50 607 LINE",
"50 506 LINE"
);
},
{
closed = 1;
nodes = (
"50 72 LINE",
"50 0 LINE",
"84 0 LINE",
"84 287 LINE",
"50 287 LINE",
"50 216 LINE",
"50 194 LINE",
"50 93 LINE"
);
}
);
width = 134;
}
);
unicode = 00A6;
},
{
glyphname = dieresiscomb;
lastChange = "2020-04-22 21:12:11 +0000";
layers = (
{
layerId = "5C2A42EC-7958-4198-96CC-2E1007E4AFAD";
paths = (
{
closed = 1;
nodes = (
"176 651 OFFCURVE",
"161 636 OFFCURVE",
"143 636 CURVE",
"124 636 OFFCURVE",
"109 651 OFFCURVE",
"109 670 CURVE",
"109 688 OFFCURVE",
"124 703 OFFCURVE",
"143 703 CURVE",
"161 703 OFFCURVE",
"176 688 OFFCURVE",
"176 670 CURVE"
);
},
{
closed = 1;
nodes = (
"354 651 OFFCURVE",
"339 636 OFFCURVE",
"321 636 CURVE",
"302 636 OFFCURVE",
"287 651 OFFCURVE",
"287 670 CURVE",
"287 688 OFFCURVE",
"302 703 OFFCURVE",
"321 703 CURVE",
"339 703 OFFCURVE",
"354 688 OFFCURVE",
"354 670 CURVE"
);
}
);
width = 321;
}
);
unicode = 0308;
},
{
glyphname = dotaccentcomb;
lastChange = "2020-04-22 21:11:00 +0000";
layers = (
{
layerId = "5C2A42EC-7958-4198-96CC-2E1007E4AFAD";
paths = (
{
closed = 1;
nodes = (
"164 651 OFFCURVE",
"149 636 OFFCURVE",
"131 636 CURVE",
"112 636 OFFCURVE",
"97 651 OFFCURVE",
"97 670 CURVE",
"97 688 OFFCURVE",
"112 703 OFFCURVE",
"131 703 CURVE",
"149 703 OFFCURVE",
"164 688 OFFCURVE",
"164 670 CURVE"
);
}
);
width = 167;
}
);
unicode = 0307;
},
{
glyphname = gravecomb;
lastChange = "2020-04-22 20:58:04 +0000";
layers = (
{
layerId = "5C2A42EC-7958-4198-96CC-2E1007E4AFAD";
paths = (
{
closed = 1;
nodes = (
"133 531 LINE",
"94 700 LINE",
"50 700 LINE",
"99 531 LINE"
);
}
);
width = 183;
}
);
unicode = 0300;
},
{
glyphname = acutecomb;
lastChange = "2020-04-22 20:58:22 +0000";
layers = (
{
layerId = "5C2A42EC-7958-4198-96CC-2E1007E4AFAD";
paths = (
{
closed = 1;
nodes = (
"50 531 LINE",
"89 700 LINE",
"133 700 LINE",
"84 531 LINE"
);
}
);
width = 183;
}
);
unicode = 0301;
},
{
glyphname = circumflexcomb;
lastChange = "2020-04-29 15:50:21 +0000";
layers = (
{
layerId = "5C2A42EC-7958-4198-96CC-2E1007E4AFAD";
paths = (
{
closed = 1;
nodes = (
"401 717 LINE",
"379 717 LINE",
"357 717 LINE",
"273 569 LINE",
"314 569 LINE",
"379 684 LINE",
"444 569 LINE",
"485 569 LINE"
);
}
);
width = 600;
}
);
unicode = 0302;
},
{
glyphname = ringcomb;
lastChange = "2020-04-29 15:37:44 +0000";
layers = (
{
layerId = "5C2A42EC-7958-4198-96CC-2E1007E4AFAD";
paths = (
{
closed = 1;
nodes = (
"303 737 OFFCURVE",
"267 700 OFFCURVE",
"267 655 CURVE",
"267 610 OFFCURVE",
"303 574 OFFCURVE",
"348 574 CURVE",
"393 574 OFFCURVE",
"430 610 OFFCURVE",
"430 655 CURVE",
"430 700 OFFCURVE",
"393 737 OFFCURVE",
"348 737 CURVE"
);
},
{
closed = 1;
nodes = (
"324 610 OFFCURVE",
"304 630 OFFCURVE",
"304 655 CURVE",
"304 680 OFFCURVE",
"324 700 OFFCURVE",
"348 700 CURVE",
"373 700 OFFCURVE",
"393 680 OFFCURVE",
"393 655 CURVE",
"393 630 OFFCURVE",
"373 610 OFFCURVE",
"348 610 CURVE"
);
}
);
width = 600;
}
);
unicode = 030A;
},
{
glyphname = tildecomb;
lastChange = "2020-04-29 15:29:38 +0000";
layers = (
{
layerId = "5C2A42EC-7958-4198-96CC-2E1007E4AFAD";
paths = (
{
closed = 1;
nodes = (
"478 678 OFFCURVE",
"460 660 OFFCURVE",
"439 660 CURVE",
"437 660 OFFCURVE",
"439 660 OFFCURVE",
"436 660 CURVE",
"436 660 LINE",
"430 660 OFFCURVE",
"416 667 OFFCURVE",
"412 669 CURVE",
"389 681 OFFCURVE",
"347 700 OFFCURVE",
"321 700 CURVE",
"321 700 LINE",
"281 700 OFFCURVE",
"250 669 OFFCURVE",
"250 629 CURVE",
"250 627 OFFCURVE",
"250 626 OFFCURVE",
"250 624 CURVE",
"283 624 LINE",
"283 626 OFFCURVE",
"283 627 OFFCURVE",
"283 629 CURVE",
"283 650 OFFCURVE",
"300 667 OFFCURVE",
"321 667 CURVE",
"321 667 LINE",
"321 667 OFFCURVE",
"334 670 OFFCURVE",
"374 652 CURVE SMOOTH",
"385 647 LINE",
"385 647 LINE",
"385 647 LINE",
"395 642 OFFCURVE",
"397 641 OFFCURVE",
"410 635 CURVE",
"415 633 OFFCURVE",
"419 631 OFFCURVE",
"425 629 CURVE",
"430 627 OFFCURVE",
"437 627 OFFCURVE",
"436 627 CURVE",
"436 627 LINE",
"436 627 LINE",
"436 627 LINE",
"437 627 OFFCURVE",
"434 627 OFFCURVE",
"436 627 CURVE",
"475 627 OFFCURVE",
"511 660 OFFCURVE",
"511 699 CURVE",
"478 699 LINE"
);
}
);
width = 600;
}
);
unicode = 0303;
},
{
glyphname = grave;
lastChange = "2020-04-19 07:50:36 +0000";
layers = (
{
layerId = "5C2A42EC-7958-4198-96CC-2E1007E4AFAD";
paths = (
{
closed = 1;
nodes = (
"133 558 LINE",
"94 727 LINE",
"50 727 LINE",
"99 558 LINE"
);
}
